<svg id="Layer_1" data-name="Layer 1" xmlns="http://www.w3.org/2000/svg" viewBox="0 0 306.27 147.17"><path d="M13.16,57.24a15.23,15.23,0,0,1-6-6.4,20.7,20.7,0,0,1-2.13-9.6V27.8a20.77,20.77,0,0,1,2.13-9.61,15.4,15.4,0,0,1,6-6.42A17.32,17.32,0,0,1,22.1,9.5a16.84,16.84,0,0,1,7.75,1.8,16.4,16.4,0,0,1,5.91,5.11A19,19,0,0,1,39,24.06h-7A11,11,0,0,0,29.8,20a10.46,10.46,0,0,0-3.52-2.78,9.92,9.92,0,0,0-9.43.47,9.62,9.62,0,0,0-3.51,4.06A14,14,0,0,0,12.1,27.8V41.24a14,14,0,0,0,1.24,6.06,9.26,9.26,0,0,0,8.76,5.49,10,10,0,0,0,4.2-.91,9.83,9.83,0,0,0,3.5-2.69,10.74,10.74,0,0,0,2.14-4.25h7a19,19,0,0,1-3.23,7.65,16.53,16.53,0,0,1-5.93,5.11,16.78,16.78,0,0,1-7.72,1.8A17.32,17.32,0,0,1,13.16,57.24Z"/><path d="M53.7,57.71a11.76,11.76,0,0,1-4.93-5.2,18.27,18.27,0,0,1-1.7-8.24V38.58a17.89,17.89,0,0,1,1.7-8.14,11.65,11.65,0,0,1,4.93-5.15,16,16,0,0,1,7.79-1.77,16,16,0,0,1,7.78,1.77,11.67,11.67,0,0,1,4.94,5.15,18,18,0,0,1,1.7,8.14v5.79a18.09,18.09,0,0,1-1.7,8.17,11.82,11.82,0,0,1-4.94,5.17,15.89,15.89,0,0,1-7.78,1.79A15.9,15.9,0,0,1,53.7,57.71Zm13.36-7a9.31,9.31,0,0,0,2-6.34V38.58a9.15,9.15,0,0,0-2-6.3,7,7,0,0,0-5.57-2.23,7,7,0,0,0-5.58,2.23,9.2,9.2,0,0,0-2,6.3v5.79a9.36,9.36,0,0,0,2,6.34A7,7,0,0,0,61.49,53,7,7,0,0,0,67.06,50.71Z"/><path d="M85.68,24h6.87V59H85.68ZM106.57,37.8a8.3,8.3,0,0,0-1.82-5.73,6.62,6.62,0,0,0-5.16-2,7.15,7.15,0,0,0-5.2,1.79,6.65,6.65,0,0,0-1.84,5l-.71-6.74a12.56,12.56,0,0,1,4.23-4.89,10.33,10.33,0,0,1,5.78-1.71,11.36,11.36,0,0,1,6.27,1.66,10.52,10.52,0,0,1,3.95,4.87,19.66,19.66,0,0,1,1.37,7.72V59h-6.87Zm20.88,0a8,8,0,0,0-1.92-5.73,7.1,7.1,0,0,0-5.39-2,6.29,6.29,0,0,0-5,2,8,8,0,0,0-1.75,5.52l-1.38-6.74a13.42,13.42,0,0,1,4.36-5.37,10.17,10.17,0,0,1,6-1.9,12,12,0,0,1,6.45,1.66,10.53,10.53,0,0,1,4.08,4.87,19.29,19.29,0,0,1,1.4,7.72V59h-6.88Z"/><path d="M144.77,24h6.88V59h-6.88ZM165.66,37.8a8.3,8.3,0,0,0-1.82-5.73,6.59,6.59,0,0,0-5.15-2,7.18,7.18,0,0,0-5.21,1.79,6.69,6.69,0,0,0-1.83,5l-.71-6.74a12.56,12.56,0,0,1,4.23-4.89,10.3,10.3,0,0,1,5.77-1.71,11.36,11.36,0,0,1,6.27,1.66,10.54,10.54,0,0,1,4,4.87,19.67,19.67,0,0,1,1.36,7.72V59h-6.87Zm20.89,0a8,8,0,0,0-1.92-5.73,7.11,7.11,0,0,0-5.39-2,6.26,6.26,0,0,0-5,2,8,8,0,0,0-1.76,5.52l-1.38-6.74a13.44,13.44,0,0,1,4.37-5.37,10.15,10.15,0,0,1,6-1.9A12,12,0,0,1,188,25.18,10.57,10.57,0,0,1,192,30.05a19.12,19.12,0,0,1,1.4,7.72V59h-6.87Z"/><path d="M203.87,10h6.87v6.87h-6.87Zm0,14h6.87V59h-6.87Z"/><path d="M221.18,24h6.88V59h-6.88ZM242.41,37.8a8,8,0,0,0-1.92-5.73,8.33,8.33,0,0,0-10.6-.23,6.69,6.69,0,0,0-1.83,5l-.71-6.74a12.56,12.56,0,0,1,4.23-4.89,10.31,10.31,0,0,1,5.78-1.71q5.69,0,8.81,3.72t3.11,10.53V59h-6.87Z"/><path d="M264.26,57.93a10.46,10.46,0,0,1-4.13-4.87,19,19,0,0,1-1.41-7.68V37.67A19.48,19.48,0,0,1,260.1,30a10.48,10.48,0,0,1,4-4.87,11.7,11.7,0,0,1,6.36-1.66A10.44,10.44,0,0,1,276.15,25a11.91,11.91,0,0,1,4.16,4.55l-.71,7.14a8.23,8.23,0,0,0-.8-3.8,5.48,5.48,0,0,0-2.35-2.41,7.75,7.75,0,0,0-3.72-.83,6.67,6.67,0,0,0-5.27,2.12,8.74,8.74,0,0,0-1.87,6v7.61a8.46,8.46,0,0,0,1.87,5.88,6.74,6.74,0,0,0,5.27,2.07,7.42,7.42,0,0,0,3.72-.86A5.62,5.62,0,0,0,278.8,50a8.58,8.58,0,0,0,.8-3.88l.48,7.38a10,10,0,0,1-3.42,4.35,9.6,9.6,0,0,1-5.85,1.75A12.29,12.29,0,0,1,264.26,57.93Zm.13,13.82a11.39,11.39,0,0,1-4.83-4.13l4.65-4.21a9.61,9.61,0,0,0,3.22,2.86,9,9,0,0,0,10-1.16A8.35,8.35,0,0,0,279.6,59V24h6.88V58a17.82,17.82,0,0,1-1.77,8.25,12,12,0,0,1-5.14,5.23,17.14,17.14,0,0,1-8.12,1.78A16.5,16.5,0,0,1,264.39,71.75Z"/><path d="M11.94,106.89a21,21,0,0,1-5.07-1.82,19.91,19.91,0,0,1-4.34-3L6.6,97a23.16,23.16,0,0,0,5.63,3.24,15.46,15.46,0,0,0,5.53,1.07,11.83,11.83,0,0,0,6.11-1.26,4.17,4.17,0,0,0,2-3.79,3,3,0,0,0-1.11-2.53A6.31,6.31,0,0,0,22,92.62c-1.1-.19-2.65-.36-4.65-.52h-.57c-.2,0-.39,0-.57-.06H16l-.27,0a27.38,27.38,0,0,1-5.76-1A7.9,7.9,0,0,1,6,88.29,9,9,0,0,1,4.45,82.6,11.55,11.55,0,0,1,6,76.44a9.23,9.23,0,0,1,4.52-3.69A19.89,19.89,0,0,1,18,71.52a26.54,26.54,0,0,1,5.21.5,23.49,23.49,0,0,1,4.73,1.5A23.87,23.87,0,0,1,32.28,76l-4.15,5A23.45,23.45,0,0,0,23,78.52a15.81,15.81,0,0,0-5-.84,9.3,9.3,0,0,0-5.25,1.2A4.06,4.06,0,0,0,11,82.47a2.42,2.42,0,0,0,1,2.12,5.73,5.73,0,0,0,2.51.94c1,.16,2.45.29,4.31.41a2.77,2.77,0,0,0,.42,0l.46,0h.2a.71.71,0,0,1,.2,0,29.67,29.67,0,0,1,6.25,1A8.48,8.48,0,0,1,30.66,90q1.75,2.19,1.75,6.33a11.19,11.19,0,0,1-1.62,6.25,9.73,9.73,0,0,1-4.86,3.72,23.09,23.09,0,0,1-8.17,1.25A26.31,26.31,0,0,1,11.94,106.89Z"/><path d="M46.8,105.71a11.79,11.79,0,0,1-4.94-5.2,18.4,18.4,0,0,1-1.7-8.24V86.58a18,18,0,0,1,1.7-8.14,11.67,11.67,0,0,1,4.94-5.15,16,16,0,0,1,7.78-1.77,16,16,0,0,1,7.78,1.77,11.67,11.67,0,0,1,4.94,5.15A18,18,0,0,1,69,86.58v5.79a18.09,18.09,0,0,1-1.7,8.17,11.82,11.82,0,0,1-4.94,5.17,15.86,15.86,0,0,1-7.78,1.79A15.86,15.86,0,0,1,46.8,105.71Zm13.36-7a9.36,9.36,0,0,0,2-6.34V86.58a9.2,9.2,0,0,0-2-6.3,7.06,7.06,0,0,0-5.58-2.23A7.06,7.06,0,0,0,49,80.28a9.2,9.2,0,0,0-2,6.3v5.79a9.36,9.36,0,0,0,2,6.34A7,7,0,0,0,54.58,101,7,7,0,0,0,60.16,98.71Z"/><path d="M84.4,105.71a11.79,11.79,0,0,1-4.94-5.2,18.4,18.4,0,0,1-1.7-8.24V86.58a18,18,0,0,1,1.7-8.14,11.67,11.67,0,0,1,4.94-5.15,18,18,0,0,1,15.56,0,11.67,11.67,0,0,1,4.94,5.15,18,18,0,0,1,1.7,8.14v5.79a18.09,18.09,0,0,1-1.7,8.17,11.82,11.82,0,0,1-4.94,5.17,17.8,17.8,0,0,1-15.56,0Zm13.36-7a9.36,9.36,0,0,0,2-6.34V86.58a9.2,9.2,0,0,0-2-6.3,8.1,8.1,0,0,0-11.16,0,9.2,9.2,0,0,0-2,6.3v5.79a9.36,9.36,0,0,0,2,6.34,8,8,0,0,0,11.16,0Z"/><path d="M116.37,72h6.87v35h-6.87ZM137.6,85.8a8,8,0,0,0-1.92-5.73,8.33,8.33,0,0,0-10.6-.23,6.65,6.65,0,0,0-1.84,5l-.7-6.74a12.46,12.46,0,0,1,4.22-4.89,10.33,10.33,0,0,1,5.78-1.71q5.7,0,8.81,3.72t3.12,10.53V107H137.6Z"/><path d="M221.87,75l-3-3a6.39,6.39,0,0,0-9.05,0l-2.3,2.3-.3-.3A1.53,1.53,0,0,0,205,74l-48.81,48.8h0a1.63,1.63,0,0,0-.33.49L151.4,134,146.78,145a1.54,1.54,0,0,0,.33,1.68,1.57,1.57,0,0,0,1.09.45,1.52,1.52,0,0,0,.59-.12l11.07-4.62h0L170.57,138a1.63,1.63,0,0,0,.49-.33h0l48.8-48.8a1.54,1.54,0,0,0,.45-1.09,1.5,1.5,0,0,0-.45-1.08l-.3-.31,2.31-2.3A6.4,6.4,0,0,0,221.87,75Zm-70.82,67.77,2.3-5.51,3.22,3.21Zm8.58-3.58-5-5,3.19-7.64,9.45,9.45ZM170,134.37l-10.52-10.51L201.2,82.12l10.51,10.51Zm43.9-43.91L203.37,80l2.72-2.73,10.52,10.52Zm5.81-8.58-2.28,2.28-7.74-7.74L212,74.14a3.31,3.31,0,0,1,4.7,0l3,3A3.32,3.32,0,0,1,219.69,81.88Z"/><path d="M185.85,100.71l-22.2,22.2a1.55,1.55,0,0,0,0,2.18,1.52,1.52,0,0,0,1.08.45,1.55,1.55,0,0,0,1.09-.45L188,102.88a1.53,1.53,0,1,0-2.17-2.17Z"/><path d="M192.76,93.8,190,96.6a1.54,1.54,0,0,0,2.18,2.17l2.79-2.8a1.53,1.53,0,1,0-2.17-2.17Z"/></svg>