<svg id="Layer_1" data-name="Layer 1" xmlns="http://www.w3.org/2000/svg" viewBox="0 0 369.71 170.34"><defs><style>.cls-1{fill:none;}.cls-2{fill:#424242;}</style></defs><path class="cls-1" d="M149,37H282.36V170.34H149Z"/><path class="cls-2" d="M205,98.11a5.57,5.57,0,1,1,0,11.11,5.57,5.57,0,1,1,0-11.11Zm21.38,0a5.57,5.57,0,1,1-6,5.56A5.76,5.76,0,0,1,226.38,98.11Zm27.6-50a11.87,11.87,0,0,1,11.72,12V164.79L253.41,153.7l-6.92-6.53-7.31-6.95,3,10.8H177.4a11.87,11.87,0,0,1-11.71-12V60.12a11.86,11.86,0,0,1,11.71-12H254ZM231.92,124.3c12.63-.41,17.49-8.87,17.49-8.87a79.4,79.4,0,0,0-8.23-34c-8.23-6.29-16.06-6.12-16.06-6.12l-.8.94c9.72,3,14.23,7.41,14.23,7.41a45.77,45.77,0,0,0-17.2-5.6,46.9,46.9,0,0,0-11.54.11,6.39,6.39,0,0,0-1,.11,42.44,42.44,0,0,0-13,3.68c-2.11,1-3.37,1.7-3.37,1.7s4.74-4.61,15-7.65l-.57-.7s-7.83-.17-16.06,6.13a79.33,79.33,0,0,0-8.23,34s4.8,8.46,17.43,8.87c0,0,2.11-2.63,3.83-4.84-7.26-2.22-10-6.89-10-6.89s.57.41,1.6,1a.71.71,0,0,0,.22.18c.18.12.35.17.52.29a32.35,32.35,0,0,0,4.17,2,46.4,46.4,0,0,0,8.4,2.51,39.24,39.24,0,0,0,14.81.06,36.82,36.82,0,0,0,8.28-2.51,32.7,32.7,0,0,0,6.57-3.44s-2.85,4.78-10.34,6.94c1.71,2.22,3.78,4.73,3.78,4.73Z"/><path d="M3.75,16.71H8.53V41H3.75ZM18.28,26.3a5.79,5.79,0,0,0-1.26-4,4.61,4.61,0,0,0-3.59-1.4,5,5,0,0,0-3.62,1.24,4.65,4.65,0,0,0-1.28,3.49L8,21A8.7,8.7,0,0,1,11,17.55a7.2,7.2,0,0,1,4-1.19,7.92,7.92,0,0,1,4.36,1.16,7.25,7.25,0,0,1,2.75,3.39,13.49,13.49,0,0,1,.95,5.36V41H18.28Zm14.53,0a5.58,5.58,0,0,0-1.33-4,5,5,0,0,0-3.75-1.4,4.37,4.37,0,0,0-3.45,1.36,5.55,5.55,0,0,0-1.22,3.84l-1-4.69a9.42,9.42,0,0,1,3-3.74,7.07,7.07,0,0,1,4.16-1.32,8.38,8.38,0,0,1,4.49,1.16,7.27,7.27,0,0,1,2.83,3.39,13.3,13.3,0,0,1,1,5.36V41H32.81Z"/><path d="M41.58,16.71h4.87l7.48,21.14L51.28,43Zm21.54,0-10.36,30a7.22,7.22,0,0,1-1.48,2.64A5.24,5.24,0,0,1,49,50.77a11,11,0,0,1-3.28.42h-1v-4.6h1a3.68,3.68,0,0,0,2.12-.54,4.23,4.23,0,0,0,1.37-1.85l9-27.49Z"/><path d="M81.56,27h4.78V61H81.56ZM84.8,56.49h7.71a8.19,8.19,0,0,0,5.84-2A7.22,7.22,0,0,0,100.43,49V39a7.22,7.22,0,0,0-2.08-5.52,8.19,8.19,0,0,0-5.84-1.95H84.8V27h7.57a15.74,15.74,0,0,1,7,1.43,9.89,9.89,0,0,1,4.43,4.17,13.37,13.37,0,0,1,1.53,6.61v9.66a13.37,13.37,0,0,1-1.53,6.61,9.86,9.86,0,0,1-4.44,4.17,15.83,15.83,0,0,1-7,1.43H84.8Z"/><path d="M112.59,27h4.78v4.78h-4.78Zm0,9.75h4.78V61h-4.78Z"/><path d="M129.2,61a14.4,14.4,0,0,1-3.53-1.27,13.56,13.56,0,0,1-3-2.11l2.83-3.49a16.12,16.12,0,0,0,3.92,2.25,10.61,10.61,0,0,0,3.84.75,8.21,8.21,0,0,0,4.26-.88,2.89,2.89,0,0,0,1.41-2.63,2,2,0,0,0-.77-1.76,4.51,4.51,0,0,0-1.92-.79q-1.16-.2-3.24-.36h-.39l-.4,0h-.38a19.74,19.74,0,0,1-4-.69A5.52,5.52,0,0,1,125.07,48a6.31,6.31,0,0,1-1.09-4A8.07,8.07,0,0,1,125,39.78a6.46,6.46,0,0,1,3.14-2.57,13.86,13.86,0,0,1,5.23-.85,18.45,18.45,0,0,1,3.62.35,15.88,15.88,0,0,1,6.31,2.79L140.46,43a16.12,16.12,0,0,0-3.6-1.76,11,11,0,0,0-3.45-.58,6.56,6.56,0,0,0-3.66.83,2.84,2.84,0,0,0-1.22,2.5,1.69,1.69,0,0,0,.69,1.47,4.05,4.05,0,0,0,1.75.66c.7.11,1.7.2,3,.28a1.37,1.37,0,0,0,.29,0l.32,0h.14l.14,0a21.15,21.15,0,0,1,4.35.68,5.82,5.82,0,0,1,3,2,6.94,6.94,0,0,1,1.22,4.41,7.75,7.75,0,0,1-1.13,4.34,6.75,6.75,0,0,1-3.38,2.59,16,16,0,0,1-5.69.87A18.55,18.55,0,0,1,129.2,61Z"/><path d="M153.67,60.15a8.42,8.42,0,0,1-3.6-3.61,12.17,12.17,0,0,1-1.24-5.72v-4a11.93,11.93,0,0,1,1.24-5.65,8.38,8.38,0,0,1,3.6-3.57,12.12,12.12,0,0,1,5.68-1.23,13.35,13.35,0,0,1,3.58.46,10.5,10.5,0,0,1,3,1.32,8.13,8.13,0,0,1,2.22,2.11l-3.44,3.09a7.1,7.1,0,0,0-2.42-1.8,6.86,6.86,0,0,0-2.88-.63,5.76,5.76,0,0,0-4.29,1.54,6,6,0,0,0-1.52,4.36v4a6.14,6.14,0,0,0,1.51,4.45,5.68,5.68,0,0,0,4.3,1.57,6.41,6.41,0,0,0,2.91-.68,7,7,0,0,0,2.39-1.92l3.44,3.33a8.58,8.58,0,0,1-2.25,2.07,10.64,10.64,0,0,1-3,1.31,14.09,14.09,0,0,1-3.55.44A12,12,0,0,1,153.67,60.15Z"/><path d="M177.35,60.15a8.23,8.23,0,0,1-3.43-3.62,12.76,12.76,0,0,1-1.19-5.73v-4a12.45,12.45,0,0,1,1.19-5.66,8.16,8.16,0,0,1,3.43-3.59,12.53,12.53,0,0,1,10.83,0,8.16,8.16,0,0,1,3.43,3.59,12.45,12.45,0,0,1,1.19,5.66v4a12.51,12.51,0,0,1-1.19,5.68,8.24,8.24,0,0,1-3.43,3.6,12.44,12.44,0,0,1-10.83,0Zm9.29-4.88a6.43,6.43,0,0,0,1.38-4.4v-4a6.38,6.38,0,0,0-1.38-4.39,5.65,5.65,0,0,0-7.75,0,6.38,6.38,0,0,0-1.37,4.39v4a6.43,6.43,0,0,0,1.37,4.4,5.57,5.57,0,0,0,7.75,0Z"/><path d="M199.59,36.71h4.78V61h-4.78Zm11.79,4.59a5.87,5.87,0,0,0-2.22-.39,4.36,4.36,0,0,0-4.79,4.73L203.88,41a8.89,8.89,0,0,1,2.91-3.38,6.84,6.84,0,0,1,3.94-1.21,8.92,8.92,0,0,1,3,.48,6.61,6.61,0,0,1,2.35,1.42L213,42.48A4.1,4.1,0,0,0,211.38,41.3Z"/><path d="M222.76,60.3a7.29,7.29,0,0,1-2.87-3.39,13.06,13.06,0,0,1-1-5.34V46.2a13.48,13.48,0,0,1,1-5.36,7.22,7.22,0,0,1,2.8-3.39,8.13,8.13,0,0,1,4.42-1.16A7.25,7.25,0,0,1,231,37.41a8.33,8.33,0,0,1,2.9,3.17l-.49,5a5.7,5.7,0,0,0-.57-2.65,3.81,3.81,0,0,0-1.62-1.68,5.47,5.47,0,0,0-2.59-.57A4.63,4.63,0,0,0,225,42.12a6.07,6.07,0,0,0-1.3,4.15v5.3a5.87,5.87,0,0,0,1.3,4.09,4.68,4.68,0,0,0,3.67,1.44,5.25,5.25,0,0,0,2.59-.6,3.86,3.86,0,0,0,1.62-1.72,5.9,5.9,0,0,0,.57-2.69l.33,5.13a7,7,0,0,1-2.38,3,6.71,6.71,0,0,1-4.07,1.22A8.58,8.58,0,0,1,222.76,60.3ZM233.44,27h4.78V61h-4.78Z"/><path d="M4.22,67H9V101H4.22ZM7,96.61h9.24q3.63,0,5.29-1.38a4.79,4.79,0,0,0,1.67-3.89v-.07a6.8,6.8,0,0,0-.6-3,4.11,4.11,0,0,0-1.89-1.91,7.1,7.1,0,0,0-3.3-.67H7V81.4H17.44a5.73,5.73,0,0,0,4-1.24,4.77,4.77,0,0,0,1.35-3.68,4.7,4.7,0,0,0-1.5-3.82,6.81,6.81,0,0,0-4.5-1.27H7V67H17.65a12.18,12.18,0,0,1,5.53,1.13,7.54,7.54,0,0,1,3.33,3.18,10.4,10.4,0,0,1,1.1,4.93,8.11,8.11,0,0,1-.68,3.29,6.71,6.71,0,0,1-2.07,2.62,7.78,7.78,0,0,1-3.46,1.47A7.51,7.51,0,0,1,25,85a7.67,7.67,0,0,1,2.3,2.9,8.85,8.85,0,0,1,.79,3.75v.07a9.56,9.56,0,0,1-1.21,4.87,8.24,8.24,0,0,1-3.5,3.26A11.52,11.52,0,0,1,18.05,101H7Z"/><path d="M38.65,100.15a8.25,8.25,0,0,1-3.44-3.62A12.9,12.9,0,0,1,34,90.8v-4a12.58,12.58,0,0,1,1.18-5.66,8.18,8.18,0,0,1,3.44-3.59,11.12,11.12,0,0,1,5.41-1.23,11.16,11.16,0,0,1,5.42,1.23,8.16,8.16,0,0,1,3.43,3.59,12.45,12.45,0,0,1,1.18,5.66v4a12.51,12.51,0,0,1-1.18,5.68,8.24,8.24,0,0,1-3.43,3.6,11,11,0,0,1-5.42,1.24A11,11,0,0,1,38.65,100.15Zm9.29-4.88a6.43,6.43,0,0,0,1.37-4.4v-4a6.38,6.38,0,0,0-1.37-4.39,4.91,4.91,0,0,0-3.88-1.54,4.92,4.92,0,0,0-3.88,1.54,6.43,6.43,0,0,0-1.37,4.39v4a6.48,6.48,0,0,0,1.37,4.4,4.88,4.88,0,0,0,3.88,1.57A4.86,4.86,0,0,0,47.94,95.27Z"/><path d="M59,76.71H70V81H59Zm3.87,22.82a7.35,7.35,0,0,1-1.37-4.82V69.63H66.3V94.76a2.26,2.26,0,0,0,.36,1.37,1.18,1.18,0,0,0,1,.48H70v4.55H67.22A5.38,5.38,0,0,1,62.89,99.53Z"/></svg>