<?xml version="1.0" encoding="UTF-8" standalone="no"?>
<svg
   xmlns:dc="http://purl.org/dc/elements/1.1/"
   xmlns:cc="http://creativecommons.org/ns#"
   xmlns:rdf="http://www.w3.org/1999/02/22-rdf-syntax-ns#"
   xmlns:svg="http://www.w3.org/2000/svg"
   xmlns="http://www.w3.org/2000/svg"
   xmlns:sodipodi="http://sodipodi.sourceforge.net/DTD/sodipodi-0.dtd"
   xmlns:inkscape="http://www.inkscape.org/namespaces/inkscape"
   sodipodi:docname="ginger head.svg"
   inkscape:version="1.0 (4035a4fb49, 2020-05-01)"
   id="svg372"
   version="1.1"
   viewBox="0 0 62.548065 67.360519"
   height="67.360519mm"
   width="62.548065mm">
  <title
     id="title428">Redhead</title>
  <defs
     id="defs366" />
  <sodipodi:namedview
     fit-margin-bottom="0"
     fit-margin-right="0"
     fit-margin-left="0"
     fit-margin-top="0"
     inkscape:window-maximized="1"
     inkscape:window-y="-9"
     inkscape:window-x="-9"
     inkscape:window-height="1001"
     inkscape:window-width="1920"
     inkscape:snap-global="false"
     showgrid="false"
     inkscape:document-rotation="0"
     inkscape:current-layer="layer1"
     inkscape:document-units="mm"
     inkscape:cy="148.66238"
     inkscape:cx="317.56499"
     inkscape:zoom="1.9712265"
     inkscape:pageshadow="2"
     inkscape:pageopacity="0.0"
     borderopacity="1.0"
     bordercolor="#666666"
     pagecolor="#ffffff"
     id="base" />
  <metadata
     id="metadata369">
    <rdf:RDF>
      <cc:Work
         rdf:about="">
        <dc:format>image/svg+xml</dc:format>
        <dc:type
           rdf:resource="http://purl.org/dc/dcmitype/StillImage" />
        <dc:title>Redhead</dc:title>
        <cc:license
           rdf:resource="http://creativecommons.org/publicdomain/zero/1.0/" />
      </cc:Work>
      <cc:License
         rdf:about="http://creativecommons.org/publicdomain/zero/1.0/">
        <cc:permits
           rdf:resource="http://creativecommons.org/ns#Reproduction" />
        <cc:permits
           rdf:resource="http://creativecommons.org/ns#Distribution" />
        <cc:permits
           rdf:resource="http://creativecommons.org/ns#DerivativeWorks" />
      </cc:License>
    </rdf:RDF>
  </metadata>
  <g
     transform="translate(53.119177,-111.46975)"
     id="layer1"
     inkscape:groupmode="layer"
     inkscape:label="Lager 1">
    <path
       d="m -11.540756,119.75611 -0.872815,5.23431 -3.087151,2.14767 -5.234305,-1.27485 -7.852232,6.24096 -6.576859,0.60409 -3.825608,-1.00665 -1.207677,1.61075 -6.107121,1.61076 -0.402561,1.94613 1.274858,2.75177 -0.2682,2.01331 c 0,0 1.073399,2.88544 1.1405,3.221 0.06711,0.33555 4.563544,3.95996 4.563544,3.95996 l 1.073837,3.15382 2.013313,5.10046 2.75177,4.29534 5.972762,4.49637 c 0,0 5.436052,1.81205 5.637382,2.08049 0.16755,0.22341 0.993336,2.70666 1.309997,3.66438 -0.216448,0.19227 -0.330819,0.32103 -0.30334,0.36225 0.268441,0.40267 2.214851,3.42305 2.214851,3.42305 l 1.342038,1.74459 -0.06718,1.54358 c 13.6236096,-6.24136 11.8788626,-13.01936 11.8788626,-13.01936 l -2.952793,-2.55023 c 0,0 -0.07462,0.0501 -0.077,0.0517 l 0.144177,-2.53473 -1.4092156,-4.76508 1.3420346,-2.81895 1.811777,1.4764 1.543574,-0.5364 0.134358,-4.02715 1.946135,-2.55023 0.939477,-4.22765 1.342554,-8.32197 0.06718,-5.70456 z"
       style="fill:#f7c09b;fill-opacity:1;stroke:none;stroke-width:0.264583px;stroke-linecap:butt;stroke-linejoin:miter;stroke-opacity:1"
       id="path402" />
    <path
       id="path409"
       d="m -28.188203,156.36386 c 0.284729,0 12.290815,-2.84729 12.290815,-2.84729 l -1.898195,5.50476 -7.213143,1.42365 z"
       style="fill:#ffffff;stroke:none;stroke-width:0.264583px;stroke-linecap:butt;stroke-linejoin:miter;stroke-opacity:1" />
    <path
       transform="scale(0.26458333)"
       d="m -64.568359,504.71094 -9.685547,6.09765 -5.560547,10.94141 0.539062,15.24414 30.490235,-0.17773 -3.048828,-29.59571 z m -69.412111,17.75586 -14.34765,6.99609 7.17382,26.90234 27.26172,-6.09765 -7.71094,-22.59961 -4.66406,-3.94531 z"
       style="fill:#ffffff;stroke:none;stroke-width:0.999999px;stroke-linecap:butt;stroke-linejoin:miter;stroke-opacity:1"
       id="path411" />
    <path
       id="path416"
       d="m -23.442715,160.53989 c 0.284729,-0.14237 3.796391,-0.75928 3.796391,-0.75928 0,0 0.284729,2.46766 0.04745,2.4202 -0.237275,-0.0475 -2.610019,0.56946 -2.610019,0.56946 z"
       style="fill:#ff5555;fill-opacity:1;stroke:none;stroke-width:0.264583px;stroke-linecap:butt;stroke-linejoin:miter;stroke-opacity:1" />
    <path
       id="path418"
       d="m 4.0336655,134.67697 1.0914626,1.8982 -5.45731231,3.70148 8.68424461,-0.522 c 0,0 0.5220039,3.8913 0.047455,3.70148 -0.474549,-0.18982 -10.0129815,-2.4202 -10.0129815,-2.4202 l 1.75583087,-2.98966 z"
       style="fill:#008080;stroke:none;stroke-width:0.264583px;stroke-linecap:butt;stroke-linejoin:miter;stroke-opacity:1" />
    <path
       transform="scale(0.26458333)"
       d="m -65.824219,422.38672 -8.966797,3.22851 c 0,0 -27.442734,2.33008 -28.160154,2.33008 -0.71743,0 -29.77344,14.5293 -29.77344,14.5293 l -18.65234,17.39648 -5.02149,-4.125 -14.16992,-1.97265 -17.39844,5.91797 -9.14648,18.29492 0.7168,16.32226 17.21875,16.32032 25.10937,-4.125 5.91992,-8.42969 9.32617,2.51172 h 21.34375 l 39.816411,-24.75196 c 0,0 12.555708,4.30485 14.169921,4.48438 1.614214,0.17938 14.707032,-5.20117 14.707032,-5.20117 l 6.457031,8.96679 5.201172,11.30079 0.539062,9.32617 c 0,0 3.585938,14.88705 3.585938,16.14258 0,1.25548 5.021484,6.99414 5.021484,6.99414 l 0.179688,5.20117 3.048828,15.7832 11.121094,-10.58203 6.2773434,-0.17969 3.5878906,-50.21875 -6.0996094,-24.21289 -15.9628906,-23.49609 -19.191406,-9.68555 z m 62.7753909,114.9668 -7.7128909,3.58789 -3.228515,15.0664 -3.585938,7.89063 -3.228516,3.04883 -1.255859,15.42578 -5.740234,0.71679 -5.917969,-2.68945 -5.021484,7.71094 4.125,26.90429 c 0,0 17.575599,19.37009 20.445312,18.83204 2.869713,-0.5381 33.720703,-13.99024 33.720703,-13.99024 l 12.734375,-21.34375 v -24.21289 l -18.474609,-16.32031 -3.048828,-10.4043 z m -158.5527319,54.70507 -5.02149,5.20118 -1.79297,11.29882 10.22266,16.32227 c 0,0 1.25685,9.50523 1.79492,10.22266 0.53807,0.71743 6.63477,8.25 6.63477,8.25 0,0 11.47985,4.66308 12.19726,5.20117 0.71743,0.53805 26.72461,-3.40821 26.72461,-3.40821 l 12.734378,-14.16796 -18.833988,-11.1211 -10.76171,-8.42969 -9.86329,-12.55468 -8.60937,0.71679 -7.5332,-1.79296 z"
       style="fill:#f39f7c;fill-opacity:1;stroke:none;stroke-width:0.999999px;stroke-linecap:butt;stroke-linejoin:miter;stroke-opacity:1"
       id="path407" />
    <path
       sodipodi:nodetypes="ssscsssssscsssssscssssscscssssscsssssssssscsscsssccssscsssssssssscsssssscsssccccsssssssscsssssssssscsssssssscsssssssssssssssssccssscccscssssssssssssssssssssccsssssssccssscssssssssscssssscsssssssssssssssssscsscsssscssssssscsssscscssccssscsccsscccssssssssssssssssscsssssssssscsssssscsssssssssssscsssssssssssssssssssssssscssssssssssscccssssssssssssssssssssssssssssssssssscsssssssscsssssssssscsssscsssscssssscsssssssssscsssccscscsscsscssssssssssssssssssssssssssssssscsssssssssssccssssssssssssssssssssssssssccsscccscsscsscsssssscssssssscssssssscccsssscsccssscscscscssssssssscsssssscsssssssssscccsssssscssssssssssscccsss"
       d="m -17.947083,111.4698 c -0.729406,-0.003 -1.431361,0.12425 -2.054138,0.38447 -0.585819,0.24476 -1.792732,0.39688 -3.14916,0.39688 -2.171761,0 -5.138534,0.48152 -6.627503,1.0759 -4.731541,1.88873 -7.67575,3.96931 -9.429398,6.66316 -0.88673,1.36216 -1.034076,1.4486 -1.503786,0.88263 -0.58687,-0.70713 -2.736072,-1.52036 -4.102592,-1.55236 -1.574221,-0.0369 -4.219477,1.06989 -5.732465,2.39831 -1.278512,1.12255 -2.364653,3.22393 -2.538865,4.91184 -0.30687,2.97328 1.480722,6.37504 4.213696,8.01863 1.100262,0.66167 1.251778,0.86257 1.256771,1.6614 0.0053,0.91803 0.940017,3.19257 1.312066,3.19257 0.11081,0 0.210592,0.86321 0.221691,1.91823 0.01339,1.27098 0.193257,2.31997 0.532268,3.10885 0.6164,1.43441 2.449306,3.18619 4.096906,3.91501 1.420241,0.62822 1.548479,0.83656 2.261878,3.67988 0.29962,1.19414 0.89998,2.97689 1.33377,3.96151 0.4338,0.98462 0.731457,1.88307 0.661458,1.99626 -0.217209,0.35144 -2.464366,0.22567 -3.252515,-0.1819 -0.880401,-0.45526 -2.135269,-1.87177 -2.135269,-2.4107 0,-0.53156 -0.512972,-0.46911 -0.709001,0.0863 -0.08987,0.25466 -0.3673,0.70114 -0.616501,0.99218 -1.59939,1.86793 -1.350497,5.33551 0.529683,7.37526 0.86098,0.93406 1.017093,1.28376 1.020093,2.28772 0.0067,2.17027 1.139582,3.75103 3.479893,4.855 0.218278,0.10295 0.688922,0.35401 1.045413,0.55811 2.37312,1.35872 8.410625,0.20802 10.696504,-2.03864 0.484991,-0.47667 1.029329,-1.14743 1.20923,-1.49035 0.272873,-0.52015 0.463783,-0.59588 1.153933,-0.45785 1.11847,0.2237 1.280345,0.43549 1.527556,1.99936 0.306699,1.94014 1.203714,3.55525 3.076815,5.54126 1.42756,1.51363 1.644645,1.87873 1.653646,2.77606 0.0098,1.01627 0.0185,1.02552 0.538986,0.55449 0.868367,-0.78587 0.655195,-1.58378 -0.810805,-3.03444 -1.373259,-1.3589 -1.555473,-2.08361 -0.390674,-1.55288 1.59747,0.72784 4.433478,-0.53185 6.818188,-3.02875 1.295591,-1.35654 2.9485806,-4.45881 3.2597486,-6.11746 0.09813,-0.52313 0.236376,-0.95085 0.307475,-0.95085 0.07108,0 1.126075,1.00309 2.344044,2.22933 1.21797,1.22621 2.486057,2.27284 2.817916,2.32544 0.998051,0.15822 3.62833399,-0.54725 4.52530599,-1.21337 0.46213501,-0.34321 1.61702001,-1.05195 2.56625001,-1.5751 0.94924,-0.52312 2.231085,-1.49663 2.848406,-2.16369 2.87642,-3.10825 4.0152084,-9.19138 2.339909,-12.49742 -0.753301,-1.48656 -2.663201,-3.17319 -4.017325,-3.54707 -0.509392,-0.14065 -0.867852,-0.34963 -0.796851,-0.46457 0.205549,-0.33262 -0.391599,-2.20777 -0.956014,-3.00189 -0.283702,-0.39917 -0.453755,-0.82633 -0.377756,-0.9493 0.146211,-0.23657 2.140561,-0.017 4.128431,0.45424 2.262749,0.53636 2.196357,0.60291 2.068608,-2.06912 0.08046,-2.58129 -0.321516,-2.14103 -2.084112,-2.13373 -0.736111,0 -2.166081,0.12825 -3.178101,0.28526 -1.012018,0.15703 -1.958581,0.24612 -2.103231,0.19792 -0.144643,-0.0482 0.745447,-0.742 1.977657,-1.54202 1.232212,-0.80002 2.243376,-1.57376 2.246376,-1.71928 0.0118,-0.51409 -1.197811,-2.38125 -1.542542,-2.38125 -0.519099,0 -1.875446,1.12003 -3.07319601,2.53783 -1.399501,1.65658 -1.84553,1.85283 -1.609207,0.70797 0.630082,-3.05226 0.390636,-8.26395 -0.55035199,-11.97653 -1.18574,-4.67826 -3.614483,-8.25781 -7.250205,-10.68565 -1.428408,-0.95385 -3.8093116,-1.88258 -4.8260596,-1.88258 -0.217821,0 -1.03283,-0.29649 -1.811258,-0.65887 -0.920444,-0.42849 -1.903881,-0.64774 -2.841689,-0.65164 z m 0.244946,1.0728 c 1.83125,0.035 3.646233,1.14391 4.921665,3.14813 0.705245,1.10821 0.757407,1.37377 0.752407,3.83646 -0.005,2.58607 -0.02654,2.67922 -0.959631,4.12171 -1.015989,1.57067 -2.001393,2.21511 -3.835424,2.50837 -1.78939,0.28614 -4.630319,-1.27298 -5.192448,-2.84995 -0.06676,-0.18726 -0.224554,-0.2436 -0.350882,-0.12506 -0.127751,0.11985 -0.01675,0.58664 0.250113,1.05162 0.474811,0.8273 0.473181,0.84111 -0.137459,1.3286 -0.339381,0.27096 -0.914723,0.75017 -1.278993,1.06505 -2.777688,2.40099 -3.821126,3.14292 -5.603274,3.98477 -4.59831,2.17215 -8.477528,1.9805 -12.07575,-0.59686 -0.47928,-0.34329 -0.945295,-0.55022 -1.035595,-0.45992 -0.20089,0.20087 1.150564,1.54127 2.013315,1.99677 l 0.628385,0.33228 -0.628385,0.59376 c -0.345631,0.32664 -1.223703,0.83972 -1.951302,1.1405 -2.32592,0.96161 -3.73906,0.96015 -5.55625,-0.005 -0.926621,-0.49223 -3.286953,-2.55876 -2.935221,-2.56986 0.131699,-0.004 0.01572,-0.2543 -0.25735,-0.55604 -0.35351,-0.3906 -0.523783,-1.05725 -0.591177,-2.31511 -0.09239,-1.72433 -0.06666,-1.8062 1.080037,-3.4432 1.220049,-1.74175 1.494171,-1.96088 3.869531,-3.09438 2.04375,-0.97525 2.757906,-1.05474 4.561994,-0.5085 1.49189,0.45169 1.581906,0.52453 1.435055,1.16117 -0.08616,0.37357 -0.217356,0.94692 -0.291455,1.27434 -0.23695,1.0473 0.37107,0.63645 0.70435,-0.47594 0.878549,-2.93235 7.802959,-7.65771 12.664861,-8.64288 0.945888,-0.19167 2.403549,-0.48664 3.239076,-0.65526 0.835541,-0.16859 1.572528,-0.2532 1.637628,-0.1881 0.0651,0.0651 -0.22875,0.82979 -0.65319,1.69964 -0.73842,1.51336 -1.039775,2.96189 -0.553455,2.66133 0.126719,-0.0783 0.306025,-0.52035 0.398425,-0.98237 0.23368,-1.1684 1.774111,-2.95818 3.272153,-3.80132 0.789889,-0.44455 1.625862,-0.65048 2.458246,-0.63458 z m 6.232178,2.16679 c 0.556845,8e-4 3.3767446,1.71014 4.4870636,2.75332 0.589071,0.55343 1.371669,1.42286 1.739429,1.93219 1.07928,1.49473 2.533552,5.00773 2.992583,7.23005 0.95899,4.64275 0.237794,15.74505 -1.004589,15.46623 -0.182261,-0.0409 -1.149974,0.66397 -2.150774,1.56683 -1.808181,1.63118 -1.815803,1.64333 -1.143082,1.89911 1.482889,0.5638 1.668269,0.50197 1.697569,-0.56637 0.02807,-1.02243 0.769829,-2.15889 1.225249,-1.8774 0.28839,0.17822 0.06472,2.61995 -0.37207,4.06279 -0.341591,1.12838 -1.163548,1.83789 -2.137336,1.84589 -0.865212,0.007 -0.94973,0.51692 -0.198438,1.19682 0.896538,0.81137 0.570688,2.82347 -0.573093,3.53777 -0.448511,0.28009 -0.6179,0.26033 -1.03973,-0.12144 -0.277109,-0.25077 -0.503844,-0.61609 -0.503844,-0.81183 0,-0.62211 -0.390937,-0.38793 -1.284676,0.76894 -0.7338296,0.9499 -0.8425726,1.26825 -0.7007326,2.05052 0.09235,0.50932 0.214717,1.60904 0.271817,2.44378 0.05709,0.83476 0.2314546,1.75623 0.3875746,2.04794 0.39542,0.73885 -0.138578,1.67938 -1.8975596,3.34295 -1.608979,1.5217 -2.979102,2.42636 -4.713922,3.11195 -1.394011,0.55091 -4.91584,0.77708 -6.59443,0.42375 -2.981262,-0.62754 -5.397394,-1.69829 -7.644495,-3.38843 -1.520122,-1.14334 -3.906332,-3.34208 -4.546492,-4.1894 -1.152901,-1.52601 -2.545956,-4.46282 -3.488677,-7.35459 -0.991589,-3.04165 -1.505722,-4.11087 -1.976622,-4.11087 -0.660091,0 -2.879715,-2.31231 -3.615285,-3.76617 -0.389851,-0.77051 -0.708999,-1.79348 -0.708999,-2.27325 v -0.8723 l 1.190625,0.1788 c 1.404228,0.21059 1.530948,-0.0968 0.330729,-0.80201 -1.08095,-0.63508 -1.35001,-0.90283 -2.029851,-2.01797 -0.92746,-1.52133 -0.525042,-3.62417 0.412379,-2.15491 0.162473,0.25466 0.69705,0.68079 1.18804,0.94723 l 0.892453,0.48421 -0.926042,-0.81132 c -0.772012,-0.67675 -0.860028,-0.85593 -0.529166,-1.0759 0.218278,-0.14512 0.616635,-0.26469 0.885216,-0.26769 0.268571,-0.002 0.841243,-0.25532 1.272273,-0.56224 0.431022,-0.30691 0.840623,-0.50141 0.910024,-0.43201 0.06943,0.0694 0.0059,0.64804 -0.141079,1.28571 -0.341159,1.47979 -0.354224,2.69138 -0.02635,2.48874 0.13988,-0.0864 0.33043,-0.5621 0.42323,-1.05679 0.17381,-0.92649 0.74318,-1.62143 1.43919,-1.757 0.65409,-0.1274 3.072813,0.28028 4.287592,0.72296 2.006441,0.73115 2.513536,0.84089 2.869075,0.62115 0.508831,-0.31448 -0.561642,-1.76495 -2.091862,-2.83446 -1.301959,-0.90992 -0.98951,-1.16408 0.511082,-0.41547 2.119795,1.05749 5.502696,0.51334 8.156607,-1.31259 1.479931,-1.01822 5.317506,-4.75458 5.317506,-5.17694 0,-0.42284 1.11388,-0.38569 1.719792,0.0574 0.469929,0.34364 0.446881,0.38972 -0.41238,0.81856 -1.341498,0.66953 -2.552954,2.17211 -3.131074,3.884 -0.403331,1.19435 -0.444622,1.60148 -0.196371,1.94096 0.462711,0.63281 1.053084,0.28195 2.297533,-1.36632 1.168231,-1.54731 3.131654,-2.723 4.556313,-2.728 0.905158,-0.003 2.734075,1.09271 3.678843,2.20452 0.388983,0.45776 0.784834,0.7546 0.879534,0.6599 0.29809,-0.29808 -0.560391,-1.62555 -1.968871,-3.04477 l -1.358058,-1.36788 0.763778,-0.45113 c 1.120222,-0.66172 2.538499,-2.95735 2.5523,-4.13101 0.0062,-0.5327 0.06536,-0.9156 0.131257,-0.8506 0.06589,0.065 0.25423,-0.33739 0.418579,-0.894 0.382122,-1.29418 0.04268,-4.89944 -0.57309,-6.08594 -0.245862,-0.4738 -0.374372,-0.93407 -0.285771,-1.02267 0.01582,-0.0158 0.04246,-0.0233 0.07958,-0.0233 z m -1.998845,3.75946 -0.389638,1.32292 c -0.214342,0.7276 -0.395526,1.37627 -0.401527,1.44177 -0.0064,0.0655 0.101193,0.006 0.239263,-0.13229 0.138062,-0.13824 0.318826,-0.78692 0.401524,-1.44177 z m 0.634072,1.38545 c -0.118314,0.0318 -0.414976,0.63556 -0.773081,1.65054 -0.20669,0.58584 -0.33537,1.06506 -0.285771,1.06506 0.24698,0 0.896114,-1.30676 1.053684,-2.1208 0.08274,-0.42747 0.07615,-0.61389 0.0052,-0.5948 z m 3.0225516,4.18941 c -0.05178,-0.045 -0.4813036,0.69519 -0.9544626,1.64486 -0.621491,1.24737 -0.721905,1.60131 -0.361733,1.27537 0.472128,-0.42727 1.5171576,-2.74581 1.3161956,-2.92023 z m 0.88987,0.90744 c -0.104571,1.5e-4 -0.51495,0.57912 -0.91209,1.28622 -0.3971386,0.70713 -0.9031576,1.43584 -1.1244786,1.61954 -0.221319,0.18367 -0.402558,0.43951 -0.402558,0.56844 0,0.4191 1.017143,-0.38806 1.3616726,-1.08055 0.18443,-0.37068 0.471111,-0.85246 0.637169,-1.07074 0.412502,-0.54224 0.672433,-1.32291 0.440285,-1.32291 z m 1.280541,0 c -0.154109,0 -0.280085,0.11906 -0.280085,0.26458 0,0.14553 0.05259,0.26458 0.116787,0.26458 0.06417,0 0.190188,-0.11905 0.280088,-0.26458 0.08993,-0.14552 0.03732,-0.26458 -0.11679,-0.26458 z m 1.296562,0.39325 c -0.06749,-0.002 -0.614079,1.02061 -1.271241,2.38487 -0.700958,1.4552 -1.472827,2.80942 -1.715656,3.00912 -0.242829,0.19974 -0.441833,0.52715 -0.441833,0.7276 0,0.91038 1.313349,-0.17775 2.117698,-1.75441 0.49199,-0.96438 1.327267,-3.7216 1.318266,-4.35322 -1.3e-4,-0.009 -0.0027,-0.0138 -0.0072,-0.014 z m -19.8484006,0.13591 c -0.15407,0 -0.206687,0.11907 -0.116787,0.26459 0.08994,0.14552 0.215884,0.26458 0.280085,0.26458 0.06417,0 0.11679,-0.11906 0.11679,-0.26458 0,-0.14552 -0.125976,-0.26459 -0.280088,-0.26459 z m 17.9864986,0.26459 c -0.143129,0 -0.336981,0.20836 -0.430983,0.46302 -0.09395,0.25466 -0.245311,0.52251 -0.336412,0.59531 -0.25863,0.20667 -1.3285996,2.02275 -1.3285996,2.25516 0,0.11451 0.224526,0.005 0.4986756,-0.24288 0.643671,-0.58251 1.93797,-3.07061 1.597319,-3.07061 z m -19.9517526,0.1943 c -0.08581,0.003 -0.135908,0.026 -0.135908,0.0713 0,0.12076 0.327422,0.33909 0.727604,0.48524 0.40018,0.14616 0.757349,0.27541 0.79375,0.28681 0.0363,0.0115 0.06615,-0.0724 0.06615,-0.18604 0,-0.11361 -0.357182,-0.34112 -0.79375,-0.50591 -0.272852,-0.103 -0.514827,-0.15584 -0.657842,-0.15141 z m -1.601454,0.62528 c -0.101266,-0.006 -0.09821,0.0627 -0.0057,0.21239 0.111529,0.18045 0.458483,0.43098 0.771011,0.55708 0.752851,0.30377 0.964801,0.31052 0.964801,0.0294 0,-0.12853 -0.208362,-0.2937 -0.463021,-0.3669 -0.254672,-0.0732 -0.69092,-0.22654 -0.969452,-0.34055 -0.13866,-0.0567 -0.236895,-0.0877 -0.297656,-0.0915 z m -2.678906,0.95705 c -0.0571,-0.002 -0.08888,0.0105 -0.08888,0.0382 0,0.11081 0.506019,0.46062 1.12448,0.77722 1.24964,0.63976 1.675907,0.7104 1.918229,0.31832 0.08994,-0.14552 -0.05198,-0.26726 -0.315227,-0.27026 -0.26324,-0.003 -0.984544,-0.23551 -1.603002,-0.51625 -0.463847,-0.21057 -0.864288,-0.34176 -1.035598,-0.34727 z m -0.699699,0.6134 c -0.17331,0.005 -0.04733,0.23224 0.280088,0.5054 0.896909,0.74821 0.729528,0.81239 -0.729673,0.27905 -1.56246,-0.57111 -1.485307,-0.16378 0.0987,0.52141 0.884621,0.38267 1.170006,0.41012 1.490866,0.14315 0.218279,-0.18161 0.575469,-0.39423 0.79375,-0.47233 0.24687,-0.0884 0.07014,-0.21435 -0.468191,-0.33331 -0.475964,-0.10514 -0.929904,-0.29494 -1.008205,-0.42168 -0.07832,-0.12669 -0.284028,-0.22669 -0.457338,-0.22169 z m -4.474143,0.51056 c -0.05416,0.001 -0.0711,0.024 -0.04341,0.0703 0.228431,0.38163 1.075293,1.042 1.680001,1.31 0.223171,0.099 0.762852,0.17777 1.199412,0.17777 0.436579,-0.001 0.615154,-0.0668 0.396875,-0.14521 -0.218281,-0.0784 -1.090081,-0.48852 -1.93735,-0.91106 -0.635461,-0.3171 -1.133063,-0.50544 -1.295527,-0.50178 z m 31.9944266,0.38448 c -0.115877,-0.002 -0.534377,0.5294 -0.970482,1.23816 -0.465182,0.75599 -1.387043,1.89273 -2.048454,2.52647 -0.753581,0.72207 -1.046176,1.15238 -0.783415,1.15238 0.489881,0 1.63123,-1.14014 2.184879,-2.18281 0.212489,-0.40018 0.475255,-0.72761 0.583943,-0.72761 0.27224,0 1.230979,-1.82103 1.05265,-1.99936 -0.0049,-0.005 -0.0114,-0.007 -0.01913,-0.007 z m -32.6874076,0.45061 c -0.06626,0.006 0.04474,0.10432 0.338479,0.34365 0.57935,0.47205 1.206129,0.55215 1.206129,0.154 0,-0.14552 -0.168791,-0.26458 -0.375171,-0.26458 -0.20638,0 -0.593336,-0.0694 -0.859896,-0.154 -0.166325,-0.0528 -0.269788,-0.0826 -0.309541,-0.0791 z m 32.1163836,2.44947 c -0.363548,0.0602 -1.991381,1.83462 -1.994194,2.21537 -0.0013,0.1819 0.04914,0.33073 0.112138,0.33073 0.236191,0 2.07122,-2.40037 1.937351,-2.53422 -0.01214,-0.0121 -0.03106,-0.0159 -0.05529,-0.0119 z m 2.148189,0.14986 c -0.168817,-0.009 -0.680448,0.52312 -1.380276,1.60249 -1.499391,2.31257 -2.638237,3.62863 -3.330548,3.84834 -0.270719,0.0859 -0.492475,0.26685 -0.492475,0.40256 0,0.1357 0.260663,0.24701 0.579292,0.24701 0.530231,0 3.124875,-2.44703 3.124875,-2.9471 0,-0.10599 0.37012,-0.78796 0.822172,-1.51516 0.671859,-1.08079 0.84578,-1.62952 0.67696,-1.63814 z m -34.9771906,0.13488 c 0.282982,0.003 0.669726,0.21463 0.669726,0.4377 0,0.12994 -0.238127,0.23616 -0.529166,0.23616 -0.515721,0 -0.689528,-0.28045 -0.371039,-0.59893 0.05299,-0.053 0.136149,-0.0758 0.230479,-0.0749 z m 24.671361,0.1328 c -0.631759,0.0219 -1.247468,0.14006 -1.247468,0.33332 0,0.1143 -0.386956,0.21042 -0.859896,0.21342 -1.42993,0.01 -2.967395,0.8843 -3.875733,2.20452 -0.862801,1.25404 -1.419022,3.34984 -1.221632,4.60333 0.06296,0.39984 0.185103,1.17676 0.271301,1.72651 0.24588,1.568 0.62474,0.89551 0.468188,-0.83095 -0.19708,-2.1735 0.436063,-3.94387 1.952853,-5.46065 1.48894,-1.48894 2.645042,-1.61192 3.992523,-0.42375 1.033669,0.91143 1.055515,1.13039 0.198437,1.98748 -1.187532,1.18753 -0.707302,4.37982 0.778246,5.17487 0.6145,0.32885 0.799017,0.30383 1.805059,-0.24753 2.1117576,-1.15737 2.6504676,-2.03465 1.669666,-2.72024 -0.193852,-0.13552 -0.170201,-0.27186 0.07493,-0.42995 0.262189,-0.16909 0.276487,-0.28267 0.05323,-0.42065 -0.228809,-0.14142 -0.223274,-0.28786 0.02119,-0.58239 0.260189,-0.31356 0.255823,-0.43704 -0.02119,-0.60823 -0.191201,-0.11816 -0.265882,-0.34721 -0.16588,-0.50902 0.104917,-0.16978 -2.15e-4,-0.29404 -0.248566,-0.29404 -0.308459,0 -0.383246,-0.14853 -0.264065,-0.52399 0.09144,-0.28811 0.04352,-0.7346 -0.106455,-0.99219 -0.149968,-0.25758 -0.280836,-0.34912 -0.290938,-0.20361 -0.01013,0.14552 -0.186664,-0.12237 -0.392224,-0.59531 -0.20556,-0.47295 -0.548013,-0.85989 -0.761193,-0.85989 -0.21318,0 -0.432191,-0.13394 -0.486793,-0.29766 -0.06368,-0.19105 -0.711828,-0.26529 -1.343586,-0.2434 z m 18.4717386,3.20394 c 0.22683,-0.0328 0.389126,0.068 0.389126,0.31626 0,0.43018 -0.824132,0.94049 -1.272792,0.78807 -0.26712,-0.0908 -0.24267,-0.23325 0.106971,-0.6196 0.258469,-0.2856 0.549865,-0.45194 0.776695,-0.48473 z m -8.496122,1.69034 c -0.02043,-0.004 -0.0463,-0.004 -0.07751,5.3e-4 -0.04162,0.006 -0.09255,0.0208 -0.151413,0.0434 -0.22584,0.0867 -0.410826,0.20428 -0.410826,0.26148 0,0.21429 0.504526,0.0938 0.659908,-0.15761 0.05214,-0.0844 0.04117,-0.13536 -0.020159,-0.1478 z m -30.8730486,0.4129 c -0.826064,-0.009 -1.725853,0.2058 -2.428277,0.63097 -0.574188,0.34756 -1.184751,0.57769 -1.357022,0.5116 -0.17227,-0.0661 -0.553341,0.18494 -0.84646,0.55758 -0.293129,0.37264 -0.672589,0.67748 -0.843359,0.67748 -0.190122,0 -0.245446,0.20521 -0.142626,0.52917 0.111918,0.35266 0.0478,0.52916 -0.192755,0.52916 -0.394761,0 -0.478634,1.72353 -0.112654,2.31511 0.112501,0.1819 0.129858,0.45104 0.03876,0.59841 -0.09108,0.14737 0.01206,0.62362 0.228928,1.05833 0.21689,0.43473 0.284232,0.79065 0.14986,0.79065 -0.519358,0 -0.233135,1.24746 0.350885,1.52911 1.012839,0.48848 1.964913,0.39737 3.564123,-0.34055 0.0322,-0.0149 -0.197453,-0.54484 -0.510564,-1.1777 -0.84904,-1.71603 -0.924004,-3.59033 -0.205155,-5.11959 0.61999,-1.31898 1.628508,-2.30448 2.346627,-2.29288 0.235029,0.004 0.901644,0.22016 1.481563,0.48059 l 1.054716,0.47336 0.0041,2.40967 c 0.0033,2.0302 0.09143,2.52711 0.559657,3.15743 0.305639,0.41142 0.809776,0.78579 1.120344,0.83199 0.675582,0.10051 1.806427,-0.6057 1.385964,-0.86558 -0.156212,-0.0965 -0.284221,-0.55993 -0.284221,-1.02991 0,-0.46995 -0.238127,-1.32154 -0.529166,-1.89239 -0.291042,-0.57088 -0.529167,-1.16752 -0.529167,-1.3255 0,-0.32148 -1.633648,-1.93363 -2.638599,-2.60398 -0.425215,-0.28365 -1.023038,-0.42562 -1.665531,-0.43253 z m 30.2090076,0.28164 c -0.03374,-0.004 -0.122309,0.0389 -0.265099,0.12712 -0.591881,0.36581 -2.091862,1.84045 -2.091862,2.05672 0,0.12327 0.535784,-0.28644 1.190625,-0.91054 0.877993,-0.83675 1.267566,-1.26196 1.166336,-1.2733 z m -23.1732606,0.031 c -0.655291,-0.0292 -0.314563,0.55122 0.643371,0.79944 0.845069,0.219 1.916679,1.31632 1.916679,1.96267 0,0.19865 0.119063,0.36121 0.264583,0.36121 1.05536,0 -1.179449,-2.76475 -2.482019,-3.07061 -0.135371,-0.0318 -0.249007,-0.0485 -0.342614,-0.0527 z m 24.1489116,0.27647 c -0.04221,0.006 -0.107304,0.0347 -0.197403,0.0894 -0.196421,0.11927 -0.872088,0.69932 -1.501719,1.28881 -0.62964,0.58952 -1.254702,1.11164 -1.389063,1.16014 -0.13435,0.0485 -0.244427,0.19735 -0.244427,0.33073 0,0.49665 0.575185,0.21092 1.743046,-0.86559 1.068575,-0.98495 1.885029,-2.04664 1.589566,-2.00349 z m -23.7551376,0.99477 c -0.168831,0 -0.05609,0.26789 0.250629,0.59531 0.306711,0.32743 0.698707,0.9525 0.871265,1.38907 0.18229,0.46124 0.366901,0.64939 0.440801,0.44958 0.155729,-0.42106 -1.136586,-2.43396 -1.562695,-2.43396 z m 35.6758576,1.08056 c 0.353187,0.0241 0.357084,0.25346 0.357084,1.15135 0,0.66408 -0.114882,1.20767 -0.255283,1.20767 -0.341429,0 -0.83126,-0.94175 -0.606682,-1.16633 0.09767,-0.0977 -0.09001,-0.24782 -0.417028,-0.33331 -0.835588,-0.21853 -0.563533,-0.73341 0.439767,-0.83251 0.208129,-0.0206 0.364413,-0.0349 0.482142,-0.0269 z m -12.46229,0.34003 c -0.323366,0.0756 -1.997292,1.60136 -1.997292,1.84846 0,0.31959 0.892691,-0.27116 1.540991,-1.02009 0.338183,-0.39068 0.563878,-0.76162 0.501777,-0.82372 -0.0087,-0.009 -0.02392,-0.01 -0.04548,-0.005 z m -20.2318376,2.1487 c -0.04744,0.005 -0.09943,0.0183 -0.153996,0.0393 -0.218291,0.0838 -0.396875,0.19911 -0.396875,0.25631 0,0.0572 0.178584,0.10387 0.396875,0.10387 0.218279,0 0.396875,-0.11537 0.396875,-0.25631 0,-0.10575 -0.100565,-0.15873 -0.242879,-0.14315 z m 24.08018359,0.39946 c 0.992208,0 1.261808,0.14785 2.39881801,1.31517 1.205391,1.23748 1.280544,1.39772 1.280544,2.71921 0,0.85974 -0.164238,1.63868 -0.423749,2.00918 -0.68807,0.98237 -0.119901,1.04687 0.691949,0.0786 0.833779,-0.99443 0.832839,-0.99458 2.684589,0.58859 1.715731,1.46688 2.385902,2.91314 2.385902,5.15008 0,1.74059 -0.531837,4.10041 -1.180807,5.23947 -1.170149,2.05385 -3.976004,4.18436 -6.71638701,5.09995 -1.63112899,0.54498 -3.54820199,0.65187 -4.91029299,0.27388 -1.28913,-0.35771 -3.077623,-1.6719 -3.367754,-2.47478 -0.360543,-0.99775 -0.2403,-1.08136 0.78755,-0.54984 0.599499,0.30992 1.268315,0.40267 2.284614,0.31678 1.58636,-0.13407 2.246204,-0.45166 0.938445,-0.45166 -2.179611,0 -4.63084,-1.46618 -4.960421,-2.96674 -0.222131,-1.01132 -0.107191,-1.08702 0.889868,-0.58963 0.45702,0.22799 1.297082,0.42092 1.866553,0.42892 1.124709,0.0155 3.63275,-0.72116 3.89382,-1.1436 0.280548,-0.45394 -0.156993,-0.61777 -0.716754,-0.2682 -0.82777,0.51694 -2.945458,0.67527 -4.098456,0.30644 -1.232612,-0.39431 -2.380494,-1.40449 -2.602942,-2.29082 -0.24103,-0.96033 0.08974,-1.24146 0.658357,-0.55965 0.374399,0.44891 0.503047,0.49702 0.510046,0.19068 0.0048,-0.22555 -0.126098,-0.54468 -0.290939,-0.70952 -0.164878,-0.16484 -0.22094,-0.50537 -0.124539,-0.75654 0.15572,-0.40579 0.257045,-0.37807 0.909505,0.24701 0.91444,0.87601 1.121873,0.87537 2.168342,-0.005 0.81638,-0.68692 0.838473,-0.76096 0.731221,-2.44533 -0.09178,-1.44148 -0.02492,-1.82736 0.392227,-2.26808 0.90896,-0.96033 1.490985,-2.4259 1.674315,-4.21525 0.205271,-2.00359 0.468254,-2.26911 2.24637599,-2.26911 z m -22.37951359,0.078 c -0.155223,-0.01 -0.612241,0.16188 -1.101741,0.42013 -0.55944,0.29515 -0.862473,0.54229 -0.673343,0.54829 0.458499,0.0156 1.989791,-0.78525 1.822111,-0.95291 -0.0091,-0.009 -0.02484,-0.0141 -0.04703,-0.0155 z m -2.929019,0.21549 c -0.143259,-0.002 -0.477158,0.12049 -0.910022,0.36794 v -5.3e-4 c -0.423981,0.24236 -0.51345,0.38157 -0.249081,0.38757 0.226851,0.005 0.643572,-0.16565 0.926042,-0.3793 0.328863,-0.24853 0.376319,-0.37396 0.233061,-0.37569 z m 0.522448,0.85318 c -0.30554,-0.11036 -4.872053,1.90311 -4.872053,2.14819 0,0.25247 0.421976,0.15772 1.345136,-0.30282 0.493401,-0.24614 1.315554,-0.439 1.826763,-0.4284 0.595649,0.0123 0.756894,-0.0442 0.449585,-0.1571 -0.394411,-0.14494 -0.300463,-0.26323 0.529167,-0.66611 0.554789,-0.26943 0.879623,-0.53666 0.721402,-0.59376 z m -2.380218,0.0315 c -0.02043,-0.004 -0.0463,-0.004 -0.07751,5.3e-4 -0.04162,0.006 -0.09255,0.0208 -0.151413,0.0434 -0.225841,0.0867 -0.410827,0.20429 -0.410827,0.26149 0,0.21428 0.504526,0.0938 0.659908,-0.15762 0.05214,-0.0844 0.04117,-0.13536 -0.02016,-0.14779 z m -2.899563,2.29289 c -0.05922,-0.007 -0.235085,0.0299 -0.518314,0.0925 -0.43657,0.0965 -0.967726,0.3463 -1.180806,0.555 -0.549291,0.53801 -0.170119,0.47007 0.983401,-0.1757 0.589499,-0.33002 0.814414,-0.46077 0.715719,-0.4718 z m 31.8574856,0.49764 c -0.14850001,0 -0.18694901,0.24422 -0.08785,0.55656 0.09714,0.30605 0.213265,1.05018 0.257865,1.65364 0.0446,0.60343 0.09234,1.14656 0.105937,1.20716 0.01355,0.0606 0.107286,0.0276 0.208256,-0.0734 0.20038,-0.20037 0.147452,-2.13862 -0.07855,-2.88096 -0.07753,-0.25466 -0.260139,-0.46302 -0.40566,-0.46302 z m -1.88722201,1.5875 c -0.1396,0 -0.16042499,0.20489 -0.04703,0.46302 0.111882,0.25466 0.256511,0.90878 0.32091,1.45366 0.125741,1.06355 0.590664,1.11448 0.590664,0.0646 0,-0.7789 -0.524658,-1.98127 -0.864547,-1.98127 z m 1.339453,0.11214 c -0.122452,-0.0143 -0.210323,0.1978 -0.210323,0.53382 0,0.37237 0.119063,0.67696 0.264584,0.67696 0.145518,0 0.264583,-0.2312 0.264583,-0.51367 0,-0.28244 -0.119065,-0.58706 -0.264583,-0.67696 -0.01876,-0.0116 -0.03677,-0.0181 -0.05426,-0.0202 z m -22.25187059,0.0636 c -0.152246,0.007 -0.362794,0.0447 -0.646472,0.11059 -0.545701,0.1267 -1.795867,0.23368 -2.778125,0.23668 -1.544791,0.005 -1.785938,0.071 -1.785938,0.48524 0,0.26342 0.371441,0.85874 0.825273,1.32291 0.453818,0.4642 1.095986,0.84388 1.426787,0.84388 0.662873,0 3.30419,-2.21839 3.30419,-2.77502 0,-0.16416 -0.09197,-0.23615 -0.345715,-0.22428 z m 10.812259,0.0889 c -0.06417,0 -0.190185,0.11907 -0.280085,0.26459 -0.08994,0.14552 -0.03731,0.26458 0.116787,0.26458 0.154111,0 0.280088,-0.11906 0.280088,-0.26458 0,-0.14552 -0.05259,-0.26459 -0.11679,-0.26459 z m -0.871781,0.55191 c -0.185354,-0.004 -0.595754,0.1172 -1.163754,0.3638 -0.833369,0.36177 -0.847183,0.38688 -0.213424,0.39688 0.37237,0.006 0.908156,-0.16463 1.190625,-0.37828 0.332031,-0.25114 0.371904,-0.37884 0.186553,-0.3824 z m -11.783261,0.6227 c 0.303969,-0.0109 0.524581,-5.3e-4 0.572574,0.0424 0.05699,0.0508 -0.181126,0.32979 -0.529167,0.6196 -0.348038,0.28986 -0.81163,0.5228 -1.029909,0.5178 -0.522822,-0.012 -1.5875,-0.53148 -1.5875,-0.77463 0,-0.145 1.662097,-0.37256 2.574002,-0.40514 z m 11.427208,0.44545 c -0.09191,-0.004 -0.196987,0.013 -0.292486,0.0512 -0.211061,0.0845 -0.148029,0.14698 0.160195,0.15968 0.27886,0.0115 0.435168,-0.0506 0.347265,-0.13849 -0.04395,-0.0439 -0.123057,-0.0686 -0.214974,-0.0724 z m 0,0.79375 c -0.09191,-0.004 -0.196987,0.013 -0.292486,0.0512 -0.211061,0.0845 -0.148029,0.14698 0.160195,0.15968 0.27886,0.0115 0.435168,-0.0506 0.347265,-0.13849 -0.04395,-0.0439 -0.123057,-0.0686 -0.214974,-0.0724 z m 0.79375,0.52917 c -0.09191,-0.004 -0.196987,0.013 -0.292486,0.0512 -0.211061,0.0845 -0.148029,0.14698 0.160195,0.15968 0.278961,0.0115 0.435168,-0.0506 0.347265,-0.1385 -0.04395,-0.0439 -0.123057,-0.0685 -0.214974,-0.0723 z m -6.30039,0.6289 c -3.041684,0 -3.068095,0.009 -4.624007,1.54306 -0.426029,0.42009 -0.74817,0.46306 -2.3027,0.30696 l -1.807641,-0.18139 -1.599904,1.1219 c -1.646229,1.15477 -1.94338,1.56876 -1.13688,1.58336 0.66094,0.0119 1.881457,1.16285 2.304767,2.173 0.511791,1.22132 1.411592,2.17516 2.788462,2.95692 0.654838,0.37182 1.462214,0.67655 1.794206,0.67955 0.732919,0.004 1.037502,-0.64546 0.567923,-1.2113 -0.283311,-0.34128 -0.277236,-0.4554 0.03617,-0.6537 0.77188,-0.48843 1.414936,-0.12473 1.431439,0.80976 0.02341,1.32948 2.54151,-0.23685 3.40289,-2.11666 0.501582,-1.09461 1.234036,-3.84602 1.234036,-4.63538 0,-0.30541 0.174955,-0.78617 0.388606,-1.06867 0.87965,-1.163 0.606121,-1.30741 -2.47737,-1.30741 z m 21.6679296,1.19062 c -0.145521,0 -0.25618,0.44649 -0.24598,0.99219 0.01492,0.79592 0.06357,0.88752 0.24598,0.46302 0.31595,-0.73525 0.31595,-1.45521 0,-1.45521 z m -2.817916,0.0677 c -0.09733,0.0257 -0.09507,0.25015 -0.0016,0.71779 0.0955,0.47739 0.173633,1.03312 0.173633,1.23455 0,0.26768 0.24852,0.20537 0.92294,-0.23151 0.507519,-0.32878 0.924042,-0.81636 0.926042,-1.08314 0.0043,-0.63238 -0.584314,-0.43779 -0.919324,0.30386 -0.346242,0.76657 -0.665075,0.73406 -0.665075,-0.0677 0,-0.35521 -0.137694,-0.73111 -0.305924,-0.83509 -0.05493,-0.034 -0.0983,-0.0473 -0.130742,-0.0388 z m -18.0195716,0.27027 c 0.06045,-0.003 0.09704,-1.2e-4 0.107487,0.0103 0.08363,0.0836 0.0053,0.76441 -0.174151,1.51257 -0.41002,1.70916 -1.604381,2.96614 -3.203422,3.37137 -2.450729,0.62111 -3.250033,0.57703 -4.864301,-0.26768 -0.722892,-0.37828 -2.155205,-1.98405 -1.941483,-2.17661 0.04919,-0.0443 0.625173,-0.20019 1.280025,-0.34675 0.654838,-0.14658 2.892073,-0.71173 4.971272,-1.25574 1.819309,-0.47601 3.401425,-0.82397 3.824573,-0.84749 z m -25.304916,3.37085 c 0.162137,-0.012 0.421045,0.13569 0.648539,0.4098 0.733239,0.8835 1.879237,1.24379 3.435966,1.08107 l 1.499135,-0.15658 1.50895,1.91047 c 0.830011,1.05056 2.055482,2.32668 2.722832,2.83601 0.667351,0.50932 1.43102,1.13138 1.69757,1.38234 0.266551,0.25096 0.785391,0.53154 1.152903,0.62374 0.367498,0.0922 0.668176,0.26124 0.668176,0.37517 0,0.11396 0.476253,0.39756 1.058333,0.63045 0.582078,0.23291 1.058334,0.53138 1.058334,0.66301 0,0.47297 -1.991646,1.97484 -3.645257,2.74867 v -0.002 c -1.383369,0.64733 -2.099009,0.80433 -3.98167,0.87333 -2.356358,0.0864 -3.732861,-0.0944 -4.69532,-0.61701 -0.74309,-0.40349 -1.875279,-2.12063 -2.093928,-3.17552 -0.17476,-0.84314 -0.163756,-0.85579 0.521414,-0.59531 0.898811,0.34315 1.988511,0.34413 1.988511,0.003 0,-0.14552 -0.386956,-0.26571 -0.859896,-0.26872 -0.472951,-0.002 -1.038492,-0.11938 -1.256771,-0.26045 -0.29065,-0.18783 -0.09589,-0.25744 0.727604,-0.26044 1.176618,-0.004 1.579888,-0.38013 0.503328,-0.46923 -0.34181,-0.0283 -1.085239,-0.20356 -1.65158,-0.38912 -1.969338,-0.64518 -3.275488,-3.92052 -2.587437,-6.48798 0.22116,-0.82527 0.466858,-0.75528 1.707388,0.48525 1.27295,1.27293 1.691971,1.23208 0.520383,-0.0507 -0.443852,-0.48596 -0.807186,-0.97571 -0.807186,-1.08882 0,-0.12922 0.0624,-0.19384 0.159679,-0.20102 z m 4.59817,4.74648 c -0.04377,0.003 -0.107106,0.07 -0.193786,0.18862 -0.698712,0.95641 -0.354068,3.21251 0.670242,4.38681 0.222131,0.25466 0.558461,0.46302 0.747242,0.46302 0.203419,0 0.07619,-0.28791 -0.312127,-0.70693 -0.808079,-0.87188 -0.985184,-1.53911 -0.866613,-3.25717 0.05325,-0.77153 0.05133,-1.08019 -0.04496,-1.07435 z m 0.888317,1.96009 c -0.04057,-0.0234 -0.04948,0.15519 -0.06253,0.51573 -0.01487,0.40976 0.09781,0.97898 0.250632,1.26452 0.152829,0.28552 0.403828,0.44123 0.557588,0.34623 0.16323,-0.10089 0.178033,-0.24136 0.03617,-0.33796 -0.13363,-0.0909 -0.372099,-0.58208 -0.530201,-1.09141 -0.139129,-0.44815 -0.211093,-0.67375 -0.251664,-0.69711 z m 4.249354,1.30018 c -0.08167,5.3e-4 -0.05248,0.17931 0.05374,0.60254 0.23771,0.94701 0.239041,1.11759 0.01291,2.10634 -0.170029,0.74345 -0.157628,0.75936 0.220141,0.27543 0.526039,-0.67386 0.518647,-2.36683 -0.01241,-2.80758 -0.136535,-0.11332 -0.225401,-0.17713 -0.274402,-0.17673 z m 1.698088,1.26917 c -0.244896,-0.0103 -0.465778,0.23201 -0.561724,0.70745 -0.08076,0.40018 -0.227579,0.93597 -0.326078,1.19063 -0.26353,0.68119 0.276802,0.56457 0.612881,-0.1323 0.276432,-0.57305 0.288277,-0.56565 0.313677,0.19844 0.02506,0.75605 0.04496,0.76928 0.414962,0.28009 0.45875,-0.60653 0.487696,-1.05499 0.114205,-1.75287 -0.172625,-0.32255 -0.377452,-0.48338 -0.567923,-0.49144 z"
       style="fill:#000000;stroke-width:0.264583"
       id="path388" />
  </g>
</svg>
