<?xml version="1.0" encoding="UTF-8" standalone="no"?>
<!-- Created with Inkscape (http://www.inkscape.org/) -->

<svg
   xmlns:dc="http://purl.org/dc/elements/1.1/"
   xmlns:cc="http://creativecommons.org/ns#"
   xmlns:rdf="http://www.w3.org/1999/02/22-rdf-syntax-ns#"
   xmlns:svg="http://www.w3.org/2000/svg"
   xmlns="http://www.w3.org/2000/svg"
   xmlns:sodipodi="http://sodipodi.sourceforge.net/DTD/sodipodi-0.dtd"
   xmlns:inkscape="http://www.inkscape.org/namespaces/inkscape"
   width="243.92413mm"
   height="165.94594mm"
   viewBox="0 0 864.29811 587.99741"
   id="svg32582"
   version="1.1"
   inkscape:version="0.92.3 (2405546, 2018-03-11)"
   sodipodi:docname="medicalsyringeinhand-noborder.svg">
  <defs
     id="defs32584" />
  <sodipodi:namedview
     id="base"
     pagecolor="#ffffff"
     bordercolor="#666666"
     borderopacity="1.0"
     inkscape:pageopacity="0.0"
     inkscape:pageshadow="2"
     inkscape:zoom="0.98994949"
     inkscape:cx="220.40953"
     inkscape:cy="312.60706"
     inkscape:document-units="px"
     inkscape:current-layer="layer1"
     showgrid="false"
     fit-margin-top="0"
     fit-margin-left="0"
     fit-margin-right="0"
     fit-margin-bottom="0"
     inkscape:window-width="1920"
     inkscape:window-height="1017"
     inkscape:window-x="3832"
     inkscape:window-y="-8"
     inkscape:window-maximized="1"
     showguides="true"
     inkscape:guide-bbox="true" />
  <metadata
     id="metadata32587">
    <rdf:RDF>
      <cc:Work
         rdf:about="">
        <dc:format>image/svg+xml</dc:format>
        <dc:type
           rdf:resource="http://purl.org/dc/dcmitype/StillImage" />
        <dc:title></dc:title>
        <dc:creator>
          <cc:Agent>
            <dc:title>j4p4n</dc:title>
          </cc:Agent>
        </dc:creator>
        <cc:license
           rdf:resource="http://creativecommons.org/publicdomain/zero/1.0/" />
      </cc:Work>
      <cc:License
         rdf:about="http://creativecommons.org/publicdomain/zero/1.0/">
        <cc:permits
           rdf:resource="http://creativecommons.org/ns#Reproduction" />
        <cc:permits
           rdf:resource="http://creativecommons.org/ns#Distribution" />
        <cc:permits
           rdf:resource="http://creativecommons.org/ns#DerivativeWorks" />
      </cc:License>
    </rdf:RDF>
  </metadata>
  <g
     inkscape:label="Layer 1"
     inkscape:groupmode="layer"
     id="layer1"
     transform="translate(309.92206,137.47821)">
    <path
       style="fill:#000000;stroke-width:1.0666666"
       d="m 426.70117,83.636719 c -11.18626,0 -28.56453,12.999594 -28.75781,21.511721 -0.0422,1.85779 -0.73492,4.0357 -1.53906,4.83984 -6.24982,6.24981 -10.38152,45.85872 -5.3125,50.92774 1.37954,1.37954 2.50781,4.65964 2.50781,7.28906 0,2.62942 0.87426,5.32168 1.94336,5.98242 1.0691,0.66076 1.79057,5.2383 1.60156,10.17383 l -0.34375,8.97461 -14.93359,6.26953 c -8.21334,3.44843 -19.99932,8.52734 -26.19141,11.28515 -13.52928,6.02584 -18.97304,6.32171 -20.62305,1.12305 -0.67914,-2.13984 -3.16678,-5.96429 -5.52734,-8.49805 -3.02647,-3.24846 -3.89363,-6.18845 -2.94336,-9.9746 1.55774,-6.20653 3.10256,-6.49623 12.29492,-2.30274 21.9843,10.0291 36.81402,13.22738 31.47071,6.78906 -1.34332,-1.61858 -5.35887,-3.52568 -8.92188,-4.23828 -11.26067,-2.25214 -33.95898,-14.65916 -33.95898,-18.5625 0,-1.97497 -2.39909,-9.01315 -5.33008,-15.64062 -6.56154,-14.83682 -11.94587,-17.57599 -28.19922,-14.33789 -18.09114,3.60424 -38.78573,14.86998 -53.96875,29.3789 -8.93193,8.53436 -9.25444,9.2972 -8.94727,20.97266 0.35772,13.5959 6.61983,28.44767 13.95508,33.09375 2.54262,1.61045 7.85785,3.47244 11.81055,4.13672 6.70349,1.12659 5.48472,1.91125 -18.13281,11.68164 -13.92605,5.76109 -31.0811,13.02795 -38.1211,16.14844 -7.04,3.12049 -23.02872,9.84548 -35.53125,14.94336 -15.7088,6.40522 -22.39452,10.14667 -21.64062,12.11132 0.69736,1.81731 -2.64784,4.5884 -9.26953,7.68164 -15.50353,7.24227 -16.28279,7.89191 -13.50391,11.24024 1.89188,2.27959 0.68034,3.74815 -5.76367,6.98828 -4.48702,2.25614 -11.7567,5.2665 -16.156251,6.68945 -6.653952,2.15211 -7.811268,3.36532 -6.876953,7.22071 0.984384,4.06195 -0.386081,5.11165 -11.09375,8.49023 -6.719787,2.12028 -21.223451,8.12093 -32.230469,13.33399 -11.00704,5.21296 -20.654728,9.48188 -21.439453,9.48828 -0.784704,0.006 -5.267604,2.45356 -9.960938,5.4375 -6.326848,4.02255 -7.1535056,5.07889 -3.199218,4.08593 5.901174,-1.48185 9.159165,-2.81812 45.865234,-18.79687 29.42289,-12.80824 33.660147,-14.30307 37.273437,-13.15625 1.934848,0.61411 9.592811,-1.3522 17.017581,-4.36914 11.38073,-4.62441 14.42033,-5.1034 19.37109,-3.05274 4.94473,2.04817 7.34135,1.67583 15.17188,-2.35547 5.11485,-2.63312 13.62039,-4.92099 18.90039,-5.08398 5.28,-0.16299 13.91922,-2.3139 19.19922,-4.78125 5.28,-2.46734 16.31987,-7.0287 24.5332,-10.13477 8.21333,-3.10597 19.23133,-7.43488 24.48437,-9.61914 5.25304,-2.18423 10.23896,-3.546 11.07813,-3.02734 0.83917,0.51864 2.12211,4.99976 2.85156,9.95898 0.72945,4.95932 1.67184,10.93849 2.09375,13.28516 0.42189,2.34667 0.83988,5.43159 0.92969,6.85742 0.0898,1.42586 3.17152,6.01818 6.84766,10.20508 3.67606,4.18691 6.31472,7.88565 5.86523,8.21875 -0.44947,0.3331 -10.13409,5.17112 -21.52149,10.75 -20.60533,10.09498 -20.72494,10.19915 -25.0664,21.80274 -2.56371,6.85211 -4.36133,16.79164 -4.36133,24.10742 0,12.01113 0.33593,12.75612 9.55273,21.25195 5.25379,4.84277 11.01261,8.80664 12.79883,8.80664 5.14818,0 3.79847,3.02111 -3.19531,7.15234 -3.77348,2.22906 -9.29657,9.17418 -13.33203,16.76172 -3.7897,7.12544 -8.07798,14.97887 -9.52734,17.45313 -1.44937,2.47426 -2.64895,10.46841 -2.66602,17.76562 -0.0373,15.72775 5.61332,28.45963 14.41797,32.48829 27.98334,12.80385 56.13036,17.03163 85.81836,12.89062 38.2503,-5.33532 38.15686,-5.33936 60.94726,2.76172 11.65146,4.14161 27.71369,8.69386 35.69336,10.11523 7.97965,1.42138 21.19457,5.8781 29.36719,9.9043 17.97432,8.85493 28.83053,12.90907 45.72461,17.08008 19.72836,4.87074 51.6296,9.08332 69.35547,9.1582 18.07673,0.0763 22.80472,2.90244 33.375,19.94922 3.04151,4.90507 7.35669,10.929 9.58984,13.38477 2.23315,2.45578 10.37597,16.85578 18.09375,32 18.25114,35.81333 28.44252,54.37149 32.40625,59.01367 1.16733,1.36713 1.97784,2.7623 2.23633,3.71679 h 17.95508 l -9.35352,-14.50781 c -5.8228,-9.0324 -16.38137,-28.42122 -23.46289,-43.08789 -15.90637,-32.94404 -18.29186,-37.36373 -25.8164,-47.80859 -6.1455,-8.53056 -6.51325,-12.52805 -0.70899,-7.71094 4.50187,3.73621 18.82993,3.15353 31.11914,-1.26563 12.80365,-4.60402 11.9554,-7.1204 -1.64648,-4.88281 -13.72124,2.2572 -34.23061,2.35264 -35.58203,0.16602 -0.60071,-0.97186 4.03415,-1.34195 10.30078,-0.82227 6.43953,0.53402 14.9763,-0.27701 19.63281,-1.86523 4.53148,-1.54558 9.36597,-2.58929 10.74414,-2.32031 1.3782,0.26897 3.10729,-0.48344 3.8418,-1.67188 1.5645,-2.53143 -6.04475,-1.78765 -20.61719,2.01367 -12.34389,3.21999 -18.88038,1.5461 -7.0625,-1.80859 10.38714,-2.94855 16.77584,-6.60743 11.62695,-6.6582 -1.81866,-0.018 -4.32164,0.9818 -5.5625,2.22265 -1.24085,1.24086 -7.91431,2.66307 -14.82812,3.16016 -9.35059,0.67225 -10.93054,0.43805 -6.16992,-0.91602 9.79575,-2.78624 26.45545,-10.45717 33.3125,-15.33984 5.31129,-3.78195 6.15429,-3.90748 6.15429,-0.91211 0,1.90914 -0.95948,2.87751 -2.13281,2.15234 -1.17333,-0.72516 -2.13476,-0.30117 -2.13476,0.94141 0,4.24162 4.35401,2.27014 6.78906,-3.07422 1.33653,-2.93333 3.13068,-5.33398 3.98828,-5.33398 0.85758,0 3.22942,-4.07974 5.26953,-9.06641 4.99563,-12.21099 4.61387,-42.18683 -0.63867,-50.20312 -3.04077,-4.64082 -3.77803,-4.95334 -4.375,-1.85352 -0.39495,2.05088 0.35073,5.01481 1.65625,6.58789 1.30553,1.57306 2.51892,10.01209 2.69726,18.75195 0.26612,13.0461 -0.52214,17.25807 -4.40039,23.53321 -5.23938,8.4775 -15.769,15.53616 -27.68554,18.55664 -4.30786,1.0919 -11.67386,2.97553 -16.36719,4.1875 -9.66744,2.49647 -31.61145,3.05068 -33.80859,0.85351 -0.79892,-0.79889 3.05628,-3.91915 8.5664,-6.93359 12.89624,-7.05517 15.1478,-11.99416 3.54102,-7.76758 -4.49114,1.63546 -12.96537,5.45519 -18.83203,8.48828 -5.86667,3.03309 -12.58693,5.4979 -14.9336,5.47656 -3.91279,-0.0353 -3.82658,-0.37781 1.03516,-4.11328 6.70833,-5.15428 4.34473,-8.02472 -2.76953,-3.36328 -2.95439,1.93579 -5.63712,2.55379 -6.05274,1.39453 -0.45723,-1.27528 -5.29048,-0.8472 -12.47851,1.10352 -7.3763,2.00179 -16.54139,2.77815 -24.67969,2.0918 -16.32489,-1.37682 -49.97123,-12.30667 -76.6543,-24.9004 -4.69333,-2.21503 -14.11227,-4.61209 -20.93164,-5.32812 -7.74656,-0.8134 -12.83382,-2.43282 -13.55664,-4.31641 -0.75592,-1.96992 -2.89584,-2.57907 -6.17578,-1.75586 -3.74575,0.94012 -6.43011,-0.26084 -10.57422,-4.73242 -4.24537,-4.58082 -5.96338,-5.3268 -7.29883,-3.16601 -1.43669,2.3246 -4.20675,2.20975 -15.5957,-0.64649 -14.13263,-3.54434 -16.75631,-3.40755 -51.20117,2.66016 -10.43437,1.8381 -12.49326,0.67636 -6.95508,-3.91992 1.74707,-1.44997 2.64887,-3.48696 2.00586,-4.52735 -0.64299,-1.04038 -0.15274,-1.89062 1.08984,-1.89062 1.24259,0 2.25977,-1.49693 2.25977,-3.32617 0,-1.82917 -0.93887,-2.74604 -2.08594,-2.03711 -1.27565,0.78839 -2.01483,-3.6098 -1.90625,-11.32618 0.17777,-12.62952 -3.10234,-22.85187 -6.63281,-20.66992 -1.03341,0.63868 -2.5748,0.0378 -3.42383,-1.33593 -0.96409,-1.55994 -0.6183,-1.92724 0.91992,-0.97657 1.35463,0.83721 2.46289,0.56192 2.46289,-0.61132 0,-2.88118 -3.80444,-5.05556 -6.22656,-3.5586 -1.11155,0.68698 -0.57693,3.98439 1.23438,7.61524 1.75695,3.52189 4.06696,5.86307 5.13476,5.20312 1.0678,-0.65992 1.30972,0.44752 0.53711,2.46094 -0.95309,2.48367 -0.60156,3.16569 1.0918,2.11914 3.21745,-1.98848 3.39237,12.56261 0.25976,21.54883 -1.67503,4.80501 -4.40223,7.12753 -10.89257,9.26953 -4.76229,1.57171 -9.12812,4.07889 -9.70118,5.57226 -1.51581,3.95019 -18.44007,1.29416 -32.05078,-5.02929 -14.51123,-6.74183 -25.84221,-21.98633 -16.34179,-21.98633 3.07159,0 3.10862,-0.51955 0.33789,-4.79883 -1.70934,-2.64 -3.81163,-7.65443 -4.67188,-11.14258 -1.5552,-6.30596 -1.54012,-6.31917 2.86133,-2.33593 5.30253,4.79862 5.67739,2.91896 0.99609,-5.00586 -3.26357,-5.52478 -3.14624,-6.37784 2.39844,-17.39649 6.90803,-13.72793 16.95375,-23.1121 24.86914,-23.23242 8.44798,-0.12845 18.01408,10.43144 19.64649,21.6875 2.07505,14.30833 -7.03038,47.0953 -15.50782,55.8418 -7.63375,7.87603 -8.19006,9.84961 -2.77734,9.84961 5.54906,0 12.41838,-7.12536 18.57031,-19.26563 4.50486,-8.88988 5.13122,-12.34378 3.9961,-22.00195 l -1.34571,-11.45508 13.15235,-1.48828 c 13.39861,-1.51586 35.2937,-9.53496 30.70117,-11.24414 -1.39047,-0.51749 -9.17419,1.038 -17.29688,3.45703 -21.04763,6.26827 -23.27456,5.9591 -25.92968,-3.60156 -1.22194,-4.4 -2.22603,-9.08129 -2.23243,-10.4043 -0.007,-1.32299 -1.45289,-3.60183 -3.21289,-5.0625 -4.16533,-3.4569 -4.08117,-6.40039 0.1836,-6.40039 1.86127,0 10.26257,1.90846 18.66797,4.24023 8.40537,2.33176 19.36099,5.24897 24.34765,6.48243 5.45993,1.35043 9.06836,3.47176 9.06836,5.33203 0,1.69903 3.11831,4.49167 6.93164,6.20507 10.50398,4.71966 14.49799,8.64202 17.89844,17.5879 l 3.09766,8.15234 -1.18946,-7.32617 c -1.40429,-8.64711 -4.97319,-13.01788 -15.05859,-18.44922 -4.0781,-2.1962 -7.41406,-5.60494 -7.41406,-7.57422 0,-1.96928 4.20189,-6.36368 9.33789,-9.76563 7.32663,-4.85294 13.77088,-6.79365 29.91211,-9.00976 11.31509,-1.55352 21.08919,-3.66181 21.7207,-4.6836 0.63149,-1.02169 3.01219,-1.85742 5.29101,-1.85742 3.01891,0 5.99673,-3.90861 10.97071,-14.40039 5.60981,-11.83294 6.76059,-16.72013 6.45898,-27.42187 l -0.36523,-13.02344 18.0918,-1.39258 c 17.36178,-1.33455 33.22141,-4.24207 42.84374,-7.85547 2.4901,-0.93506 6.65463,-6.09529 9.25586,-11.46875 2.60126,-5.37346 5.39722,-9.77148 6.2129,-9.77148 0.81558,0 3.08647,2.64052 5.04492,5.86719 11.418,18.81179 48.30946,54.83564 64.93359,63.40625 4.48723,2.3134 11.82833,6.45102 16.31445,9.19336 4.48611,2.74233 9.28545,4.58831 10.66602,4.10351 1.38054,-0.4848 -2.21654,-3.12629 -7.99414,-5.86914 -5.77762,-2.74285 -9.4781,-5.32762 -8.22266,-5.74609 1.25545,-0.41848 5.50395,1.20222 9.43946,3.60156 3.9355,2.39932 8.59546,4.33895 10.35546,4.3125 1.76,-0.0265 -3.75162,-3.73775 -12.24804,-8.24805 -8.49641,-4.51027 -16.92016,-9.42135 -18.71875,-10.91406 -1.79862,-1.49267 -3.88677,-2.09763 -4.64063,-1.34375 -0.75387,0.75386 -0.0918,1.37109 1.47266,1.37109 1.56437,0 2.22895,0.61481 1.47656,1.36719 -1.50287,1.50289 -24.94336,-15.82926 -24.94336,-18.44336 0,-0.89261 -3.61432,-5.33511 -8.0332,-9.87304 -18.13572,-18.62486 -34.6353,-38.93344 -34.66602,-42.66993 -0.018,-2.18963 -0.92609,-5.39595 -2.01953,-7.125 -1.09342,-1.72902 -1.32002,-3.64798 -0.50195,-4.26562 4.04418,-3.05334 8.95508,-18.46813 8.95508,-28.11133 0,-10.27765 0.25108,-10.76279 4.80078,-9.30664 8.66982,2.77483 72.58978,3.7181 79.2793,1.16992 3.5384,-1.34788 5.37648,-3.13368 4.26757,-4.14648 -3.29393,-3.00849 -13.34272,-4.60228 -14.74218,-2.33789 -1.62667,2.63202 -43.63122,2.82115 -47.7461,0.21484 -1.61689,-1.02419 -2.30331,-2.8917 -1.52539,-4.15039 1.35844,-2.19802 -17.64797,-6.13468 -23.79101,-4.92774 -1.46172,0.28722 -4.7631,-1.43896 -7.33594,-3.83593 -2.57284,-2.39697 -6.30618,-4.35938 -8.29688,-4.35938 -6.88748,0 -25.44336,-7.05764 -25.44336,-9.67773 0,-1.44681 -2.61673,-4.34618 -5.81445,-6.44141 -3.19772,-2.09521 -10.35756,-8.06021 -15.91211,-13.25586 l -10.09961,-9.44531 6.3125,-5.3125 c 9.1195,-7.67358 7.9729,-15.64994 -5.55078,-38.62891 -3.62406,-6.15786 -4.95818,-6.8804 -10.77344,-5.82617 -6.47596,1.17402 -6.66915,0.97363 -7.93554,-8.26562 -1.78078,-12.9923 0.58146,-37.59993 4.16015,-43.33789 1.62078,-2.59872 2.94727,-6.12414 2.94727,-7.83399 0,-1.70986 4.01148,-6.54213 8.91601,-10.740232 5.89958,-5.049816 11.39734,-7.59272 16.40235,-7.617188 3.89278,-0.01903 7.48772,1.485505 10.74218,4.517578 4.44455,4.140712 19.4043,25.918562 19.4043,28.248042 0,2.19862 35.2282,52.25013 44.11914,62.6836 5.24928,6.16 8.70323,11.20117 7.67383,11.20117 -1.02938,0 -3.00805,-1.13695 -4.39648,-2.52539 -1.38846,-1.38844 -2.99198,-2.0549 -3.56446,-1.48242 -1.19765,1.19765 7.74962,14.58125 9.78516,14.63672 1.86005,0.0508 1.09345,-11.08189 -0.99023,-14.37696 -2.18891,-3.46131 4.08038,-6.02582 7.66796,-3.13672 1.45174,1.16911 5.99881,2.8037 10.10547,3.63282 4.10667,0.82914 11.30667,2.75069 16,4.27148 4.69334,1.52079 14.77373,3.38755 22.40039,4.14649 35.32653,3.51541 33.89753,3.07296 38.37305,11.8457 2.26193,4.43373 5.59236,8.62967 7.40234,9.32422 1.80999,0.69455 3.29102,2.29306 3.29102,3.55273 0,3.16555 2.3919,5.95758 26.22656,30.62305 21.35431,22.09867 42.24057,50.69925 45.39063,62.1543 0.96798,3.52 1.67854,15.78797 1.58008,27.26171 -0.166,19.3491 -0.62058,21.49801 -6.28711,29.63282 -3.3602,4.82385 -7.15414,10.54845 -8.43165,12.72265 -1.27741,2.17423 -4.10463,5.92093 -6.28124,8.32618 -3.86398,4.26967 -3.85949,4.33745 0.18945,2.8164 7.6167,-2.86131 -0.30451,4.53102 -9.65625,9.01172 -7.34978,3.52143 -11.2012,7.29492 -7.44531,7.29492 3.58937,0 18.25829,-9.17781 21.05859,-13.17578 1.81054,-2.58492 3.83842,-4.15376 4.50586,-3.48633 2.10923,2.10921 -23.24848,23.28171 -29.38281,24.53321 -3.22667,0.65828 -5.86719,2.03583 -5.86719,3.0625 0,2.91801 3.40724,2.23623 13.27734,-2.65625 10.55183,-5.2304 25.10676,-21.51939 33.5625,-37.5625 6.79906,-12.89986 9.35301,-12.86999 5.41797,0.0644 -5.09293,16.74052 -19.00405,38.4391 -27.96094,43.61133 -4.56241,2.6346 -8.13614,5.51769 -7.93945,6.40625 0.38914,1.75872 -13.6306,3.32316 -29.6875,3.3125 -14.49092,-0.01 -9.53,4.7934 6.86719,6.64843 10.39238,1.17577 14.17165,0.66206 21.07422,-2.85937 4.62613,-2.36006 9.7117,-5.52831 11.30078,-7.04102 1.58908,-1.5127 6.08297,-5.38427 9.98633,-8.60351 3.90333,-3.21922 6.00596,-5.85352 4.67382,-5.85352 -1.33211,0 1.23435,-6.71248 5.70313,-14.91797 4.46876,-8.20548 8.717,-14.92506 9.43945,-14.93359 1.68158,-0.0183 -1.07185,14.07706 -4.35351,22.28711 -1.3855,3.46624 -5.82646,10.90611 -9.86914,16.5332 -5.29592,7.37154 -6.44174,10.23047 -4.09961,10.23047 5.84708,0 19.30864,-24.46269 22.35937,-40.63086 1.53952,-8.15919 3.42983,-14.83398 4.19922,-14.83398 0.76939,0 4.21579,5.99929 7.6582,13.33203 9.62402,20.50029 34.3889,59.49409 41.66211,65.59961 0.69886,0.58667 2.61977,3.64391 4.26758,6.79297 1.64779,3.14903 7.42496,13.22942 12.83984,22.40039 5.41498,9.17094 17.30257,31.55357 26.41602,49.74023 9.11343,18.18667 18.98263,37.86771 21.93164,43.73438 2.94901,5.86666 6.52478,12.10523 7.94727,13.86523 1.4225,1.76 6.23805,9.44169 10.69922,17.06836 8.30619,14.2 9.41151,21.02628 5.27148,32.5332 -5.5885,15.53285 -7.01114,18.66602 -8.47852,18.66602 -1.89329,0 -7.65873,-8.48971 -26.07812,-38.40039 -12.64459,-20.53314 -44.35352,-83.03466 -44.35352,-87.42578 0,-1.02759 -1.24481,-3.13704 -2.76562,-4.6875 -1.52081,-1.55049 -5.50891,-9.31045 -8.86328,-17.24414 -6.85982,-16.22481 -10.18157,-17.82211 -4.48438,-2.15625 5.43569,14.94673 19.91528,44.84219 22.49024,46.43359 1.22385,0.7564 1.64163,2.3195 0.92773,3.47461 -1.21999,1.97397 9.0898,25.13557 12.23828,27.49414 0.79885,0.59842 2.09528,3.64929 2.88086,6.7793 0.7856,3.13 2.66877,6.1661 4.18555,6.74804 1.51678,0.58206 5.91481,6.65211 9.77344,13.48829 3.85864,6.8362 13.00527,21.14997 20.32617,31.80859 l 13.31054,19.37891 -5.67578,9.58203 c -3.12195,5.26969 -8.57224,13.05513 -12.10937,17.29883 l -4.85352,5.82421 h 6.98243 l 1.93164,-2.66406 c 9.82677,-13.5427 15.26582,-22.87884 18.94921,-32.52539 2.23845,-5.86233 4.93371,-11.19197 5.98829,-11.84375 1.05457,-0.65175 2.89447,-6.34145 4.08984,-12.64453 1.19535,-6.30308 2.71245,-11.99958 3.37109,-12.6582 0.65863,-0.65863 3.03115,1.18967 5.27149,4.10547 3.29915,4.29388 4.08269,4.59019 4.12109,1.5664 0.0261,-2.05333 -0.68869,-3.73242 -1.58789,-3.73242 -0.8992,0 -4.79244,-5.27909 -8.65234,-11.73242 -3.85991,-6.45334 -7.77022,-11.73438 -8.68946,-11.73438 -0.91921,0 -2.81561,-2.51303 -4.21484,-5.58398 l -2.54492,-5.58203 8.06836,1.39062 c 8.33079,1.43638 20.59287,12.78601 26.49804,24.52735 4.01093,7.97497 14.58325,21.81873 20.91016,27.3789 3.98652,3.5033 4.38597,4.42353 1.47852,3.41016 -3.42454,-1.19358 -3.66498,-0.79644 -1.7168,2.84375 1.24578,2.32776 3.99786,5.59432 6.11523,7.25781 3.52615,2.77026 3.59983,2.70692 0.87891,-0.75976 -1.63388,-2.08169 -2.24932,-4.48234 -1.36719,-5.33399 0.88214,-0.85163 3.18039,0.8097 5.10547,3.69141 1.92508,2.8817 8.06852,9.88792 13.65234,15.57031 7.91468,8.05426 12.45045,13.45036 14.42774,17.42969 v -41.93946 l -1.11328,28.43946 -9.06836,-9.25 c -9.64853,-9.84457 -10.9715,-13.23566 -5.92578,-15.17188 2.63274,-1.01028 2.98577,-6.4687 2.1914,-33.82812 -0.91577,-31.54127 1.86155,-90.09948 3.16602,-66.75586 l 0.5957,10.66601 1.7793,-12.80078 c 2.75121,-19.79078 1.95914,-50.13281 -1.30859,-50.13281 -2.31531,0 -5.29688,-4.38638 -5.29688,-7.79297 0,-0.57478 2.15883,-0.76198 4.79883,-0.41601 2.64,0.34594 5.0676,-0.30528 5.39453,-1.44727 0.99337,-3.46989 -18.87534,-4.40541 -59.79297,-2.81445 -82.98799,3.22675 -84.74985,3.22127 -85.75781,-0.28907 -0.5116,-1.78169 -1.58905,-24.37619 -2.39453,-50.20898 l -1.46289,-46.9687 12.54101,-2.89648 c 7.86501,-1.81613 32.04017,-3.27982 64.83985,-3.92774 43.20742,-0.85352 54.23306,-0.45868 63.41992,2.26953 6.36173,1.88924 11.63365,2.4704 12.32031,1.35938 0.66014,-1.06814 -1.17927,-2.53902 -4.08984,-3.26953 -4.64071,-1.16474 -5.44852,-2.81385 -6.5586,-13.39649 -2.38596,-22.74556 -5.84465,-36.88441 -8.75,-35.76953 -1.50131,0.57613 -3.8765,-0.33513 -5.27929,-2.02539 -1.4028,-1.69026 -4.4264,-3.07227 -6.71875,-3.07227 -3.92064,0 -4.13536,1.42381 -3.61719,24 l 0.55078,24 -21.18945,0.11329 c -11.65361,0.0623 -32.22737,0.80087 -45.72071,1.64257 -15.90144,0.99194 -22.93326,0.82208 -19.98437,-0.48437 5.22457,-2.31463 14.83929,-27.53766 11.69531,-30.68164 -1.10536,-1.10537 -2.4943,-0.92849 -3.33008,0.42383 -2.16281,3.49952 -5.49146,2.7819 -4.08593,-0.88086 0.67539,-1.76 2.46177,-3.19922 3.9707,-3.19922 3.22219,0 5.91577,-5.86888 4.0664,-8.86133 -0.70531,-1.14138 0.40023,-3.93431 2.45704,-6.20703 3.59549,-3.9731 3.55017,-4.13281 -1.14063,-4.13281 -2.68335,0 -8.16223,2.02925 -12.17578,4.50976 -4.01353,2.48049 -7.88691,3.92166 -8.60742,3.20117 -0.72049,-0.72051 0.0507,-1.34157 1.71289,-1.3789 2.15503,-0.0484 1.85982,-0.94736 -1.02734,-3.13282 -4.53007,-3.42885 -4.96934,-3.1376 14.71484,-9.74023 4.69333,-1.57427 9.22357,-3.40435 10.0664,-4.06641 0.84291,-0.66205 1.87066,-12.45368 2.28321,-26.20312 0.71249,-23.74581 1.8529,-29.69788 5.07422,-26.47656 1.97252,1.97252 2.46057,7.79437 2.66601,31.82031 l 0.17774,20.80078 10.13281,0.33399 10.13281,0.33593 -10.5,1.26563 c -11.90325,1.43373 -15.13896,5.41595 -5.90039,7.26367 7.02447,1.40489 15.33399,-0.24731 15.33399,-3.04883 0,-1.03648 1.92091,-1.88476 4.26757,-1.88476 2.34667,0 4.26563,-0.95948 4.26563,-2.13282 0,-1.17333 1.86321,-2.13281 4.14062,-2.13281 3.88828,0 7.94559,-3.55832 6.12891,-5.375 -0.45331,-0.45333 -4.41898,-1.2207 -8.81445,-1.70508 -4.3955,-0.48437 -8.68144,-1.57029 -9.52344,-2.41211 -0.84201,-0.84181 -1.59554,-9.73411 -1.67383,-19.76172 -0.11334,-14.51392 -0.87378,-18.76711 -3.73242,-20.85742 -1.97502,-1.44416 -3.5918,-3.2396 -3.5918,-3.99023 0,-0.68811 7.45117,-1.0497 17.1211,-1.13086 2.01456,-0.0169 4.12528,-0.0225 6.28515,-0.0156 15.1191,0.0482 32.63893,0.66888 36.32813,1.70704 5.27195,1.48345 5.33496,1.78108 5.57031,25.91992 0.29165,29.91676 0.33196,30.31309 2.91797,28.71484 2.55087,-1.57651 10.85467,2.63343 14.30664,7.25391 0.25344,0.33923 0.49333,1.37038 0.71875,2.91601 v -12.90625 c -1.63125,3.11167 -4.65946,1.77689 -10.05469,0.33008 -4.13549,-1.10899 -4.57239,-2.39492 -3.79492,-11.16992 0.48329,-5.45461 1.33992,-19.66071 1.9043,-31.56836 l 1.02539,-21.65039 -6.53711,-2.70899 c -6.1914,-2.56456 -6.47225,-3.19192 -5.28906,-11.82421 1.11144,-8.10893 0.7259,-9.27577 -3.49219,-10.56055 -2.60811,-0.79439 -6.33225,-2.83766 -8.27539,-4.54102 -7.88188,-6.9092 -58.8648,-5.06889 -59.6875,2.1543 -0.15759,1.38347 -0.0716,6.59118 0.1914,11.57422 0.3785,7.17276 -0.338,9.32531 -3.44531,10.32812 -12.24834,3.95273 -13.81958,5.69045 -12.25781,13.56836 0.82613,4.16728 1.89422,18.19468 2.37305,31.17188 l 0.87109,23.5957 -21.61328,8.18359 c -40.3789,15.29183 -44.76563,23.91052 -44.76563,87.94141 0,33.313 -0.45125,38.77647 -3.12109,37.75195 -5.0192,-1.92605 -23.73718,-32.76212 -39.06055,-64.35156 -12.64277,-26.06338 -14.22851,-30.75869 -14.57031,-43.11523 -0.47095,-17.02561 -1.99346,-23.64374 -8.58789,-37.33399 -12.52303,-25.99827 -24.58445,-42.13647 -51.01367,-68.26562 -10.68128,-10.56 -21.70142,-23.30524 -24.49024,-28.32227 -4.7441,-8.53453 -13.92777,-15.41211 -20.58007,-15.41211 -1.59565,0 -4.56806,-0.90288 -6.60547,-2.00586 -2.03742,-1.10297 -11.86456,-2.96449 -21.83789,-4.13672 -9.97334,-1.17215 -28.69295,-5.63774 -41.59961,-9.92382 -27.49218,-9.12967 -29.20456,-10.65462 -53.83203,-47.9336 -8.9141,-13.49333 -17.00926,-24.85303 -17.98829,-25.24414 -0.97905,-0.39112 -1.77929,-1.96917 -1.77929,-3.50586 0,-1.5367 -1.43922,-3.34609 -3.19922,-4.02148 -1.76,-0.67537 -3.23245,-2.45743 -3.27149,-3.96094 -0.18568,-7.152054 -12.87515,-16.601561 -22.29492,-16.601561 z M 301.33984,148.05664 c 6.07412,0.15855 9.90765,3.46584 14.63086,11.52539 4.81931,8.22345 5.45559,11.34721 4.64844,22.79297 -1.41421,20.05402 -9.26639,31.15402 -27.26172,38.5332 -14.76887,6.05613 -22.05408,6.91466 -30.7168,3.6211 -4.35088,-1.65423 -5.14413,-1.45204 -4.17773,1.0664 0.65604,1.70961 0.13089,3.10938 -1.16797,3.10938 -1.29888,0 -2.36133,-0.96143 -2.36133,-2.13477 0,-1.17333 -1.85432,-2.13281 -4.12109,-2.13281 -2.26675,0 -6.30452,-3.06545 -8.97266,-6.8125 -3.89047,-5.46366 -4.85156,-9.65666 -4.85156,-21.16992 0,-12.63879 0.62585,-14.87647 5.23828,-18.71485 2.88156,-2.39799 6.04599,-4.3926 7.03125,-4.43164 0.98526,-0.039 3.38591,-1.94488 5.33399,-4.23437 4.22009,-4.9597 30.55014,-18.21932 40.29297,-20.29102 1.91554,-0.40732 3.63687,-0.65423 5.20898,-0.71679 0.42578,-0.0169 0.84115,-0.0201 1.24609,-0.01 z m -1.35742,2.3125 c -4.75205,0.0466 -19.18067,5.65449 -27.39062,10.95898 -5.53204,3.57434 -7.33797,6.65108 -9.24024,15.7461 -2.56164,12.24753 -0.7079,21.36009 5.80664,28.55859 4.46232,4.9308 7.20519,4.86487 18.33203,-0.43945 11.79275,-5.62178 20.05499,-12.05439 18.05469,-14.05469 -0.87471,-0.87471 -4.21917,0.74011 -7.43359,3.58789 -8.3709,7.41615 -14.56811,10.51172 -21.04688,10.51172 -8.19183,0 -11.31883,-5.60652 -11.39648,-20.42969 -0.0758,-14.48793 2.31903,-17.9777 18.0332,-26.27929 14.01348,-7.40312 15.49805,-6.53278 15.49805,9.08789 0,7.46875 1.02981,15.38836 2.28711,17.59961 1.7393,3.05883 2.18623,-0.40162 1.86719,-14.46875 -0.23064,-10.16913 -1.11882,-19.18743 -1.97266,-20.04102 -0.23751,-0.23744 -0.71957,-0.34455 -1.39844,-0.33789 z m -50.79883,26.49219 c -0.1916,0.002 -0.44549,0.25098 -0.76367,0.7539 -2.62605,4.15104 -2.53177,17.46379 0.17383,24.58008 1.20617,3.17244 2.77456,5.18445 3.48633,4.47266 0.71176,-0.71177 0.0804,-4.22296 -1.40235,-7.80274 -1.55517,-3.75464 -2.18983,-10.28074 -1.5,-15.42382 0.58407,-4.35381 0.58055,-6.58487 0.006,-6.58008 z m 159.47657,15.57617 c 1.10408,0 2.00586,0.95948 2.00586,2.13281 0,1.17334 -1.49693,2.13477 -3.32618,2.13477 -1.82929,0 -2.73102,-0.96143 -2.00586,-2.13477 0.72517,-1.17333 2.22209,-2.13281 3.32618,-2.13281 z m -11.73438,4.26758 c 0.51742,0 0.94141,0.95948 0.94141,2.13281 0,1.17333 -1.01719,2.13281 -2.25977,2.13281 -1.24258,0 -1.66657,-0.95948 -0.9414,-2.13281 0.72516,-1.17333 1.74234,-2.13281 2.25976,-2.13281 z m 16.81445,10.66601 c 1.82925,0 3.32618,0.95948 3.32618,2.13282 0,1.17333 -0.90373,2.13281 -2.00782,2.13281 -1.10408,0 -2.60101,-0.95948 -3.32617,-2.13281 -0.72516,-1.17334 0.17857,-2.13282 2.00781,-2.13282 z m -10.8164,1.91016 c 1.67526,-0.0428 2.82145,0.30882 3.82812,0.9375 2.15258,1.3443 3.91407,4.47026 3.91407,6.94531 0,5.57993 9.39291,18.71855 20.45117,28.60742 l 8.34961,7.4668 -44.20899,0.11133 -44.21093,0.11133 -3.03126,-8.64453 c -1.66715,-4.75501 -3.71447,-10.32558 -4.55078,-12.37891 -1.15379,-2.83281 -0.47196,-3.73242 2.83204,-3.73242 2.39476,0 9.93769,-2.32812 16.76171,-5.17188 25.05367,-10.44052 34.83945,-14.12367 39.86524,-14.25195 z m -85.95313,3.42383 4.18164,5.03515 c 2.29965,2.77001 4.18164,6.84975 4.18164,9.06641 0,2.21668 1.28706,4.03125 2.86133,4.03125 2.72011,0 7.80469,12.84179 7.80469,19.71289 0,1.81412 -2.59093,3.73732 -5.93555,4.40625 -3.26425,0.65284 -12.14334,4.02573 -19.73242,7.49414 -7.5891,3.4684 -16.19948,7.00257 -19.13281,7.85352 -2.93333,0.85094 -14.45294,5.19227 -25.59961,9.64843 -11.14667,4.45626 -29.38653,11.616 -40.5332,15.91016 -11.14667,4.29419 -28.11296,11.10098 -37.70313,15.125 -17.14379,7.19355 -25.10592,8.87906 -27.00781,5.7168 -7.06114,-11.7406 -12.08789,-22.40153 -12.08789,-25.63086 0,-2.79322 3.39606,-5.49318 11.19922,-8.90039 6.16,-2.68973 15.03909,-6.6037 19.73242,-8.69727 4.69333,-2.09359 17.17437,-7.3788 27.73437,-11.74609 10.56,-4.36732 27.36065,-11.56608 37.33399,-15.99609 9.97333,-4.43008 21.71986,-9.18376 26.10351,-10.56446 4.38366,-1.38071 8.51915,-3.40054 9.19141,-4.48828 0.67226,-1.08772 6.01581,-1.97656 11.87305,-1.97656 9.56062,0 11.40949,-0.81799 18.09179,-8 z m 72.11133,3.19922 c -1.17333,0 -1.53961,0.95948 -0.81445,2.13281 0.72516,1.17333 2.27784,2.13281 3.45117,2.13281 1.17333,0 1.53962,-0.95948 0.81445,-2.13281 -0.72516,-1.17333 -2.27784,-2.13281 -3.45117,-2.13281 z m -4.76953,3.04687 c -5.44198,-0.29573 -24.8457,12.38802 -24.8457,16.70508 0,1.11302 3.39351,-0.9561 7.54101,-4.59766 4.14748,-3.64153 8.70705,-6.5712 10.13281,-6.50976 1.42584,0.0615 0.1931,1.73301 -2.74023,3.71289 -2.93333,1.97988 -8.09458,6.29599 -11.46875,9.5918 -3.37416,3.29582 -5.56453,4.50473 -4.86719,2.6875 0.69733,-1.81726 0.44068,-3.30274 -0.57031,-3.30274 -1.8503,0 -4.42773,5.06829 -4.42773,8.70703 0,3.61726 3.42363,2.00583 9.73437,-4.58203 3.44619,-3.5975 10.34357,-9.11841 15.32813,-12.26758 9.25457,-5.84682 10.60024,-7.72824 7.07617,-9.90625 -0.22881,-0.14141 -0.52978,-0.21856 -0.89258,-0.23828 z m 147.35156,2.0293 c -0.33296,0.0313 -1.06102,0.81212 -2,2.2207 -5.04452,7.56751 -17.07498,20.43555 -19.10547,20.43555 -1.10604,0 -1.42387,-0.94753 -0.70703,-2.10742 0.77931,-1.26095 -0.19959,-1.53304 -2.43359,-0.67578 -2.43132,0.93299 -2.81094,1.74204 -1.08789,2.3164 3.54844,1.18281 -1.02053,6.86719 -5.51953,6.86719 -2.74078,0 -2.77922,-0.53485 -0.27149,-3.73242 2.61223,-3.33086 2.54975,-3.43792 -0.57812,-0.99414 -1.92822,1.50649 -7.689,3.56759 -12.80078,4.58203 -8.62949,1.71255 -8.28992,1.81104 4.74218,1.36914 9.77526,-0.33148 15.62376,-1.67335 19.26758,-4.42188 6.09442,-4.59705 19.75699,-21.20574 20.62891,-25.07812 0.12338,-0.54797 0.065,-0.80003 -0.13477,-0.78125 z m 4.28906,2.25391 c -0.52836,0.0607 -1.4576,1.16683 -2.94726,3.39453 -1.93995,2.90107 -5.95873,7.91591 -8.93164,11.14257 -2.97287,3.22667 -4.36507,5.86524 -3.09375,5.86524 3.45141,0 15.55273,-14.53591 15.55273,-18.68164 0,-1.18269 -0.16905,-1.76796 -0.58008,-1.7207 z m -218.89648,8.26367 c -0.83974,0.0269 -1.87936,0.20817 -3.10352,0.58398 -5.90555,1.81301 -6.3881,2.29472 -4.83203,4.8125 0.81199,1.31384 3.16916,1.18221 6.43164,-0.35742 5.03617,-2.3767 5.14277,-5.15558 1.50391,-5.03906 z m -16.75976,0.64843 c -0.3646,-0.0292 -0.72108,0.12928 -1.06836,0.47657 -1.38915,1.38914 -0.75263,3.92102 1.86523,7.41992 5.02948,6.72211 5.68201,6.07533 2.65039,-2.62109 -1.18982,-3.41314 -2.35356,-5.18762 -3.44726,-5.2754 z m 208.36132,3.8125 c -1.38795,-0.14594 -12.55518,5.04128 -14.61328,6.88282 -0.48887,0.43744 -0.20182,0.79492 0.63867,0.79492 2.28948,0 14.11719,-6.34742 14.11719,-7.57617 0,-0.0597 -0.05,-0.0918 -0.14258,-0.10157 z m -211.76562,4.49414 c -3.00949,0.16543 -8.1782,5.15572 -6.84766,7.3086 1.82343,2.95038 1.73797,2.97958 5.92969,-1.91602 1.97444,-2.30602 2.89744,-4.62126 2.05078,-5.14453 -0.31655,-0.19564 -0.70288,-0.27159 -1.13281,-0.24805 z m -15.16406,3.83399 c -0.88487,-0.13289 -1.09443,1.39959 0.0488,4.37891 0.73982,1.92793 2.23711,3.5039 3.32618,3.5039 1.08977,0 0.91011,-2.00049 -0.4004,-4.44922 -1.18833,-2.22063 -2.28638,-3.33024 -2.9746,-3.43359 z m 317.0957,6.23828 c -1.67261,-0.0671 -2.30493,0.32846 -1.78125,1.17578 0.72049,1.1658 4.58421,2.73366 8.58594,3.48438 4.00172,0.75072 8.44106,2.76834 9.86523,4.48437 2.78353,3.35396 7.30683,2.13873 5.13281,-1.3789 -1.53732,-2.48745 -7.66609,-4.96091 -17.69336,-7.14258 -1.72699,-0.37575 -3.1058,-0.5828 -4.10937,-0.62305 z m -327.03516,0.17383 c -2.83502,0.15251 -6.047,2.10876 -4.98437,3.82812 1.57,2.54025 9.46289,2.4589 9.46289,-0.0977 0,-1.10409 -0.87395,-2.5473 -1.94141,-3.20703 -0.68919,-0.42595 -1.5921,-0.57428 -2.53711,-0.52344 z M 261.88477,252.5 c -0.34314,-0.076 -0.45967,0.59544 -0.48633,1.98242 -0.0357,1.85779 0.57519,4.01662 1.35742,4.79883 2.60269,2.60271 3.26783,-0.33293 0.9707,-4.2832 -0.92965,-1.59869 -1.49866,-2.42208 -1.84179,-2.49805 z m 326.51953,2.14453 c -5.15766,-0.14435 -0.4043,4.03667 8.19726,6.07031 3.92205,0.92728 9.05177,1.70615 11.39844,1.73047 5.54381,0.0576 -7.44006,-5.71792 -16.75977,-7.45508 -1.15902,-0.21604 -2.09912,-0.32508 -2.83593,-0.3457 z m -344.42774,1.79297 c -1.31428,0 -1.83689,1.92822 -1.1914,4.39648 0.70374,2.6912 -0.0276,4.84984 -1.88477,5.5625 -5.22886,2.00651 -3.30435,4.43471 2.61719,3.30274 3.90033,-0.7456 5.18267,-0.3228 4.14062,1.36328 -0.83031,1.34347 -2.6618,2.44141 -4.07031,2.44141 -1.40851,0 -3.88798,2.16078 -5.50977,4.80078 -2.82353,4.59639 -2.77843,4.65171 1.08594,1.31836 2.21954,-1.91456 6.24744,-4.15439 8.94922,-4.97852 3.34477,-1.02024 4.28773,-2.29276 2.95899,-3.98633 -1.07333,-1.36798 -2.58077,-5.12685 -3.35157,-8.35351 -0.77081,-3.22667 -2.45631,-5.86719 -3.74414,-5.86719 z m 37.26758,0.94531 c -0.38921,-0.0199 -0.95408,0.10181 -1.66602,0.375 -1.82085,0.69878 -3.31054,1.64628 -3.31054,2.10742 0,1.72781 4.06358,0.75759 5.3164,-1.26953 0.46712,-0.75581 0.30885,-1.17969 -0.33984,-1.21289 z m -23.92578,0.75391 c -0.23174,-0.0113 -0.46934,-0.0101 -0.70898,0.004 -0.27398,0.0158 -0.55197,0.049 -0.83008,0.0996 -5.11241,0.93033 -5.85464,1.67216 -4.25782,4.25586 1.7404,2.81603 10.2025,0.4121 9.14454,-2.59765 -0.35452,-1.00855 -1.7255,-1.68292 -3.34766,-1.76172 z m 275.48242,0.60351 c -3.00386,0.13551 -3.10794,0.42092 -0.5332,1.46094 2.00638,0.81043 -0.38124,2.26083 -6.40039,3.88867 -5.30714,1.43527 -7.51624,2.68885 -4.93946,2.80469 6.223,0.27964 15.60547,-3.40955 15.60547,-6.13672 0,-1.20237 -1.67909,-2.11016 -3.73242,-2.01758 z m -143.0039,0.17188 c 31.15732,0.0563 52.44147,0.81216 47.90429,1.70312 -13.07816,2.56818 -17.11961,8.24853 -17.86914,25.11133 l -0.64062,14.44336 3.21875,-11.42773 c 5.4418,-19.31736 8.83187,-23.31173 22.13867,-26.07422 14.8726,-3.08753 30.02969,-1.4872 33.7207,3.56055 1.76792,2.41777 2.79688,10.25753 2.79688,21.31445 0,24.01969 -2.3181,26.7358 -23.9961,28.12695 -20.82528,1.33649 -26.38308,-0.18287 -31.52929,-8.62304 -2.30588,-3.78185 -4.19496,-5.60183 -4.19922,-4.04493 -0.004,1.55693 2.7968,5.63667 6.22656,9.06641 5.84761,5.84762 7.34197,6.2496 24,6.44726 l 17.76562,0.21094 -9.60156,3.06055 c -15.30871,4.87996 -37.52,7.00932 -73.87695,7.08398 -62.09555,0.12753 -67.38121,0.38835 -88.00781,4.34961 -11.28316,2.16687 -21.95485,4.4689 -23.71485,5.11524 -4.01105,1.47302 -11.27042,-4.47448 -15.49414,-12.69336 -1.77282,-3.44973 -3.57206,-12.82925 -3.99805,-20.84375 l -0.77343,-14.57227 12.6289,-5.16015 c 15.83126,-6.47023 16.95415,-6.44001 15.23243,0.41992 -3.20043,12.75146 -3.76494,19.05924 -1.40821,15.75195 1.25415,-1.76 2.36241,-2.24169 2.46289,-1.06836 0.10044,1.17334 1.00918,0.21386 2.01758,-2.13281 1.52164,-3.54106 1.89549,-2.99567 2.20117,3.20117 l 0.36719,7.4668 1.59961,-6.70313 c 3.63998,-15.26415 21.34595,-34.93295 36.15039,-40.15625 6.63881,-2.34231 21.42419,-3.01188 64.67774,-2.93359 z m 495.35937,2.3125 c 10.35342,0.0269 18.9774,0.32364 22.41016,0.96875 12.98717,2.44062 14.78694,7.87698 2,6.04102 -5.11482,-0.73443 -19.85896,-1.39534 -32.76563,-1.4668 -12.90667,-0.0714 -27.78836,0.43822 -33.06836,1.13281 -10.43946,1.37331 -19.7996,-0.98837 -15.19531,-3.83398 2.6894,-1.66215 33.84161,-2.90092 56.61914,-2.8418 z m -374.47852,1.88477 c -1.16,-0.0143 -2.39966,0.11236 -3.4375,0.38281 -2.07566,0.54088 -0.89304,1.01898 2.62696,1.0625 3.52,0.0435 5.21777,-0.39804 3.77343,-0.98242 -0.72207,-0.29224 -1.80289,-0.44865 -2.96289,-0.46289 z m -280.50976,2.26953 c -0.27776,-0.0595 -0.0868,0.70176 0.45508,2.25781 0.80725,2.31801 0.20173,3.82772 -1.59571,3.98047 -1.59221,0.13534 -3.85401,0.46957 -5.02734,0.74219 -1.17333,0.2725 -2.91013,0.64153 -3.85938,0.82031 -0.94915,0.17871 -1.08129,1.36897 -0.29296,2.64453 0.79317,1.28337 3.46922,1.69073 5.99218,0.91211 2.50759,-0.77387 5.7599,-1.49887 7.22657,-1.60938 3.50003,-0.26385 3.36456,-2.03864 -0.53907,-7.08203 -1.33594,-1.72599 -2.08161,-2.60656 -2.35937,-2.66601 z m 355.55859,1.72461 c -8.14408,0 -15.40179,0.96143 -16.12695,2.13476 -0.76924,1.24463 1.39967,2.13281 5.20703,2.13281 3.58925,0 6.52734,0.95948 6.52734,2.13282 0,1.17333 1.91896,2.13281 4.26563,2.13281 2.34667,0 4.26758,-0.97814 4.26758,-2.17383 0,-1.25365 2.25651,-1.60589 5.33203,-0.83398 4.03311,1.01224 5.33398,0.501 5.33398,-2.09375 0,-2.82326 -2.62313,-3.43164 -14.80664,-3.43164 z m -207.02148,1.13867 c -0.10506,0.003 -0.22032,0.0416 -0.3457,0.11914 -1.00384,0.62039 -1.82618,2.99211 -1.82618,5.26953 0,5.7808 1.43934,5.16541 2.64258,-1.12891 0.4847,-2.53558 0.26467,-4.27912 -0.4707,-4.25976 z m -166.10156,1.44922 c -0.50907,0.0125 0.0723,2.47987 1.85546,7.16992 1.20617,3.17244 2.72152,5.2394 3.36719,4.59375 0.64566,-0.64568 -0.30258,-3.89813 -2.10742,-7.22852 -1.66337,-3.06933 -2.71929,-4.5449 -3.11523,-4.53515 z m 691.27148,8.08398 c -0.81075,0.002 -1.66262,5.52096 -1.89062,12.26563 -0.2281,6.74468 -1.01374,15.6238 -1.74805,19.73046 l -1.33594,7.4668 4.29102,-4.26758 c 3.16488,-3.14683 4.44764,-7.62591 4.88476,-17.0664 0.55887,-12.07002 -0.84721,-18.13744 -4.20117,-18.12891 z m -706.61719,2.12891 c -1.51445,0 -1.52111,1.28219 -0.0195,4.08789 1.90441,3.55842 3.02029,3.77492 8.60742,1.66601 3.53103,-1.33282 6.41992,-3.17179 6.41992,-4.08789 1e-5,-2.3152 -3.77503,-2.07879 -8.67382,0.54297 -2.84444,1.52231 -4.12696,1.52231 -4.12696,0 0,-1.21461 -0.99241,-2.20898 -2.20703,-2.20898 z m 178.48242,0.74023 c -0.52173,0.15026 -1.29347,4.35015 -2.29296,12.59375 -0.99776,8.22946 -0.73536,12.26563 0.79882,12.26563 1.37967,0 2.28711,-5.21743 2.28711,-13.1543 0,-7.95574 -0.27123,-11.85534 -0.79297,-11.70508 z m -150.05859,4.17383 c -0.63252,0.0112 -1.92229,0.27432 -3.81445,0.68555 -8.35586,1.816 -13.86719,4.70711 -13.86719,7.27539 0,3.18604 2.48668,2.48386 11.73242,-3.31446 5.55035,-3.48082 7.34077,-4.67108 5.94922,-4.64648 z m -43.9668,1.79297 c -0.0842,-0.0159 -0.16412,-0.0145 -0.24023,0.006 -0.087,0.0231 -0.16885,0.0692 -0.24219,0.14258 -0.58662,0.58666 -0.53453,2.45321 0.11524,4.14648 0.71535,1.86417 4.10193,3.0781 8.58398,3.07813 7.95362,0 9.14575,-1.44369 4.42774,-5.35938 -2.28879,-1.89952 -3.71616,-1.72718 -6.19336,0.75 -2.86953,2.86955 -3.36258,2.84563 -4.54297,-0.23047 -0.55758,-1.45298 -1.31887,-2.42199 -1.90821,-2.5332 z m -20.1582,4.26367 c -0.77176,-0.0753 -0.19088,2.28615 1.83398,6.73047 1.75623,3.85444 3.5814,4.85993 7.4668,4.11719 2.82829,-0.54068 5.14258,-1.8864 5.14258,-2.99219 0,-1.10581 0.95948,-1.41852 2.13281,-0.69336 1.17334,0.72516 2.13477,-0.17857 2.13477,-2.00781 0,-4.00058 -2.86113,-4.23856 -8.50977,-0.71094 -3.52298,2.20015 -4.68973,1.94555 -7.37109,-1.60156 -1.41776,-1.87552 -2.36702,-2.79664 -2.83008,-2.8418 z m 218.17578,0.17578 c -0.28813,0.13471 -0.48437,2.28992 -0.48437,5.91992 0,5.28 0.41535,7.44078 0.92383,4.80078 0.50841,-2.64 0.50841,-6.96156 0,-9.60156 -0.1589,-0.825 -0.30849,-1.18037 -0.43946,-1.11914 z m -175.20703,2.33399 c -2.65323,0.0248 -9.32617,4.19118 -9.32617,6.23242 0,2.44606 2.73345,1.83925 7.3125,-1.625 2.26101,-1.71057 3.55313,-3.66755 2.87305,-4.34766 -0.18383,-0.18382 -0.48035,-0.26331 -0.85938,-0.25976 z m -58.33008,1.55273 c 0.0632,0.009 0.10123,0.0441 0.11328,0.10352 2.20709,10.86995 1.90425,11.5364 -7.1289,15.66406 -4.97528,2.27345 -9.76649,4.51222 -10.64649,4.97656 -1.89694,1.00092 -1.99848,0.79939 -2.64258,-5.27148 -0.37379,-3.52421 1.12176,-5.26035 6,-6.96094 3.57417,-1.24597 8.24156,-3.84234 10.3711,-5.76953 1.86332,-1.68629 3.49127,-2.80678 3.93359,-2.74219 z m 43.57813,4.87695 c -1.70838,0 -3.10742,0.80151 -3.10742,1.7793 0,0.97777 0.90372,1.77734 2.00781,1.77734 1.10408,0 2.50118,-0.79957 3.10547,-1.77734 0.60431,-0.97779 -0.29747,-1.7793 -2.00586,-1.7793 z m -12.58203,4.25196 c -0.34063,-0.0201 -0.75141,0.0992 -1.19141,0.37109 -1.17333,0.72516 -2.13281,2.27784 -2.13281,3.45117 0,1.17334 0.95948,1.54157 2.13281,0.81641 1.17333,-0.72516 2.13281,-2.27979 2.13281,-3.45313 0,-0.73333 -0.3737,-1.15203 -0.9414,-1.18554 z m -25.40821,8.8457 c 0.87845,0.0455 1.67651,0.73953 2.8086,2.10351 2.24418,2.70407 1.69806,3.56388 -3.42578,5.38672 -3.3542,1.19328 -7.76727,3.12992 -9.80469,4.30274 -4.57284,2.63234 -7.41846,2.71028 -8.94141,0.24609 -0.641,-1.03716 1.94181,-3.11444 5.74024,-4.61719 3.79842,-1.50274 8.44888,-4.0384 10.33398,-5.63476 1.45265,-1.23016 2.41061,-1.83263 3.28906,-1.78711 z m 334.54883,4.66992 c -0.97545,-0.0409 -1.79868,0.2896 -2.29687,1.0957 -0.94597,1.53059 -0.53717,1.82741 1.11132,0.8086 1.59655,-0.98671 2.45325,-0.49557 2.21094,1.26953 -0.2176,1.5844 -0.28167,4.08216 -0.14258,5.54883 0.13901,1.46666 2.08154,2.66601 4.31836,2.66601 2.86569,0 3.7699,-1.13477 3.0625,-3.83984 -1.03702,-3.96554 -5.33731,-7.42622 -8.26367,-7.54883 z m 10.03711,4.04688 c -0.0738,-0.0188 -0.12541,-0.0133 -0.15625,0.0176 -0.4935,0.49351 0.69618,2.65959 2.64453,4.8125 4.41558,4.87915 4.66199,8.22996 0.3418,4.64454 -2.38464,-1.97901 -3.19922,-2.013 -3.19922,-0.13477 0,1.3863 -0.95948,1.92633 -2.13281,1.20117 -2.94309,-1.81892 -2.67311,0.55219 0.5332,4.68164 5.5706,7.17445 23.84529,23.80632 25.22266,22.95508 0.79191,-0.48943 4.01092,1.49294 7.15234,4.4043 10.17201,9.42711 8.82885,5.60507 -2.05469,-5.84571 -5.82257,-6.12601 -11.51885,-11.83341 -12.6582,-12.68359 -1.13935,-0.85018 -1.52212,-2.09507 -0.84961,-2.76758 0.67249,-0.67251 7.76467,5.03487 15.75977,12.6836 7.99509,7.6487 15.3478,13.90625 16.33984,13.90625 0.99204,0 -3.25449,-4.55948 -9.43555,-10.13282 -6.18103,-5.57333 -16.98117,-16.54292 -24.00195,-24.37695 -6.58196,-7.3444 -12.39807,-13.08335 -13.50586,-13.36523 z m -6.89453,0.9414 c 1.24258,0 2.25781,0.96143 2.25781,2.13477 0,1.17333 -0.42203,2.13281 -0.93945,2.13281 -0.51742,0 -1.5346,-0.95948 -2.25977,-2.13281 -0.72516,-1.17334 -0.30117,-2.13477 0.94141,-2.13477 z m 26.27734,11.01172 c -0.29178,-0.0344 -0.47037,0.13857 -0.48437,0.54102 -0.0836,2.40569 26.31271,28.10729 31.98437,31.14257 3.33383,1.78422 3.88044,1.5854 2.8711,-1.04492 -0.68581,-1.78715 -0.21323,-3.25 1.04883,-3.25 1.28168,0 1.6941,-1.64698 0.93359,-3.73242 -1.22225,-3.35159 -0.88951,-3.31835 3.26562,0.33008 4.82471,4.23631 6.45391,9.04851 2.16602,6.39844 -1.57387,-0.97272 -1.88227,-0.58057 -0.85352,1.08398 0.88544,1.43262 2.07367,2.13922 2.64063,1.57227 0.56695,-0.56694 2.96778,0.90527 5.33398,3.27148 5.85082,5.85082 10.03908,1.87523 4.65235,-4.41601 -2.12282,-2.47928 -5.08474,-4.50782 -6.58399,-4.50782 -1.49924,0 -2.75606,-0.71961 -2.79297,-1.59961 -0.0369,-0.88 -2.59594,-3.44346 -5.68554,-5.69726 -3.0896,-2.25378 -4.92327,-2.97535 -4.07422,-1.60156 2.16951,3.51033 -1.15656,3.10648 -6.76563,-0.82227 -6.64883,-4.65702 -5.91564,-1.77499 1.125,4.42188 3.22665,2.83988 4.74319,5.1953 3.3711,5.23242 -2.37368,0.0642 -24.47187,-18.76234 -29.97071,-25.53321 -0.89333,-1.1 -1.69533,-1.73176 -2.18164,-1.78906 z m -180.27734,0.11524 c 5.20597,0.003 7.85713,0.45143 5.46484,1.50781 -6.49958,2.87006 -9.20703,8.89599 -9.20703,20.49609 0,10.82338 6.27259,22.33594 12.16797,22.33594 2.30142,0 1.59104,-1.37746 -2.2793,-4.42188 C 337.08334,370.04585 336,367.40144 336,359.88867 c 0,-12.40397 2.9646,-19.53474 8.94531,-21.51953 5.39085,-1.78904 34.68306,-1.52004 40.6543,0.37305 2.9827,0.94562 3.73014,3.6212 3.71094,13.30664 -0.0129,6.66758 -0.58949,15.53397 -1.2793,19.70312 l -1.25391,7.58008 -19.52148,-0.66406 c -23.57286,-0.80149 -19.02887,2.74712 5.5293,4.31836 l 16,1.02344 2.4082,-8.03321 c 1.32388,-4.41871 2.40625,-12.53847 2.40625,-18.04492 0,-6.13124 0.82634,-9.5008 2.13281,-8.69336 3.51215,2.17063 2.32531,20.70592 -1.92578,30.06641 -5.8679,12.92055 -11.97113,14.93528 -77.00586,25.42578 -11.14667,1.79801 -23.4742,4.31136 -27.39258,5.58398 -3.91835,1.27262 -10.12453,1.71221 -13.79297,0.97852 -6.26314,-1.25263 -6.41497,-1.13973 -2.47656,1.83789 3.2285,2.44087 3.45735,3.22099 0.99414,3.38867 -2.18357,0.14861 -1.84502,0.80478 1.06641,2.06641 2.79889,1.21286 0.59881,1.46717 -6.39844,0.74023 -6.97711,-0.72484 -9.68496,-0.41321 -7.82812,0.90039 2.09847,1.48453 0.9849,2.44966 -4.26758,3.69922 -6.05649,1.44085 -6.3961,1.82137 -2.30469,2.58203 2.64,0.49082 4.79883,1.78718 4.79883,2.87891 0,6.33092 -19.82598,-1.57745 -31.65234,-12.625 -6.7717,-6.32572 -6.80291,-6.45269 -5.45704,-22.00977 1.93018,-22.31106 6.57112,-31.99798 17.0293,-35.54883 4.59132,-1.5588 15.23341,-6.11119 23.65039,-10.11718 8.41698,-4.00602 20.89802,-8.7891 27.73438,-10.62891 9.69782,-2.60986 33.51757,-4.76582 44.9707,-4.75976 z m 167.12305,0.76367 c 1.67297,0.0268 3.83482,0.76162 5.45898,1.94922 2.16553,1.58349 3.3322,3.48222 2.59375,4.2207 -0.73847,0.73847 -2.89721,-0.21164 -4.79687,-2.11133 -1.8997,-1.89969 -3.45313,-2.4251 -3.45313,-1.16797 0,1.25715 -0.95948,2.28516 -2.13281,2.28516 -3.19928,0 -2.56976,-3.6419 0.85742,-4.95703 0.41149,-0.15791 0.915,-0.22769 1.47266,-0.21875 z m 0.21289,6.27539 c 0.97126,-0.11144 4.93239,3.07397 9.18945,7.43359 10.75727,11.01645 8.95982,12.79983 -2.01562,2 -4.6284,-4.5543 -7.9261,-8.76921 -7.32813,-9.36719 0.0374,-0.0374 0.0895,-0.059 0.1543,-0.0664 z m 298.17968,5.29492 c 0.3374,-0.0871 -0.29251,0.77056 -1.78515,2.67383 -1.61035,2.05333 -3.28944,3.73242 -3.73242,3.73242 -1.75582,0 -0.62587,-1.75214 2.92773,-4.53906 1.48032,-1.16095 2.32743,-1.79945 2.58984,-1.86719 z m 119.06836,0.39258 c -1.54997,0.12333 -1.86799,2.12529 0.41407,4.875 1.47473,1.77694 3.29131,9.71898 4.03711,17.65039 l 1.35742,14.42187 0.63281,-15.82421 c 0.47968,-11.97159 -0.15644,-16.61348 -2.61523,-19.07227 -1.52276,-1.52275 -2.89619,-2.12478 -3.82618,-2.05078 z m -128.14062,9.61133 c 0.99849,-0.1148 0.12008,4.31899 -2.86719,12.54882 -2.778,7.65327 -5.05078,17.17416 -5.05078,21.15821 0,6.96341 -2.84722,11.51785 -5.01172,8.01562 -1.44631,-2.34016 4.59565,-27.66046 8.31836,-34.85937 2.3672,-4.57766 3.92815,-6.78474 4.61133,-6.86328 z m 21.94922,11.33593 c 1.17333,0 2.13281,0.90373 2.13281,2.00782 0,1.10408 -0.95948,2.60101 -2.13281,3.32617 -1.17334,0.72516 -2.13477,-0.17857 -2.13477,-2.00781 0,-1.82925 0.96143,-3.32618 2.13477,-3.32618 z m -359.75586,2.8711 c -0.32335,-0.049 -0.54538,0.73189 -0.60938,2.28515 -0.0926,2.24888 0.41219,3.50772 1.1211,2.79883 0.7088,-0.7089 0.78422,-2.5479 0.16797,-4.08789 -0.25538,-0.63818 -0.48568,-0.96672 -0.67969,-0.99609 z m 241.23047,2.11328 c 0.34062,-0.0337 0.7514,0.0777 1.1914,0.34961 1.17334,0.72516 2.13282,1.74039 2.13282,2.25781 0,0.51742 -0.95948,0.94141 -2.13282,0.94141 -1.17333,0 -2.13281,-1.01719 -2.13281,-2.25977 0,-0.77661 0.3737,-1.23287 0.94141,-1.28906 z m 6.12109,5.88086 c 0.24747,-0.0179 0.8126,0.45032 1.73438,1.36523 1.45766,1.44713 2.11386,3.16934 1.45703,3.82617 -0.65684,0.65684 -1.84926,-0.52701 -2.65039,-2.63085 -0.65122,-1.71024 -0.8592,-2.53755 -0.54102,-2.56055 z m -245.16211,2.58984 c -0.0372,-0.007 -0.0688,0.002 -0.0937,0.0274 -1.39253,1.39253 6.14295,23.862 8.49609,25.33398 3.44131,2.15255 4.16076,0.57629 1.79688,-3.94141 -1.13417,-2.16759 -3.75041,-8.03261 -5.81445,-13.03125 -1.93504,-4.6862 -3.82697,-8.28575 -4.38477,-8.38867 z m 93.39649,21.92774 c 0.99436,-0.11638 3.51712,1.15493 6.06835,3.11523 2.91582,2.24032 4.28538,4.09507 3.04297,4.12109 -3.08317,0.0648 -10.79983,-5.7392 -9.43945,-7.09961 0.0753,-0.0752 0.18607,-0.12009 0.32813,-0.13671 z m -282.14063,11.81445 c -0.74111,-0.0305 -1.58743,0.10398 -2.35742,0.41211 -1.70183,0.681 -1.19617,1.18666 1.28906,1.28906 2.24888,0.0926 3.50967,-0.41221 2.80078,-1.12109 -0.35445,-0.3544 -0.99131,-0.54957 -1.73242,-0.58008 z m 205.89258,1.86914 c -0.58667,0 -0.0391,1.92091 1.2168,4.26758 1.25589,2.34666 2.76489,4.26562 3.35156,4.26562 0.58666,0 0.0391,-1.91896 -1.2168,-4.26562 -1.25589,-2.34667 -2.76489,-4.26758 -3.35156,-4.26758 z m -55.41211,1.85742 c -0.56693,0.15037 -0.76567,3.03253 -0.83594,9.46875 -0.0744,6.81592 0.61623,11.92805 1.53321,11.36133 2.51854,-1.55661 2.89669,-13.03275 0.61718,-18.72461 -0.50726,-1.26663 -0.89617,-1.99767 -1.19531,-2.09961 -0.0411,-0.014 -0.0813,-0.0158 -0.11914,-0.006 z m 515.34375,9.60547 c -1.44165,4.70797 -1.40972,29.33812 0,37.06055 z m -417.41797,6.24219 c -0.55535,0.0559 -0.079,0.81587 1.33008,2.51367 3.07228,3.70185 4.30664,4.08713 4.30664,1.34375 0,-1.04781 -1.576,-2.51095 -3.50195,-3.25 -1.09799,-0.42134 -1.80156,-0.64096 -2.13477,-0.60742 z m 16.05273,1.49414 c -1.17324,0 -1.54156,0.96143 -0.8164,2.13476 0.72516,1.17334 2.27979,2.13282 3.45312,2.13282 1.17334,0 1.53962,-0.95948 0.81446,-2.13282 -0.72517,-1.17333 -2.27784,-2.13476 -3.45118,-2.13476 z m 15.66993,1.1289 c -0.13216,0.007 -0.23401,0.0426 -0.29883,0.10743 -0.51855,0.51852 0.90891,2.34216 3.16992,4.05273 2.26101,1.71055 5.07081,3.11824 6.24414,3.12891 1.17333,0.0112 -0.25217,-1.81242 -3.16797,-4.05274 -2.55132,-1.9603 -5.02217,-3.28335 -5.94726,-3.23633 z m -64.11719,0.0234 c -0.27495,-0.0269 -0.36914,0.19779 -0.36914,0.58789 0,1.25157 0.99982,2.89195 2.2207,3.64649 1.22089,0.75454 4.48702,4.96427 7.25781,9.35351 2.77082,4.38925 8.51961,11.673 12.77539,16.18555 6.11919,6.48821 8.28224,7.6545 10.3418,5.57422 2.05323,-2.07388 1.79633,-3.08818 -1.21875,-4.78906 -2.10346,-1.18661 -6.60846,-5.20662 -10.00976,-8.9336 -15.20451,-16.66028 -19.80659,-21.50847 -20.99805,-21.625 z m 84.44531,3.11133 c -2.01056,-0.1549 -1.00986,2.80799 4.28711,8.37305 5.27646,5.54353 8.68647,7.65642 10.09961,6.25781 1.41685,-1.40228 -0.20687,-4.21334 -4.83398,-8.36914 -4.60338,-4.1345 -7.98897,-6.14124 -9.55274,-6.26172 z m -27.33984,0.004 c -1.24258,0 -1.66657,0.95948 -0.94141,2.13281 0.72516,1.17333 1.74235,2.13281 2.25977,2.13281 0.51742,0 0.9414,-0.95948 0.9414,-2.13281 0,-1.17333 -1.01718,-2.13281 -2.25976,-2.13281 z m -15.89649,0.11914 c -0.9949,0.0472 1.81816,2.28412 8.55664,6.28125 5.86667,3.47998 11.6255,6.32794 12.79883,6.33008 2.60229,0.005 -1.6527,-2.98093 -12.18164,-8.54688 -5.3233,-2.81408 -8.40001,-4.10117 -9.17383,-4.06445 z m 21.90039,4.14648 c -1.19003,0 -0.95996,1.41613 0.52149,3.20117 1.46067,1.76 3.61573,3.19922 4.78906,3.19922 1.19004,0 0.95997,-1.41417 -0.52148,-3.19922 -1.46068,-1.76 -3.61573,-3.20117 -4.78907,-3.20117 z m -24.38867,0.4375 c -0.43976,-0.0557 -0.68945,0.24569 -0.68945,0.91406 0,1.21246 0.63965,2.84475 1.42187,3.62696 0.78221,0.78223 1.91917,0.92654 2.5254,0.32031 0.60613,-0.60621 -0.0334,-2.23849 -1.42188,-3.62695 -0.7654,-0.7654 -1.39618,-1.17863 -1.83594,-1.23438 z m 39.25782,0.008 c -0.37308,0.007 -0.6819,0.11354 -0.9004,0.33204 -0.87396,0.87394 -0.17718,2.48265 1.54883,3.57421 5.19375,3.28463 7.50223,2.29913 3.64649,-1.55664 -1.48764,-1.48755 -3.1758,-2.36999 -4.29492,-2.34961 z m -329.20313,1.68946 c -2.32947,0 -0.48885,10.74943 2.32227,13.56054 1.76,1.76 3.20117,4.2292 3.20117,5.48633 0,1.25715 0.95948,2.28516 2.13281,2.28516 1.17333,0 2.13281,-0.65608 2.13281,-1.45899 0,-2.11176 -8.74874,-19.87304 -9.78906,-19.87304 z m 297.12109,4.26562 c -1.25393,0 -0.41626,1.41022 1.86133,3.13281 5.3514,4.0476 6.39625,4.07114 3.07422,0.0684 -1.46067,-1.76 -3.68164,-3.20117 -4.93555,-3.20117 z m 28.40235,0 c -1.17334,0 -2.13477,0.96143 -2.13477,2.13477 0,1.17333 0.96143,2.13281 2.13477,2.13281 1.17333,0 2.13281,-0.95948 2.13281,-2.13281 0,-1.17334 -0.95948,-2.13477 -2.13281,-2.13477 z m -4.39258,10.66797 c -1.24258,0 -1.66657,0.95948 -0.94141,2.13281 0.72517,1.17334 1.74235,2.13282 2.25977,2.13282 0.51742,0 0.93945,-0.95948 0.93945,-2.13282 0,-1.17333 -1.01523,-2.13281 -2.25781,-2.13281 z m 138.11914,2.99414 c -0.31207,0.0397 -0.81087,0.82512 -1.46094,2.33789 -1.0084,2.34667 -1.83203,5.7068 -1.83203,7.4668 0,2.01702 0.67636,1.62296 1.83203,-1.06641 1.00841,-2.34666 1.83399,-5.70679 1.83399,-7.46679 0,-0.88245 -0.13033,-1.3024 -0.37305,-1.27149 z m -10.93359,3.4043 c -0.51742,0 -1.53461,0.96143 -2.25977,2.13476 -0.72516,1.17334 -0.30313,2.13282 0.93945,2.13282 1.24259,0 2.25977,-0.95948 2.25977,-2.13282 0,-1.17333 -0.42204,-2.13476 -0.93945,-2.13476 z m -443.73438,4.74219 c -1.24985,0.12242 -3.55493,3.57786 -5.24219,8.58789 l -2.33593,6.9375 4.21289,-5.33399 c 2.31667,-2.93333 4.23178,-6.58908 4.25781,-8.125 0.0253,-1.48891 -0.32447,-2.12205 -0.89258,-2.0664 z m 186.54102,1.6582 c -2.71962,0 -2.72073,4.57665 -0.004,11.72266 3.0396,7.99479 6.56051,4.79668 4.11328,-3.73633 -1.08689,-3.78978 -1.97656,-7.13643 -1.97656,-7.4375 0,-0.30108 -0.95948,-0.54883 -2.13281,-0.54883 z m 252.94922,2.13281 c -0.58667,0 -2.09372,1.92091 -3.34961,4.26758 -1.25583,2.34667 -1.80347,4.26758 -1.2168,4.26758 0.58667,0 2.09372,-1.92091 3.34961,-4.26758 1.25583,-2.34667 1.80346,-4.26758 1.2168,-4.26758 z m 8.09375,9.27149 c -0.32335,-0.049 -0.54343,0.73189 -0.60743,2.28515 -0.0926,2.24888 0.41026,3.50967 1.11914,2.80078 0.7088,-0.7089 0.78618,-2.54985 0.16993,-4.08984 -0.25538,-0.63818 -0.48764,-0.96672 -0.68164,-0.99609 z m -334.93946,8.25195 c -0.78728,-0.0212 -0.85842,1.11264 -0.24023,3.47656 0.66163,2.53014 0.33302,4.60156 -0.73047,4.60156 -1.06349,0 -1.91746,1.67909 -1.90039,3.73243 0.0279,3.1856 0.3314,3.26372 2.07226,0.5332 1.40186,-2.19874 1.6702,-0.52935 0.85743,5.33398 -0.88613,6.39254 -0.61033,7.73119 1.0957,5.33399 3.05864,-4.29788 2.96651,-20.69753 -0.12695,-22.60938 -0.42299,-0.26142 -0.76492,-0.39528 -1.02735,-0.40234 z m -61.85937,0.28125 c -0.32335,-0.049 -0.54538,0.73189 -0.60938,2.28516 -0.0926,2.24887 0.41219,3.50966 1.1211,2.80078 0.7088,-0.70891 0.78422,-2.54986 0.16796,-4.08985 -0.25528,-0.63818 -0.48567,-0.96671 -0.67968,-0.99609 z m 392.89844,6.51172 c -0.65015,0.15452 -1.47142,1.21501 -2.07227,2.79297 -1.15772,3.04042 -0.91356,3.28458 1.19336,1.19336 1.45766,-1.44713 2.11386,-3.16739 1.45703,-3.82422 -0.16421,-0.16421 -0.3615,-0.21362 -0.57812,-0.16211 z M 896,503.29492 v 52.03711 c 0,28.62112 0.77771,61.39789 1.72852,72.83789 1.06457,12.80905 0.95778,20.80078 -0.2793,20.80078 -1.10488,0 -4.50961,-3.27615 -7.56445,-7.28125 -3.05485,-4.0051 -6.76754,-8.56653 -8.25196,-10.13476 -1.48441,-1.56824 -3.95469,-5.25026 -5.48828,-8.1836 -7.20956,-13.78991 -17.33605,-20.8402 -31.33008,-21.81054 -7.10323,-0.49253 -9.01832,-1.65334 -11.52929,-6.99024 -1.65613,-3.52 -3.5824,-6.88013 -4.28125,-7.46679 -0.69888,-0.58667 -2.81264,-4.42654 -4.69727,-8.53321 -2.7881,-6.07539 -3.24404,-12.80727 -2.44336,-36.13086 0.85841,-25.0052 0.53185,-28.99614 -2.5664,-31.26172 -1.9535,-1.42841 -2.70301,-3.1208 -1.66602,-3.76171 1.03701,-0.6409 19.09374,-1.83169 40.12695,-2.64454 z m -218.86523,5.29688 c -0.9784,-0.0111 -8.1219,12.82164 -8.2461,15.04492 -0.0492,0.88 0.43939,1.60156 1.08594,1.60156 1.30436,0 7.41076,-13.82998 7.26953,-16.46484 -0.007,-0.12186 -0.0442,-0.1809 -0.10937,-0.18164 z m 151.53515,1.71289 c -2.30125,0 -2.65758,32.14255 -0.62304,56.21093 0.75873,8.97705 2.06517,16.32227 2.90429,16.32227 2.44753,0 4.52345,-26.98283 3.17578,-41.2832 -2.34092,-24.84011 -3.45995,-31.25 -5.45703,-31.25 z m -483.35937,0.73828 c -0.32335,-0.049 -0.54538,0.72994 -0.60938,2.2832 -0.0926,2.24888 0.41219,3.50967 1.1211,2.80078 0.7088,-0.70888 0.78422,-2.54985 0.16796,-4.08984 -0.25537,-0.63818 -0.48567,-0.96476 -0.67968,-0.99414 z m 398.82031,27.19336 c -0.31818,0.023 -0.11215,0.85031 0.53906,2.56055 0.80113,2.10384 1.99551,3.28769 2.65235,2.63085 0.65683,-0.65683 9.3e-4,-2.37904 -1.45704,-3.82617 -0.92177,-0.91491 -1.4869,-1.38312 -1.73437,-1.36523 z M 640.125,602.03711 c -1.69075,0 -3.66742,0.95948 -4.39258,2.13281 -0.72516,1.17334 0.65831,2.13477 3.07422,2.13477 2.41592,0 4.39258,-0.96143 4.39258,-2.13477 0,-1.17333 -1.38347,-2.13281 -3.07422,-2.13281 z m -11.98438,4.26758 c -2.41582,0 -3.82436,0.91697 -3.13085,2.03906 0.69348,1.12209 2.67014,1.50079 4.39257,0.83984 4.40984,-1.69222 3.88937,-2.8789 -1.26172,-2.8789 z m 9.85157,6.40039 c -3.00258,0 -5.45899,0.95948 -5.45899,2.13281 0,1.17333 1.86321,2.13281 4.14063,2.13281 2.27742,0 4.73382,-0.95948 5.45898,-2.13281 0.74778,-1.20994 -1.04439,-2.13281 -4.14062,-2.13281 z m 3.07422,8.80859 c -0.96667,0 -1.93269,0.14941 -2.66602,0.44531 -1.46667,0.59181 -0.26732,1.07422 2.66602,1.07422 2.93333,0 4.13268,-0.48241 2.66601,-1.07422 -0.73333,-0.2959 -1.69935,-0.44531 -2.66601,-0.44531 z m 6.40039,8.53321 c -0.96667,0 -1.93269,0.1494 -2.66602,0.44531 -1.46667,0.59181 -0.26732,1.07422 2.66602,1.07422 2.93333,0 4.13268,-0.48241 2.66601,-1.07422 -0.73333,-0.29591 -1.69935,-0.44533 -2.66601,-0.44531 z m 219.55859,21.05664 c -3.14805,0 -2.31902,2.32534 3.58984,10.07226 3.05182,4.00115 6.04058,6.78365 6.64258,6.18164 1.49794,-1.49794 -7.79135,-16.2539 -10.23242,-16.2539 z m 66.35547,59.44726 c -0.12975,0.0976 -0.27097,0.19275 -0.43359,0.2832 h 0.43359 z"
       transform="matrix(0.93750001,0,0,0.93750001,-320.66853,-215.88763)"
       id="path33141"
       inkscape:connector-curvature="0" />
  </g>
</svg>
