<?xml version="1.0" encoding="UTF-8" standalone="no"?>
<!-- Created with Inkscape (http://www.inkscape.org/) -->

<svg
   xmlns:dc="http://purl.org/dc/elements/1.1/"
   xmlns:cc="http://creativecommons.org/ns#"
   xmlns:rdf="http://www.w3.org/1999/02/22-rdf-syntax-ns#"
   xmlns:svg="http://www.w3.org/2000/svg"
   xmlns="http://www.w3.org/2000/svg"
   xmlns:sodipodi="http://sodipodi.sourceforge.net/DTD/sodipodi-0.dtd"
   xmlns:inkscape="http://www.inkscape.org/namespaces/inkscape"
   width="520mm"
   height="355mm"
   viewBox="0 0 1842.5197 1257.874"
   id="svg14181"
   version="1.1"
   inkscape:version="0.91 r13725"
   sodipodi:docname="peacethroughbloodspilled.svg">
  <defs
     id="defs14183" />
  <sodipodi:namedview
     id="base"
     pagecolor="#ffffff"
     bordercolor="#666666"
     borderopacity="1.0"
     inkscape:pageopacity="0.0"
     inkscape:pageshadow="2"
     inkscape:zoom="0.11317157"
     inkscape:cx="1407.2307"
     inkscape:cy="642.91737"
     inkscape:document-units="px"
     inkscape:current-layer="g15073"
     showgrid="false"
     fit-margin-top="0"
     fit-margin-left="0"
     fit-margin-right="0"
     fit-margin-bottom="0"
     inkscape:window-width="1916"
     inkscape:window-height="1035"
     inkscape:window-x="4"
     inkscape:window-y="1"
     inkscape:window-maximized="1" />
  <metadata
     id="metadata14186">
    <rdf:RDF>
      <cc:Work
         rdf:about="">
        <dc:format>image/svg+xml</dc:format>
        <dc:type
           rdf:resource="http://purl.org/dc/dcmitype/StillImage" />
        <dc:title></dc:title>
        <dc:creator>
          <cc:Agent>
            <dc:title>j4p4n</dc:title>
          </cc:Agent>
        </dc:creator>
        <cc:license
           rdf:resource="http://creativecommons.org/publicdomain/zero/1.0/" />
      </cc:Work>
      <cc:License
         rdf:about="http://creativecommons.org/publicdomain/zero/1.0/">
        <cc:permits
           rdf:resource="http://creativecommons.org/ns#Reproduction" />
        <cc:permits
           rdf:resource="http://creativecommons.org/ns#Distribution" />
        <cc:permits
           rdf:resource="http://creativecommons.org/ns#DerivativeWorks" />
      </cc:License>
    </rdf:RDF>
  </metadata>
  <g
     inkscape:label="Layer 1"
     inkscape:groupmode="layer"
     id="layer1"
     transform="translate(999.48291,801.99066)">
    <g
       transform="translate(-446.93352,-460.4414)"
       id="layer1-4"
       inkscape:label="Layer 1">
      <g
         id="g15073"
         transform="translate(34,-8)">
        <g
           id="g15207">
          <g
             transform="translate(888.54822,-491.82643)"
             id="layer1-5"
             inkscape:label="Layer 1">
            <g
               transform="matrix(1.9761371,0,0,1.9319942,969.96787,-261.58317)"
               id="g42412">
              <g
                 transform="translate(48.500597,-57.581592)"
                 id="g42416">
                <g
                   id="g15025">
                  <path
                     style="opacity:1;fill:none;fill-opacity:1;fill-rule:evenodd;stroke:#d82c2c;stroke-width:40.83322525;stroke-linecap:round;stroke-linejoin:round;stroke-miterlimit:4;stroke-dasharray:none;stroke-opacity:1"
                     d="m -580.59555,512.36215 c 0,111.70603 -97.50704,193.69023 -203.69021,193.69023 -106.18316,0 -189.40448,-90.55563 -189.40448,-202.26166 0,-77.20226 41.74488,-146.95971 104.72558,-181.0457 28.14777,-15.23394 63.30961,-21.21596 96.10748,-21.21596 59.68819,0 115.62187,26.00738 150.88609,73.27968 27.46956,36.82342 41.37554,88.64012 41.37554,137.55341 z"
                     id="path42403"
                     inkscape:connector-curvature="0"
                     sodipodi:nodetypes="sssssss" />
                  <path
                     style="fill:#d82c2c;fill-opacity:1;fill-rule:evenodd;stroke:none;stroke-width:1px;stroke-linecap:butt;stroke-linejoin:miter;stroke-opacity:1"
                     d="m -750.0278,312.5074 -64.25736,2.71135 19.42383,169.26367 c -44.84774,60.71767 -97.11998,92.4428 -162.28125,125.02344 l 34.28516,42.85547 127.79398,-128.57031 0.77828,2.85742 c 8.865,67.85992 -8.2407,118.46972 -29.17917,181.28354 l 97.74949,-4.14096 c -36.64485,-55.80986 -31.28602,-115.75298 -34.42622,-180.22079 l 116.54731,110.99813 38.74499,-36.09256 C -665.59719,570.49556 -709.69821,530.11499 -759.62109,486.41602 L -760,475.21875 Z m 102.96972,325.60444 -4.36965,2.82175 2.50774,2.258 z"
                     id="path42406"
                     inkscape:connector-curvature="0"
                     sodipodi:nodetypes="ccccccccccccccccccc" />
                  <path
                     sodipodi:nodetypes="csscsssscccccccccsssssssscssssssssssscsssssssssccssssssssssscc"
                     inkscape:connector-curvature="0"
                     id="path15005"
                     d="m -856.95477,777.70574 c -3.65256,-1.04856 -4.4577,-4.40502 -2.79363,-11.64574 0.45146,-1.9644 1.61103,-16.8153 1.68792,-22.0914 0.12863,-8.82959 -0.008,-9.79922 -1.71787,-12.18531 -1.08198,-1.50994 -2.97549,-3.00908 -4.53479,-3.59034 -1.47245,-0.54889 -4.84536,-2.54629 -7.49538,-4.4387 -5.15639,-3.68222 -7.05719,-4.13494 -9.45038,-2.25076 -1.32883,1.04621 -1.42867,1.78733 -0.82636,6.1335 1.1875,8.56865 0.72356,9.99718 -3.25446,10.02066 -2.30939,0.0136 -6.28468,-3.33717 -6.58508,-5.55061 -0.14339,-1.05606 0.066,-3.35692 0.46519,-5.11301 0.51646,-2.27214 0.43961,-3.39379 -0.26652,-3.88953 -22.22065,8.80612 -6.74183,-11.30988 -16.26817,-16.13227 -18.33446,-22.93015 -12.47335,-26.26201 -5.03558,-52.96415 l 135.90207,48.35373 156.99335,-51.32934 c -9.66415,24.56317 -21.71396,44.8789 -35.63702,66.79465 l -2.96917,0.69822 c -4.92776,1.15875 -6.62512,4.51433 -5.14209,10.16562 1.79071,6.8237 1.71218,8.20415 -0.55877,9.82221 -2.54278,1.81174 -5.61725,1.99552 -7.57661,0.4529 -1.65307,-1.30149 -1.73148,-3.0434 -0.41451,-9.20845 1.34524,-6.29728 0.24066,-9.06534 -4.01692,-10.06652 -3.79087,-0.89141 -5.12971,-0.0928 -6.01102,3.58557 -1.32014,5.50984 -5.40663,4.47781 -11.73326,-2.96316 -4.19373,-4.93238 -4.79728,-5.36291 -7.53711,-5.37635 -2.57947,-0.0126 -3.91153,2.09354 -5.95205,9.41099 -0.94002,3.37096 -2.66202,7.61204 -3.82669,9.42463 -3.3827,5.26457 -6.46775,4.47537 -12.3369,-3.15598 -2.48206,-3.22728 -5.0816,-3.82194 -8.0848,-1.84943 -2.77609,1.82334 -4.90763,14.6293 -5.9748,19.3508 -0.98191,4.3442 -2.78121,5.99736 -6.61203,6.07496 -5.20127,0.10533 -6.74706,-1.94154 -9.36035,-12.39477 -2.7491,-10.99652 -3.30879,-23.76697 -6.13612,-22.97804 -1.44693,0.40375 -3.93596,4.10888 -4.62097,6.8787 -0.28488,1.15189 -1.43293,3.23877 -2.55124,4.63751 -1.68496,2.10748 -2.46619,2.54316 -4.56025,2.54316 -2.14019,0 -2.71634,-0.34345 -3.76421,-2.24396 -2.58321,-4.685 -3.98123,-5.15658 -7.50907,-2.53292 -2.17226,1.61549 -2.2476,1.88594 -1.85886,6.67106 0.22285,2.74302 0.87654,7.50466 1.45266,10.58142 0.98018,5.2347 0.94639,5.66479 -0.52603,6.69416 -2.73432,1.91153 -5.83637,2.08212 -8.13104,0.44715 -3.05414,-2.1761 -3.41436,-5.67433 -1.50138,-14.58047 0.91311,-4.25106 1.44299,-8.53703 1.17754,-9.52436 -0.94278,-3.50653 -3.6166,-4.1982 -3.6166,-0.93555 0,3.67351 -4.59328,3.993 -6.99783,0.48675 -1.59712,-2.3289 -3.60797,-2.9213 -4.47179,-1.3174 -0.27445,0.50961 0.0953,2.41479 0.82141,4.23373 1.46762,3.67589 0.90858,5.71772 -1.85393,6.77113 -2.69122,1.02622 -5.71668,0.73523 -8.20381,-0.78906 -2.05057,-1.25676 -2.36285,-1.92384 -2.6611,-5.6847 -0.39659,-5.00061 -1.32305,-5.36208 -5.55291,-2.16652 -3.19454,2.41341 -4.1401,2.55191 -6.12811,0.89758 -1.67234,-1.39162 -4.27394,-1.57373 -4.93544,-0.34546 -1.02162,1.8969 -3.23283,1.65267 -5.95999,-0.65825 -3.21737,-2.7263 -4.09338,-2.38168 -5.86393,2.30685 -2.25845,5.98057 -3.07606,22.78851 -1.00164,32.8674 1.7976,8.73377 1.82448,9.33926 0.49613,11.16952 -0.77247,1.06434 -2.35582,2.19286 -3.51853,2.50783 -2.46471,0.66768 -2.67356,0.66647 -5.09917,-0.0298 z"
                     style="fill:#d82c2c;fill-opacity:1" />
                  <path
                     style="fill:#d82c2c;fill-opacity:1"
                     d="m -991.54356,655.21974 c -1.5423,-2.48353 -0.056,-5.53683 5.1558,-10.59399 1.41411,-1.37199 5.13031,-5.92744 8.25821,-10.1232 5.2348,-7.02146 3.53534,1.06375 3.92384,-1.61598 0.2439,-1.69722 0,-3.75088 -0.5776,-4.91822 -0.548,-1.10233 0.81096,-13.14768 0.35326,-15.85683 -0.8908,-5.27154 -1.7477,-6.48942 -4.2603,-6.05499 -1.3953,0.24117 -1.8872,0.79047 -4.0711,4.54611 -4.30571,7.40436 -5.41391,8.34113 -7.77451,6.57082 -1.3704,-1.02773 -1.7579,-5.50228 -0.6419,-7.41209 0.5324,-0.91123 2.0005,-2.66161 3.2617,-3.89036 1.6321,-1.58958 2.24211,-2.52345 2.11521,-3.23848 -18.25425,-2.93313 2.6303,-12.10045 -0.1722,-20.25147 2.5803,-26.63134 -5.83374,-11.04481 14.15496,-29.10928 l 51.9255,99.89238 105.15326,49.53818 c -20.05241,15.34816 -21.57583,6.13238 -42.59406,17.44239 l -2.15961,-0.77557 c -3.58416,-1.2872 -6.54602,0.63989 -8.97285,5.83808 -2.9303,6.27659 -3.78317,7.3481 -6.06827,7.62409 -2.55863,0.30902 -4.4798,-0.92638 -4.73446,-3.04448 -0.21485,-1.78701 0.7566,-3.21892 5.13548,-7.56972 4.47281,-4.44411 5.43839,-7.16032 3.51155,-9.87792 -1.71564,-2.41969 -2.97208,-2.38152 -5.6411,0.17141 -3.99794,3.82403 -5.80582,1.15863 -5.19087,-7.65294 0.40762,-5.84091 0.30309,-6.45755 -1.30543,-7.70058 -1.51441,-1.17023 -3.53078,-0.0806 -9.0098,4.86873 -2.52405,2.28004 -6.0178,4.90605 -7.76391,5.83556 -5.07146,2.69973 -6.43041,0.67943 -5.43434,-8.07903 0.42123,-3.70393 -0.76495,-5.34988 -3.68914,-5.11904 -2.70305,0.21339 -4.92861,1.49917 -8.31673,4.80488 -3.11738,3.04154 -5.14474,3.5578 -7.45009,1.89709 -3.13005,-2.25484 -2.84612,-4.59124 1.71944,-14.14794 4.80287,-10.05338 5.41998,-12.52107 3.29105,-13.16012 -1.08952,-0.32704 -4.72265,1.52427 -6.74504,3.43701 -0.84106,0.79545 -2.73761,1.95237 -4.21458,2.5709 -2.22534,0.93196 -2.94078,0.92992 -4.17617,-0.0119 -1.26262,-0.96256 -1.40186,-1.49706 -0.90969,-3.49217 1.21323,-4.91822 0.66398,-5.9251 -2.95016,-5.40812 -2.22538,0.31831 -2.42784,0.50127 -4.9942,4.5128 -1.47113,2.29957 -3.86747,6.41143 -5.32518,9.13748 -2.4801,4.638 -2.75131,4.96765 -4.22139,5.13076 -2.72993,0.30289 -4.65967,-0.95549 -5.05819,-3.29844 -0.53042,-3.1184 1.3009,-6.08528 7.63287,-12.36582 3.02237,-2.99781 5.83905,-6.19597 6.2593,-7.10699 1.49248,-3.23554 0.31915,-4.99268 -1.58705,-2.3767 -2.14624,2.9454 -5.04273,1.13572 -4.41278,-2.75703 0.41843,-2.58561 -0.42178,-3.96499 -1.86847,-3.06749 -0.45965,0.28517 -1.35463,1.97902 -1.98896,3.76401 -1.2818,3.60739 -2.80454,4.99309 -5.04975,4.59526 -2.18727,-0.38757 -0.16572,-5.70112 -0.74245,-8.04189 -0.4755,-1.92991 9.7515,-8.73042 9.7515,-8.73042 4.65577,-1.55473 2.35225,-4.89434 -2.01015,-4.23455 -3.2947,0.4983 -3.9334,0.1841 -4.1398,-2.03648 -0.1735,-1.86794 -1.6019,-3.18401 -2.7098,-2.49668 -1.7109,1.06144 -2.8728,-0.12889 -3.1316,-3.20837 -0.3052,-3.63295 -1.0233,-3.75059 -4.8072,-0.78769 -4.8265,3.77948 -7.30244,1.13103 -11.96724,10.1452 -4.0422,7.8112 -4.38,8.30878 -6.233,9.17884 -1.0776,0.50595 -2.67111,0.69868 -3.54101,0.4283 -1.8442,-0.57317 -1.9667,-0.66809 -2.9909,-2.31725 z"
                     id="path15007"
                     inkscape:connector-curvature="0"
                     sodipodi:nodetypes="csscsssscccccccccsssssssscssssssssssscsssssssssccssssssssssscc" />
                  <path
                     sodipodi:nodetypes="csscsssscccccccccsssssssscssssssssssscsssssssssccssssssssssscc"
                     inkscape:connector-curvature="0"
                     id="path15009"
                     d="m -574.37492,661.91487 c 1.5423,-2.48353 0.056,-5.53683 -5.1558,-10.59399 -1.41411,-1.37199 -5.13031,-5.92744 -8.25821,-10.1232 -5.2348,-7.02146 -3.53534,1.06375 -3.92384,-1.61598 -0.2439,-1.69722 0,-3.75088 0.5776,-4.91822 0.548,-1.10233 -0.81096,-13.14768 -0.35326,-15.85683 0.8908,-5.27154 1.7477,-6.48942 4.2603,-6.05499 1.3953,0.24117 1.8872,0.79047 4.0711,4.54611 4.30571,7.40436 5.41391,8.34113 7.77451,6.57082 1.3704,-1.02773 1.7579,-5.50228 0.6419,-7.41209 -0.5324,-0.91123 -2.0005,-2.66161 -3.2617,-3.89036 -1.6321,-1.58958 -2.24211,-2.52345 -2.11521,-3.23848 18.25425,-2.93313 4.64256,-18.79558 7.44506,-26.9466 -2.5803,-26.63134 -1.43912,-4.34968 -21.42782,-22.41415 l -51.9255,99.89238 -105.15326,49.53818 c 20.05241,15.34816 21.57583,6.13238 42.59406,17.44239 l 2.15961,-0.77557 c 3.58416,-1.2872 6.54602,0.63989 8.97285,5.83808 2.9303,6.27659 3.78317,7.3481 6.06827,7.62409 2.55863,0.30902 4.4798,-0.92638 4.73446,-3.04448 0.21485,-1.78701 -0.7566,-3.21892 -5.13548,-7.56972 -4.47281,-4.44411 -5.43839,-7.16032 -3.51155,-9.87792 1.71564,-2.41969 2.97208,-2.38152 5.6411,0.17141 3.99794,3.82403 5.80582,1.15863 5.19087,-7.65294 -0.40762,-5.84091 -0.30309,-6.45755 1.30543,-7.70058 1.51441,-1.17023 3.53078,-0.0806 9.0098,4.86873 2.52405,2.28004 6.0178,4.90605 7.76391,5.83556 5.07146,2.69973 6.43041,0.67943 5.43434,-8.07903 -0.42123,-3.70393 0.76495,-5.34988 3.68914,-5.11904 2.70305,0.21339 4.92861,1.49917 8.31673,4.80488 3.11738,3.04154 5.14474,3.5578 7.45009,1.89709 3.13005,-2.25484 2.84612,-4.59124 -1.71944,-14.14794 -4.80287,-10.05338 -5.41998,-12.52107 -3.29105,-13.16012 1.08952,-0.32704 4.72265,1.52427 6.74504,3.43701 0.84106,0.79545 2.73761,1.95237 4.21458,2.5709 2.22534,0.93196 2.94078,0.92992 4.17617,-0.0119 1.26262,-0.96256 1.40186,-1.49706 0.90969,-3.49217 -1.21323,-4.91822 -0.66398,-5.9251 2.95016,-5.40812 2.22538,0.31831 2.42784,0.50127 4.9942,4.5128 1.47113,2.29957 3.86747,6.41143 5.32518,9.13748 2.4801,4.638 2.75131,4.96765 4.22139,5.13076 2.72993,0.30289 4.65967,-0.95549 5.05819,-3.29844 0.53042,-3.1184 -1.3009,-6.08528 -7.63287,-12.36582 -3.02237,-2.99781 -5.83905,-6.19597 -6.2593,-7.10699 -1.49248,-3.23554 -0.31915,-4.99268 1.58705,-2.3767 2.14624,2.9454 5.04273,1.13572 4.41278,-2.75703 -0.41843,-2.58561 0.42178,-3.96499 1.86847,-3.06749 0.45965,0.28517 1.35463,1.97902 1.98896,3.76401 1.2818,3.60739 2.80454,4.99309 5.04975,4.59526 2.18727,-0.38757 0.16572,-5.70112 0.74245,-8.04189 0.4755,-1.92991 -9.7515,-8.73042 -9.7515,-8.73042 -4.65577,-1.55473 -2.35225,-4.89434 2.01015,-4.23455 3.2947,0.4983 3.9334,0.1841 4.1398,-2.03648 0.1735,-1.86794 1.6019,-3.18401 2.7098,-2.49668 1.7109,1.06144 2.8728,-0.12889 3.1316,-3.20837 0.3052,-3.63295 1.0233,-3.75059 4.8072,-0.78769 4.8265,3.77948 7.30244,1.13103 11.96724,10.1452 4.0422,7.8112 4.38,8.30878 6.233,9.17884 1.0776,0.50595 2.67111,0.69868 3.54101,0.4283 1.8442,-0.57317 1.9667,-0.66809 2.9909,-2.31725 z"
                     style="fill:#d82c2c;fill-opacity:1" />
                  <path
                     style="fill:#d82c2c;fill-opacity:1"
                     d="m -847.16772,374.65477 c -2.87345,-0.76035 -3.50685,-3.19421 -2.19773,-8.44467 0.35516,-1.42445 1.26739,-12.19327 1.32788,-16.01913 0.10119,-6.4026 -0.006,-7.1057 -1.35144,-8.83593 -0.85119,-1.0949 -2.3408,-2.18197 -3.5675,-2.60346 -1.15837,-0.39802 -3.81181,-1.84639 -5.89657,-3.21863 -4.0565,-2.67009 -5.55185,-2.99837 -7.43456,-1.6321 -1.04539,0.75864 -1.12393,1.29605 -0.6501,4.44759 0.9342,6.21338 0.56923,7.24925 -2.56026,7.26627 -1.81679,0.01 -4.94412,-2.41988 -5.18045,-4.02491 -0.1128,-0.76578 0.0519,-2.4342 0.36596,-3.70759 0.4063,-1.6476 0.34584,-2.46094 -0.20966,-2.82042 -17.48087,6.38558 -19.84949,20.06721 -27.3438,16.57035 -14.42362,-16.62733 14.91501,-12.34822 20.76626,-31.71073 l 96.7314,0.0993 83.50506,-15.64722 c -7.60273,17.81148 22.91849,10.96981 11.9653,26.86157 l -2.33583,0.5063 c -3.87665,0.84024 -5.21195,3.27347 -4.04526,7.37139 1.40874,4.94807 1.34697,5.94907 -0.43958,7.12238 -2.00039,1.31374 -4.41906,1.44701 -5.96048,0.32841 -1.30046,-0.94375 -1.36214,-2.20686 -0.32609,-6.67732 1.05829,-4.56635 0.18933,-6.57355 -3.16009,-7.29953 -2.98225,-0.64639 -4.03551,-0.0673 -4.72883,2.6 -1.03855,3.99535 -4.25337,3.24699 -9.23049,-2.14868 -3.29919,-3.57661 -3.774,-3.8888 -5.92941,-3.89855 -2.02925,-0.009 -3.07718,1.51809 -4.68244,6.82419 -0.73951,2.44438 -2.0942,5.51972 -3.01044,6.83408 -2.66115,3.81749 -5.08814,3.24522 -9.70537,-2.2885 -1.95262,-2.34019 -3.99767,-2.7714 -6.36027,-1.34107 -2.18393,1.32216 -3.8608,10.60814 -4.70034,14.03184 -0.77246,3.1501 -2.18796,4.34886 -5.20165,4.40513 -4.09181,0.0764 -5.30787,-1.40787 -7.36373,-8.98782 -2.1627,-7.9739 -2.60301,-17.23413 -4.82725,-16.66205 -1.1383,0.29277 -3.0964,2.97947 -3.6353,4.98795 -0.22411,0.83527 -1.12727,2.34853 -2.00704,3.36279 -1.32555,1.5282 -1.94014,1.84412 -3.58753,1.84412 -1.68367,0 -2.13693,-0.24904 -2.96128,-1.62716 -2.0322,-3.39723 -3.13201,-3.73919 -5.90734,-1.83669 -1.70891,1.17144 -1.76818,1.36755 -1.46236,4.83738 0.17532,1.98904 0.68957,5.44185 1.1428,7.6729 0.7711,3.79584 0.74452,4.10771 -0.41382,4.85413 -2.15108,1.38611 -4.59144,1.50981 -6.39665,0.32424 -2.40267,-1.57795 -2.68606,-4.11462 -1.18112,-10.57273 0.71833,-3.08256 1.13519,-6.19045 0.92636,-6.90639 -0.74168,-2.54269 -2.84516,-3.04424 -2.84516,-0.6784 0,2.66378 -3.61351,2.89545 -5.50515,0.35296 -1.25645,-1.68875 -2.83837,-2.11832 -3.51794,-0.95528 -0.2159,0.36953 0.075,1.75103 0.6462,3.07 1.15457,2.6655 0.71478,4.14609 -1.45847,4.90995 -2.11717,0.74414 -4.49728,0.53313 -6.4539,-0.57218 -1.61317,-0.91131 -1.85884,-1.39503 -2.09347,-4.12214 -0.31199,-3.62609 -1.04084,-3.8882 -4.36844,-1.57101 -2.51313,1.75004 -3.257,1.85047 -4.82095,0.65086 -1.31562,-1.0091 -3.36229,-1.14115 -3.88269,-0.2505 -0.8037,1.3755 -2.54325,1.1984 -4.68869,-0.47732 -2.53108,-1.97692 -3.22024,-1.72702 -4.61312,1.67277 -1.77671,4.33669 -2.41992,16.52462 -0.78798,23.83312 1.41416,6.33312 1.4353,6.77218 0.3903,8.09935 -0.6077,0.77179 -1.85331,1.59011 -2.76801,1.8185 -1.93897,0.48416 -2.10327,0.48328 -4.01149,-0.0216 z"
                     id="path15011"
                     inkscape:connector-curvature="0"
                     sodipodi:nodetypes="csscsssscccccccccsssssssscssssssssssscsssssssssccssssssssssscc" />
                  <path
                     sodipodi:nodetypes="ccccccscsscssccssssssscssccsscsssssscccccc"
                     inkscape:connector-curvature="0"
                     id="path15013"
                     d="m -798.14746,499.43127 c 10.98374,25.11681 9.92745,16.41096 -1.2817,45.12137 -7.09195,7.67611 7.97446,25.23274 -12.15301,22.66002 -0.50095,0.71018 -0.36497,1.87733 0.47244,4.0482 0.64724,1.67782 1.23373,3.96695 1.3028,5.08671 0.14487,2.34691 -2.57565,6.91628 -4.50632,7.56954 -3.32566,1.1252 -3.96851,-0.19913 -4.50884,-9.29159 -0.27405,-4.61184 -0.48981,-5.33963 -1.78635,-6.02405 -2.33505,-1.23258 -3.8415,-0.22153 -7.48856,5.02795 -1.87433,2.6979 -4.33284,5.71193 -5.46414,6.69776 -1.19803,1.044 -2.51159,3.1225 -3.14504,4.97686 -1.00111,2.93038 -0.94182,3.9594 0.74407,12.93808 1.00737,5.3652 4.63055,20.19394 5.35869,22.06936 2.68383,6.91275 2.61212,10.57271 -0.25011,12.69856 -1.90084,1.41167 -2.07553,1.47398 -4.25281,1.5042 -1.02708,0.0142 -2.55094,-0.68096 -3.38619,-1.54461 -1.43631,-1.48513 -1.52214,-2.1115 -1.58257,-11.54881 -0.0698,-10.89076 -3.75668,-27.81638 -6.71153,-33.27068 -2.31653,-4.27594 -3.10957,-4.37489 -5.30851,-0.66165 -1.86395,3.14752 2.28307,4.39106 1.573,6.30282 -1.05711,2.84608 -4.85128,-1.23377 -5.99883,0.67037 -1.36415,2.26354 -0.12464,2.57006 -3.2234,1.0286 -4.10296,-2.04104 -4.81246,-1.4042 -4.24967,3.81649 0.42334,3.92633 -0.0458,10.6486 -1.5333,12.52424 -1.80412,2.27494 -7.58717,0.47006 -10.0177,0.19965 -2.49489,-0.27759 -6.23499,-8.15154 -5.66676,-12.32894 0.28109,-2.06707 0.24914,-4.1193 -0.0711,-4.56039 -1.00801,-1.38819 1.50716,17.89601 0.59,20.73542 -1.38086,4.27486 -8.79772,4.40965 -9.45445,0.65864 -0.58326,-3.33146 -0.34671,-13.13416 -0.50696,-9.28131 -0.0451,1.08483 1.1631,5.30796 2.68545,9.38491 3.18943,8.54137 3.51412,12.21776 1.35311,15.32201 -1.62365,2.33236 -4.24447,3.05364 -6.86924,1.89168 -1.41341,-0.62572 -1.51823,-1.05443 -1.63562,-6.6827 -0.0304,-1.45884 -8.98912,7.70338 -9.09109,5.90358 -0.12927,-2.28151 8.58263,-15.52627 8.41251,-17.128 -0.53088,-4.99838 -0.64229,-5.25282 -2.74485,-6.27484 -2.87637,-1.39825 -4.09793,-0.97771 -5.20024,2.49111 l -13.47114,-13.70459 16.42242,-6.67373 89.5544,-73.75476 z"
                     style="fill:#d82c2c;fill-opacity:1" />
                  <path
                     sodipodi:nodetypes="csscssssccccccccsssssssscsssssssssccssssssssssscc"
                     inkscape:connector-curvature="0"
                     id="path15018"
                     d="m -738.60212,613.21734 c -2.34066,-1.71015 -2.08302,-5.1108 0.89282,-11.79871 0.80749,-1.81447 -2.97519,-4.21579 -1.61499,-9.30545 2.27658,-8.51752 3.66726,-0.37081 3.04434,-3.00385 -0.39652,-1.66683 -1.37596,-3.47683 -2.33958,-4.3372 -0.91234,-0.81147 -4.07137,-12.4983 -5.48944,-14.83384 -2.75952,-4.5445 -4.00058,-5.34453 -6.17023,-3.97752 -1.20488,0.75906 -1.45934,1.45701 -2.10596,5.77641 -1.27492,8.51587 -1.95851,9.80952 -4.79605,9.07453 -1.64728,-0.42669 -3.6479,-4.42559 -3.31403,-6.62417 0.15922,-1.04899 0.87795,-3.23492 1.59625,-4.85793 0.92973,-2.09983 -5.99116,-4.82336 -6.37108,-5.43744 -17.99651,4.28703 5.14296,-10.60206 -0.44488,-17.08196 -7.37762,-25.67584 -9.45916,-7.99888 2.44235,-32.415 28.29889,23.97476 64.52523,-0.70199 84.77593,72.66519 85.65722,14.69096 38.83641,65.98432 30.9364,37.48375 -0.96829,-3.59497 -2.6716,-4.66541 -5.29746,-3.32915 -2.42727,1.23521 -4.01855,3.2812 -5.94646,7.64571 -1.77386,4.01574 -3.46371,5.27237 -6.20983,4.61778 -3.72852,-0.88881 -4.32241,-3.16347 -3.59619,-13.77415 0.76399,-11.16214 0.43077,-13.68638 -1.77704,-13.46167 -1.12989,0.11501 -3.81844,3.22542 -4.9914,5.77459 -0.4878,1.06012 -1.82138,2.8604 -2.96354,4.00059 -1.72087,1.71793 -2.38478,1.99062 -3.87541,1.59175 -1.52347,-0.40765 -1.84861,-0.84966 -2.12428,-2.88789 -0.6796,-5.0245 -1.55809,-5.74702 -4.71851,-3.88073 -1.94602,1.14914 -2.06657,1.39644 -2.97384,6.09982 -0.52007,2.69616 -1.23294,7.42729 -1.58413,10.51362 -0.59749,5.25098 -0.72796,5.66063 -2.0308,6.37603 -2.41935,1.32848 -8.63847,-1.53299 -9.86736,-3.55181 -1.63561,-2.68698 2.94229,-3.70428 6.50768,-11.9561 1.70183,-3.93874 3.13951,-7.98425 3.19486,-8.99 0.19651,-3.57194 -1.53568,-4.75038 -2.34296,-1.59395 -0.90894,3.55391 -4.25766,2.9881 -5.10175,-0.862 -0.56064,-2.55728 -1.84547,-3.51341 -2.85722,-2.12626 -0.32146,0.44075 -0.52968,2.35432 -0.46286,4.25235 0.13518,3.83576 -0.76797,5.70463 -2.99508,6.19757 -2.16963,0.4802 -7.79522,-0.59434 -9.98827,-1.48617 -3.95026,-1.60641 10.67979,-21.6591 14.21051,-21.6591 4.89762,0 0.38496,-5.43952 -3.41667,-3.15368 -2.87118,1.72638 -3.57848,1.68026 -4.58439,-0.29886 -0.84605,-1.66487 -2.65287,-2.33657 -3.42769,-1.27426 -1.19652,1.64052 -2.71018,0.98309 -4.07974,-1.77206 -1.61561,-3.25038 -2.32439,-3.08383 -4.74492,1.11483 -3.0874,5.35571 -0.79774,0.60346 -1.81497,10.74934 -0.88142,8.79185 -3.03615,13.52352 -4.4346,15.04118 -0.81326,0.88255 -2.21964,1.67278 -3.12517,1.75602 -1.91971,0.1765 -2.06808,0.13553 -3.62243,-1.00006 z"
                     style="fill:#d82c2c;fill-opacity:1" />
                </g>
              </g>
            </g>
          </g>
          <g
             id="g15035"
             transform="translate(284.19686,-12.630971)">
            <path
               style="fill:#000000;fill-rule:evenodd;stroke:#000000;stroke-width:1px;stroke-linecap:butt;stroke-linejoin:miter;stroke-opacity:1"
               d="m 352.76268,775.77158 -9.17018,-5.5021 -5.5021,-36.68072 5.5021,0 33.01265,-5.50211 12.83825,1.83404 23.84247,-3.66807 c 0,0 -3.88672,-11.70363 0,-14.67229 5.53943,-4.23099 20.17439,5.50211 20.17439,5.50211 0,0 2.18721,-14.23638 7.33614,-18.34036 24.67953,-19.67094 93.53583,-14.67229 93.53583,-14.67229 l -1.83404,-3.66807 c 0,0 -43.3166,-91.3158 -75.19546,-174.2334 -14.4278,-37.52702 18.34035,-119.21233 18.34035,-119.21233 l 25.67651,-49.51897 18.34035,-49.51897 c 0,0 12.50802,-29.59776 23.84247,-40.34878 11.50671,-10.91442 26.46724,-19.87549 42.18282,-22.00843 8.67361,-1.1772 25.67651,5.5021 25.67651,5.5021 l 11.00421,0 0,-16.50632 -9.17018,-11.00421 c 0,0 6.02195,-32.37095 16.50632,-44.01686 8.23165,-9.14362 20.81842,-14.8733 33.01265,-16.50633 12.35872,-1.65505 25.23925,2.37934 36.68071,7.33615 9.65119,4.18121 19.50784,9.82124 25.67651,18.34036 6.01034,8.30046 9.17018,29.34457 9.17018,29.34457 l 0,20.17439 9.17017,7.33615 -1.81966,2.86256 -25.69087,-2.86256 -3.66807,1.83403 0,25.6765 -5.50211,1.83404 -11.00422,11.00421 0,7.33615 -3.66807,0 -7.33614,12.83825 -12.83825,5.50211 -1.83404,12.83825 3.66807,33.01264 0,18.34036 0,34.84668 20.1744,22.00843 14.67228,18.34036 -3.66807,11.00421 -20.17439,-20.17439 0,18.34036 -18.34036,1.83403 -23.84247,-9.17018 5.50211,29.34458 -25.6765,31.17861 -20.17439,31.17861 7.33614,42.18282 -3.66807,22.00843 c 0,0 16.50632,100.87197 16.50632,91.70179 0,-9.17018 10.75718,22.27165 7.33614,33.01265 -5.25418,16.49653 -38.51475,34.84668 -38.51475,34.84668 l -51.353,99.03793 -18.34036,7.33614 -1.83404,14.67229 33.01265,27.51054 c 0,0 18.30111,-6.21936 25.6765,-1.83404 6.34934,3.77524 9.17018,20.1744 9.17018,20.1744 -26.07779,20.34677 -46.42644,12.04787 -67.85933,9.17018 l -7.33614,-5.50211 -12.83825,-3.66807 -5.50211,11.00421 -36.68071,0 -5.50211,-16.50632 3.66807,-25.6765 27.51054,-47.68493 -3.66807,0 14.67228,-45.8509 3.66807,-12.83825 7.33615,-14.67229 -66.02529,12.83825 -11.00422,-1.83403 -25.6765,11.00421 -16.50632,40.34879 0,20.17439 0,12.83826 -9.17018,11.00421 c 6.20194,8.05553 2.36205,5.50211 -5.50211,5.50211 l -23.84247,-53.18704 0,-23.84247 z"
               id="path3351"
               inkscape:connector-curvature="0"
               sodipodi:nodetypes="cccccccscsccscccssccccsssscccccccccccccccccccccccccccccsscccccscccccccccccccccccccccccc" />
            <g
               transform="matrix(1.1196047,0.76603933,-0.76603933,1.1196047,1232.7833,17.222153)"
               id="layer1-3"
               inkscape:label="Layer 1">
              <g
                 id="g3550">
                <path
                   style="fill:#000000;fill-rule:evenodd;stroke:#000000;stroke-width:1px;stroke-linecap:butt;stroke-linejoin:miter;stroke-opacity:1"
                   d="m -248.19448,449.90723 -2.82843,-2.47488 -2.47487,1.41422 -2.47487,2.82842 1.06066,29.34494 1.76776,10.6066 1.76777,3.88908 3.88909,0 4.24264,-7.77817 5.65685,-7.77818 3.88909,-2.47487 -0.70711,7.77818 3.88909,1.41421 11.31371,-10.25305 4.94975,2.47487 1.06066,-4.24264 6.71751,1.06066 0,-4.59619 3.53553,-4.24264 8.13173,1.06066 -1.41421,-16.61701 z"
                   id="path3529"
                   inkscape:connector-curvature="0" />
                <path
                   inkscape:connector-curvature="0"
                   style="fill:#000000;fill-rule:evenodd;stroke:#000000;stroke-width:1px;stroke-linecap:butt;stroke-linejoin:miter;stroke-opacity:1"
                   d="m -172.88672,430.46094 -4.24414,0.70703 -2.12109,3.18359 1.06054,4.94922 -3.88867,0.35352 0.35352,3.18164 -1.76758,0 0,3.53515 -4.94922,-1.41406 -2.12109,3.18164 0.95117,2.37891 70.46484,-4.14649 -1.41406,-7.07031 -3.18164,-3.88867 -42.07227,-3.89063 -7.07031,-1.06054 z m -16.72656,20.05664 -7.66992,0.45117 8.13281,0.70703 -0.46289,-1.1582 z m 63.74805,-12.63086 2.47461,1.41406 1.06054,4.24219 -3.18164,2.47461 -39.95117,1.76758 -0.70703,-2.47461 4.5957,-6.7168 35.70899,-0.70703 z"
                   id="path3531" />
                <path
                   sodipodi:nodetypes="cccccccccccccccccccccccccccc"
                   style="fill:#000000;fill-rule:evenodd;stroke:#000000;stroke-width:1px;stroke-linecap:butt;stroke-linejoin:miter;stroke-opacity:1"
                   d="m -196.57569,451.67499 80.25662,-4.24264 2.47488,1.41422 2.12132,-3.18198 56.568541,1.06066 3.181981,2.47487 3.889087,4.01041 37.476659,0.58578 0,-1.76776 38.183766,1.06066 -0.353553,-1.76777 18.031223,1.06066 0,7.07107 -18.031223,1.41421 0,-1.06066 -38.183766,0.70711 0,-1.41422 -35.708893,1.41422 -8.485281,6.71751 -57.629201,0 -7.77818,-0.35355 -2.82842,2.82843 -1.76777,11.31371 2.82843,2.12132 -29.69849,4.24264 1.06066,-9.54595 -4.59619,-2.82842 z"
                   id="path3536"
                   inkscape:connector-curvature="0" />
                <path
                   inkscape:connector-curvature="0"
                   style="fill:#000000;fill-rule:evenodd;stroke:#000000;stroke-width:1px;stroke-linecap:butt;stroke-linejoin:miter;stroke-opacity:1"
                   d="m -196.57617,452.38281 1.76758,15.55469 0.35351,-3.88867 2.1211,0 -0.35352,5.30469 5.6582,0.70703 2.1211,3.18164 1.06054,5.30273 -19.79882,26.8711 20.85937,7.42382 1.06055,-2.47461 -2.1211,-3.18164 6.36328,-10.96093 3.89063,0.35351 -2.83008,-3.53515 4.24414,-5.30274 19.0918,-0.35351 3.18164,1.06054 0,14.49414 25.45508,-2.12109 -1.06055,-17.32422 -71.06445,-31.11133 z m 29.3457,23.6875 13.43555,0 1.41406,2.82813 0,3.88867 -2.82812,3.53516 -9.9004,0 -2.4746,-2.82813 0.35351,-7.42383 z"
                   id="path3538" />
                <path
                   style="fill:#000000;fill-rule:evenodd;stroke:#000000;stroke-width:1px;stroke-linecap:butt;stroke-linejoin:miter;stroke-opacity:1"
                   d="m -160.51324,476.42373 -2.47487,3.53553 0,2.82843 1.76776,2.47488 -3.53553,-1.41422 -0.70711,-6.01041 0,-1.76776 z"
                   id="path3543"
                   inkscape:connector-curvature="0" />
                <path
                   inkscape:connector-curvature="0"
                   style="fill:#000000;fill-rule:evenodd;stroke:#000000;stroke-width:1px;stroke-linecap:butt;stroke-linejoin:miter;stroke-opacity:1"
                   d="m -37.476562,430.10742 -2.828126,1.41406 -10.960937,16.61719 -1.767578,18.03125 1.060547,1.41406 -1.767578,3.89063 2.474609,0.35351 1.414063,-2.12109 -0.353516,-3.18359 3.18164,-1.41406 0.353516,-4.24219 8.132813,0.70703 1.060547,4.5957 7.423828,-1.06054 -4.595704,-11.3125 0.707032,-13.08204 -0.707032,-7.42382 -2.828124,-3.1836 z m -3.181641,8.48633 0.707031,4.5957 3.535156,0.70703 0,4.94922 -11.314453,-0.35351 7.072266,-9.89844 z"
                   id="path3545" />
              </g>
              <g
                 id="g5032">
                <path
                   inkscape:connector-curvature="0"
                   id="path5034"
                   d="m -248.19448,449.90723 -2.82843,-2.47488 -2.47487,1.41422 -2.47487,2.82842 1.06066,29.34494 1.76776,10.6066 1.76777,3.88908 3.88909,0 4.24264,-7.77817 5.65685,-7.77818 3.88909,-2.47487 -0.70711,7.77818 3.88909,1.41421 11.31371,-10.25305 4.94975,2.47487 1.06066,-4.24264 6.71751,1.06066 0,-4.59619 3.53553,-4.24264 8.13173,1.06066 -1.41421,-16.61701 z"
                   style="fill:#000000;fill-rule:evenodd;stroke:#000000;stroke-width:1px;stroke-linecap:butt;stroke-linejoin:miter;stroke-opacity:1" />
                <path
                   inkscape:connector-curvature="0"
                   id="path5036"
                   d="m -172.88672,430.46094 -4.24414,0.70703 -2.12109,3.18359 1.06054,4.94922 -3.88867,0.35352 0.35352,3.18164 -1.76758,0 0,3.53515 -4.94922,-1.41406 -2.12109,3.18164 0.95117,2.37891 70.46484,-4.14649 -1.41406,-7.07031 -3.18164,-3.88867 -42.07227,-3.89063 -7.07031,-1.06054 z m -16.72656,20.05664 -7.66992,0.45117 8.13281,0.70703 -0.46289,-1.1582 z m 63.74805,-12.63086 2.47461,1.41406 1.06054,4.24219 -3.18164,2.47461 -39.95117,1.76758 -0.70703,-2.47461 4.5957,-6.7168 35.70899,-0.70703 z"
                   style="fill:#000000;fill-rule:evenodd;stroke:#000000;stroke-width:1px;stroke-linecap:butt;stroke-linejoin:miter;stroke-opacity:1" />
                <path
                   inkscape:connector-curvature="0"
                   id="path5038"
                   d="m -196.57569,451.67499 80.25662,-4.24264 2.47488,1.41422 2.12132,-3.18198 56.568541,1.06066 3.181981,2.47487 3.889087,4.01041 37.476659,0.58578 0,-1.76776 38.183766,1.06066 -0.353553,-1.76777 18.031223,1.06066 0,7.07107 -18.031223,1.41421 0,-1.06066 -38.183766,0.70711 0,-1.41422 -35.708893,1.41422 -8.485281,6.71751 -57.629201,0 -7.77818,-0.35355 -2.82842,2.82843 -1.76777,11.31371 2.82843,2.12132 -29.69849,4.24264 1.06066,-9.54595 -4.59619,-2.82842 z"
                   style="fill:#000000;fill-rule:evenodd;stroke:#000000;stroke-width:1px;stroke-linecap:butt;stroke-linejoin:miter;stroke-opacity:1"
                   sodipodi:nodetypes="cccccccccccccccccccccccccccc" />
                <path
                   inkscape:connector-curvature="0"
                   id="path5040"
                   d="m -196.57617,452.38281 1.76758,15.55469 0.35351,-3.88867 2.1211,0 -0.35352,5.30469 5.6582,0.70703 2.1211,3.18164 1.06054,5.30273 -19.79882,26.8711 20.85937,7.42382 1.06055,-2.47461 -2.1211,-3.18164 6.36328,-10.96093 3.89063,0.35351 -2.83008,-3.53515 4.24414,-5.30274 19.0918,-0.35351 3.18164,1.06054 0,14.49414 25.45508,-2.12109 -1.06055,-17.32422 -71.06445,-31.11133 z m 29.3457,23.6875 13.43555,0 1.41406,2.82813 0,3.88867 -2.82812,3.53516 -9.9004,0 -2.4746,-2.82813 0.35351,-7.42383 z"
                   style="fill:#000000;fill-rule:evenodd;stroke:#000000;stroke-width:1px;stroke-linecap:butt;stroke-linejoin:miter;stroke-opacity:1" />
                <path
                   inkscape:connector-curvature="0"
                   id="path5042"
                   d="m -160.51324,476.42373 -2.47487,3.53553 0,2.82843 1.76776,2.47488 -3.53553,-1.41422 -0.70711,-6.01041 0,-1.76776 z"
                   style="fill:#000000;fill-rule:evenodd;stroke:#000000;stroke-width:1px;stroke-linecap:butt;stroke-linejoin:miter;stroke-opacity:1" />
                <path
                   inkscape:connector-curvature="0"
                   id="path5044"
                   d="m -37.476562,430.10742 -2.828126,1.41406 -10.960937,16.61719 -1.767578,18.03125 1.060547,1.41406 -1.767578,3.89063 2.474609,0.35351 1.414063,-2.12109 -0.353516,-3.18359 3.18164,-1.41406 0.353516,-4.24219 8.132813,0.70703 1.060547,4.5957 7.423828,-1.06054 -4.595704,-11.3125 0.707032,-13.08204 -0.707032,-7.42382 -2.828124,-3.1836 z m -3.181641,8.48633 0.707031,4.5957 3.535156,0.70703 0,4.94922 -11.314453,-0.35351 7.072266,-9.89844 z"
                   style="fill:#000000;fill-rule:evenodd;stroke:#000000;stroke-width:1px;stroke-linecap:butt;stroke-linejoin:miter;stroke-opacity:1" />
              </g>
            </g>
            <path
               style="fill:#000000;fill-rule:evenodd;stroke:#000000;stroke-width:1px;stroke-linecap:butt;stroke-linejoin:miter;stroke-opacity:1"
               d="M 528.78962,347.36637 472.10026,332.1765 c 0,0 -14.75863,1.74331 -20.56352,5.88242 -17.47859,12.46291 -29.63764,32.57194 -36.92307,52.76471 -4.63936,12.85876 -7.11188,27.72841 -3.35687,40.87267 6.21564,21.75761 40.45702,54.51129 40.45702,54.51129 z"
               id="path3457"
               inkscape:connector-curvature="0"
               sodipodi:nodetypes="ccssscc" />
          </g>
          <g
             id="g15054">
            <path
               style="fill:#000000;fill-rule:evenodd;stroke:#000000;stroke-width:1px;stroke-linecap:butt;stroke-linejoin:miter;stroke-opacity:1"
               d="m -504.35985,637.87011 9.17018,7.33614 0,3.66807 7.33614,0 14.67229,9.17018 11.00421,12.83825 25.6765,5.50211 5.50211,-7.33614 31.17861,5.5021 16.50632,14.67229 c 0,0 38.61372,14.67229 51.35301,14.67229 l 3.66807,-9.17018 -7.33615,-34.84668 9.17018,-27.51054 0,-27.51054 -5.5021,-11.00421 0,-23.84247 -12.83826,-9.17018 1.83404,-27.51053 -20.17439,-22.00843 27.51053,-45.8509 3.66808,-12.83825 11.00421,0 5.50211,-9.17018 20.17439,-36.68072 c 0,0 -1.35985,-4.27145 0,-5.5021 4.55544,-4.12262 12.78571,4.45966 18.34036,1.83403 23.91381,-11.30384 26.21576,-46.46084 44.01686,-66.02529 8.48181,-9.322 18.53741,-17.35817 29.34457,-23.84246 10.80716,-6.4843 22.26639,-15.43195 34.84668,-14.67229 4.91986,0.29709 12.83825,7.33614 12.83825,7.33614 l -3.66807,-11.00421 12.83826,-29.34457 97.203893,0 1.834036,14.67228 -7.336144,9.17018 8.178779,21.26483 -1.58709,2.66082 -12.093796,-0.0832 -3.668072,9.17018 -7.336143,0 3.668071,3.66807 -3.668071,11.00421 c 0,0 1.940634,4.87245 -0.165964,7.17018 -3.741122,4.08056 -14.506323,0.16597 -14.506323,0.16597 l -11.004215,-3.66808 -16.506321,5.50211 16.506321,25.6765 -5.502111,16.50633 3.668075,16.50632 -34.846685,47.68493 44.016865,18.34036 -1.834036,11.00421 -12.838249,20.1744 -25.6765,5.5021 -25.67651,-5.5021 -3.66807,11.00421 -20.17439,-3.66807 0,11.00422 12.83825,29.34457 20.17439,40.34879 20.1744,36.68071 18.34036,27.51054 5.5021,40.34879 -12.83825,33.01264 -12.83825,20.1744 -1.83403,73.36143 -11.00422,1.83404 1.83404,33.01264 11.00421,14.67229 c 0,0 17.31165,-1.8119 25.6765,0 7.219488,1.56381 20.174398,9.17018 20.174398,9.17018 0,0 9.197962,-2.24982 12.838251,0 5.814239,3.5934 9.170179,18.34036 9.170179,18.34036 l -12.838251,9.17017 -56.855107,7.33615 -12.83825,-5.50211 -18.34036,5.50211 -38.51475,-1.83404 0,-44.01686 5.5021,-3.66807 11.00422,-42.18282 -9.17018,-3.66808 5.50211,-33.01264 0,-29.34457 3.66807,-40.34879 5.5021,-9.17018 5.50211,-18.34036 -55.02107,-34.84668 -31.17861,91.70179 -23.84247,23.84247 -9.17018,11.00421 -14.67228,0 -73.36144,-16.50632 -14.67228,-22.00843 -20.1744,5.50211 -23.84246,-11.00422 -11.00422,-3.66807 1.83404,-9.17018 -31.17861,-3.66807 -31.17861,18.34036 c 0,0 -9.27747,22.20899 -18.34036,29.34457 -6.07578,4.7837 -22.00843,7.33615 -22.00843,7.33615 l -1.83403,-14.67229 7.33614,-49.51897 9.17018,-11.00421 12.83825,-11.00422 0,-12.83825 z"
               id="path3347"
               inkscape:connector-curvature="0"
               sodipodi:nodetypes="cccccccccccccccccccccccccssssscccccccccccccsccccccccccccccccccccccccccscsccccccccccccccccccccccccccccsccccccc" />
            <path
               style="fill:#000000;fill-rule:evenodd;stroke:#000000;stroke-width:1px;stroke-linecap:butt;stroke-linejoin:miter;stroke-opacity:1"
               d="m -130.21654,276.56505 -32.68072,-9.17018 8.83825,-16.50632 c 0,0 5.99091,-29.32127 16.50632,-38.51475 8.59812,-7.51722 21.59404,-8.9426 33.01265,-9.17018 10.674565,-0.21275 21.384868,3.08475 31.178607,7.33614 12.131698,5.26628 26.450999,10.52555 33.012645,22.00843 5.468039,9.56907 1.834036,33.01265 1.834036,33.01265 l 10.948076,9.61724 0.05614,1.38697 -20.174394,1.83404 -38.514753,7.33614 z"
               id="path3349"
               inkscape:connector-curvature="0"
               sodipodi:nodetypes="cccsssscccccc" />
            <g
               inkscape:label="Layer 1"
               id="g14903"
               transform="matrix(0.76603933,-1.1196047,1.1196047,0.76603933,-477.23185,-58.235781)">
              <g
                 id="g14905">
                <path
                   inkscape:connector-curvature="0"
                   id="path14907"
                   d="m -248.19448,449.90723 -2.82843,-2.47488 -2.47487,1.41422 -2.47487,2.82842 1.06066,29.34494 1.76776,10.6066 1.76777,3.88908 3.88909,0 4.24264,-7.77817 5.65685,-7.77818 3.88909,-2.47487 -0.70711,7.77818 3.88909,1.41421 11.31371,-10.25305 4.94975,2.47487 1.06066,-4.24264 6.71751,1.06066 0,-4.59619 3.53553,-4.24264 8.13173,1.06066 -1.41421,-16.61701 z"
                   style="fill:#000000;fill-rule:evenodd;stroke:#000000;stroke-width:1px;stroke-linecap:butt;stroke-linejoin:miter;stroke-opacity:1" />
                <path
                   id="path14909"
                   d="m -172.88672,430.46094 -4.24414,0.70703 -2.12109,3.18359 1.06054,4.94922 -3.88867,0.35352 0.35352,3.18164 -1.76758,0 0,3.53515 -4.94922,-1.41406 -2.12109,3.18164 0.95117,2.37891 70.46484,-4.14649 -1.41406,-7.07031 -3.18164,-3.88867 -42.07227,-3.89063 -7.07031,-1.06054 z m -16.72656,20.05664 -7.66992,0.45117 8.13281,0.70703 -0.46289,-1.1582 z m 63.74805,-12.63086 2.47461,1.41406 1.06054,4.24219 -3.18164,2.47461 -39.95117,1.76758 -0.70703,-2.47461 4.5957,-6.7168 35.70899,-0.70703 z"
                   style="fill:#000000;fill-rule:evenodd;stroke:#000000;stroke-width:1px;stroke-linecap:butt;stroke-linejoin:miter;stroke-opacity:1"
                   inkscape:connector-curvature="0" />
                <path
                   inkscape:connector-curvature="0"
                   id="path14911"
                   d="m -196.57569,451.67499 80.25662,-4.24264 2.47488,1.41422 2.12132,-3.18198 56.568541,1.06066 3.181981,2.47487 3.889087,4.01041 37.476659,0.58578 0,-1.76776 38.183766,1.06066 -0.353553,-1.76777 18.031223,1.06066 0,7.07107 -18.031223,1.41421 0,-1.06066 -38.183766,0.70711 0,-1.41422 -35.708893,1.41422 -8.485281,6.71751 -57.629201,0 -7.77818,-0.35355 -2.82842,2.82843 -1.76777,11.31371 2.82843,2.12132 -29.69849,4.24264 1.06066,-9.54595 -4.59619,-2.82842 z"
                   style="fill:#000000;fill-rule:evenodd;stroke:#000000;stroke-width:1px;stroke-linecap:butt;stroke-linejoin:miter;stroke-opacity:1"
                   sodipodi:nodetypes="cccccccccccccccccccccccccccc" />
                <path
                   id="path14913"
                   d="m -196.57617,452.38281 1.76758,15.55469 0.35351,-3.88867 2.1211,0 -0.35352,5.30469 5.6582,0.70703 2.1211,3.18164 1.06054,5.30273 -19.79882,26.8711 20.85937,7.42382 1.06055,-2.47461 -2.1211,-3.18164 6.36328,-10.96093 3.89063,0.35351 -2.83008,-3.53515 4.24414,-5.30274 19.0918,-0.35351 3.18164,1.06054 0,14.49414 25.45508,-2.12109 -1.06055,-17.32422 -71.06445,-31.11133 z m 29.3457,23.6875 13.43555,0 1.41406,2.82813 0,3.88867 -2.82812,3.53516 -9.9004,0 -2.4746,-2.82813 0.35351,-7.42383 z"
                   style="fill:#000000;fill-rule:evenodd;stroke:#000000;stroke-width:1px;stroke-linecap:butt;stroke-linejoin:miter;stroke-opacity:1"
                   inkscape:connector-curvature="0" />
                <path
                   inkscape:connector-curvature="0"
                   id="path14915"
                   d="m -160.51324,476.42373 -2.47487,3.53553 0,2.82843 1.76776,2.47488 -3.53553,-1.41422 -0.70711,-6.01041 0,-1.76776 z"
                   style="fill:#000000;fill-rule:evenodd;stroke:#000000;stroke-width:1px;stroke-linecap:butt;stroke-linejoin:miter;stroke-opacity:1" />
                <path
                   id="path14917"
                   d="m -37.476562,430.10742 -2.828126,1.41406 -10.960937,16.61719 -1.767578,18.03125 1.060547,1.41406 -1.767578,3.89063 2.474609,0.35351 1.414063,-2.12109 -0.353516,-3.18359 3.18164,-1.41406 0.353516,-4.24219 8.132813,0.70703 1.060547,4.5957 7.423828,-1.06054 -4.595704,-11.3125 0.707032,-13.08204 -0.707032,-7.42382 -2.828124,-3.1836 z m -3.181641,8.48633 0.707031,4.5957 3.535156,0.70703 0,4.94922 -11.314453,-0.35351 7.072266,-9.89844 z"
                   style="fill:#000000;fill-rule:evenodd;stroke:#000000;stroke-width:1px;stroke-linecap:butt;stroke-linejoin:miter;stroke-opacity:1"
                   inkscape:connector-curvature="0" />
              </g>
              <g
                 id="g14919">
                <path
                   style="fill:#000000;fill-rule:evenodd;stroke:#000000;stroke-width:1px;stroke-linecap:butt;stroke-linejoin:miter;stroke-opacity:1"
                   d="m -248.19448,449.90723 -2.82843,-2.47488 -2.47487,1.41422 -2.47487,2.82842 1.06066,29.34494 1.76776,10.6066 1.76777,3.88908 3.88909,0 4.24264,-7.77817 5.65685,-7.77818 3.88909,-2.47487 -0.70711,7.77818 3.88909,1.41421 11.31371,-10.25305 4.94975,2.47487 1.06066,-4.24264 6.71751,1.06066 0,-4.59619 3.53553,-4.24264 8.13173,1.06066 -1.41421,-16.61701 z"
                   id="path14921"
                   inkscape:connector-curvature="0" />
                <path
                   style="fill:#000000;fill-rule:evenodd;stroke:#000000;stroke-width:1px;stroke-linecap:butt;stroke-linejoin:miter;stroke-opacity:1"
                   d="m -172.88672,430.46094 -4.24414,0.70703 -2.12109,3.18359 1.06054,4.94922 -3.88867,0.35352 0.35352,3.18164 -1.76758,0 0,3.53515 -4.94922,-1.41406 -2.12109,3.18164 0.95117,2.37891 70.46484,-4.14649 -1.41406,-7.07031 -3.18164,-3.88867 -42.07227,-3.89063 -7.07031,-1.06054 z m -16.72656,20.05664 -7.66992,0.45117 8.13281,0.70703 -0.46289,-1.1582 z m 63.74805,-12.63086 2.47461,1.41406 1.06054,4.24219 -3.18164,2.47461 -39.95117,1.76758 -0.70703,-2.47461 4.5957,-6.7168 35.70899,-0.70703 z"
                   id="path14923"
                   inkscape:connector-curvature="0" />
                <path
                   sodipodi:nodetypes="cccccccccccccccccccccccccccc"
                   style="fill:#000000;fill-rule:evenodd;stroke:#000000;stroke-width:1px;stroke-linecap:butt;stroke-linejoin:miter;stroke-opacity:1"
                   d="m -196.57569,451.67499 80.25662,-4.24264 2.47488,1.41422 2.12132,-3.18198 56.568541,1.06066 3.181981,2.47487 3.889087,4.01041 37.476659,0.58578 0,-1.76776 38.183766,1.06066 -0.353553,-1.76777 18.031223,1.06066 0,7.07107 -18.031223,1.41421 0,-1.06066 -38.183766,0.70711 0,-1.41422 -35.708893,1.41422 -8.485281,6.71751 -57.629201,0 -7.77818,-0.35355 -2.82842,2.82843 -1.76777,11.31371 2.82843,2.12132 -29.69849,4.24264 1.06066,-9.54595 -4.59619,-2.82842 z"
                   id="path14925"
                   inkscape:connector-curvature="0" />
                <path
                   style="fill:#000000;fill-rule:evenodd;stroke:#000000;stroke-width:1px;stroke-linecap:butt;stroke-linejoin:miter;stroke-opacity:1"
                   d="m -196.57617,452.38281 1.76758,15.55469 0.35351,-3.88867 2.1211,0 -0.35352,5.30469 5.6582,0.70703 2.1211,3.18164 1.06054,5.30273 -19.79882,26.8711 20.85937,7.42382 1.06055,-2.47461 -2.1211,-3.18164 6.36328,-10.96093 3.89063,0.35351 -2.83008,-3.53515 4.24414,-5.30274 19.0918,-0.35351 3.18164,1.06054 0,14.49414 25.45508,-2.12109 -1.06055,-17.32422 -71.06445,-31.11133 z m 29.3457,23.6875 13.43555,0 1.41406,2.82813 0,3.88867 -2.82812,3.53516 -9.9004,0 -2.4746,-2.82813 0.35351,-7.42383 z"
                   id="path14927"
                   inkscape:connector-curvature="0" />
                <path
                   style="fill:#000000;fill-rule:evenodd;stroke:#000000;stroke-width:1px;stroke-linecap:butt;stroke-linejoin:miter;stroke-opacity:1"
                   d="m -160.51324,476.42373 -2.47487,3.53553 0,2.82843 1.76776,2.47488 -3.53553,-1.41422 -0.70711,-6.01041 0,-1.76776 z"
                   id="path14929"
                   inkscape:connector-curvature="0" />
                <path
                   style="fill:#000000;fill-rule:evenodd;stroke:#000000;stroke-width:1px;stroke-linecap:butt;stroke-linejoin:miter;stroke-opacity:1"
                   d="m -37.476562,430.10742 -2.828126,1.41406 -10.960937,16.61719 -1.767578,18.03125 1.060547,1.41406 -1.767578,3.89063 2.474609,0.35351 1.414063,-2.12109 -0.353516,-3.18359 3.18164,-1.41406 0.353516,-4.24219 8.132813,0.70703 1.060547,4.5957 7.423828,-1.06054 -4.595704,-11.3125 0.707032,-13.08204 -0.707032,-7.42382 -2.828124,-3.1836 z m -3.181641,8.48633 0.707031,4.5957 3.535156,0.70703 0,4.94922 -11.314453,-0.35351 7.072266,-9.89844 z"
                   id="path14931"
                   inkscape:connector-curvature="0" />
              </g>
            </g>
          </g>
        </g>
      </g>
      <g
         style="font-style:normal;font-weight:normal;font-size:40px;line-height:125%;font-family:sans-serif;letter-spacing:0px;word-spacing:0px;fill:#d82c2c;fill-opacity:1;stroke:none;stroke-width:1px;stroke-linecap:butt;stroke-linejoin:miter;stroke-opacity:1"
         id="text15123"
         transform="translate(202.09554,-183.14909)">
        <path
           d="m -349.34579,1263.6764 0,-26.73 q 0,-3.6 -0.27,-6.12 -0.18,-2.61 -0.9,-4.23 -0.72,-1.62 -1.98,-2.34 -1.26,-0.81 -3.33,-0.81 -3.06,0 -5.22,2.43 -2.07,2.34 -2.88,5.4 l 0,32.4 -6.48,0 0,-45 4.59,0 1.17,4.77 0.27,0 q 1.89,-2.61 4.5,-4.23 2.61,-1.62 6.66,-1.62 3.42,0 5.58,1.53 2.25,1.44 3.51,5.22 1.62,-3.15 4.59,-4.95 3.06,-1.8 6.66,-1.8 2.97,0 5.04,0.81 2.16,0.72 3.42,2.7 1.35,1.89 1.98,5.13 0.63,3.15 0.63,8.01 l 0,29.43 -6.48,0 0,-28.62 q 0,-5.85 -1.17,-8.73 -1.08,-2.88 -5.13,-2.88 -3.42,0 -5.49,2.16 -1.98,2.07 -2.79,5.67 l 0,32.4 -6.48,0 z"
           style="font-style:normal;font-variant:normal;font-weight:normal;font-stretch:condensed;font-size:90px;font-family:'PT Sans Narrow';-inkscape-font-specification:'PT Sans Narrow Condensed';fill:#d82c2c;fill-opacity:1"
           id="path15132"
           inkscape:connector-curvature="0" />
        <path
           d="m -312.14485,1221.3764 q 2.61,-1.62 6.3,-2.52 3.78,-0.9 7.92,-0.9 3.78,0 6.03,1.17 2.34,1.08 3.6,3.06 1.35,1.89 1.71,4.41 0.45,2.43 0.45,5.13 0,5.4 -0.27,10.53 -0.18,5.13 -0.18,9.72 0,3.42 0.18,6.39 0.27,2.88 0.9,5.49 l -4.95,0 -1.53,-5.31 -0.36,0 q -1.35,2.34 -3.96,4.05 -2.61,1.71 -7.02,1.71 -4.86,0 -8.01,-3.33 -3.06,-3.42 -3.06,-9.36 0,-3.87 1.26,-6.48 1.35,-2.61 3.69,-4.23 2.43,-1.62 5.67,-2.25 3.33,-0.72 7.38,-0.72 0.9,0 1.8,0 0.9,0 1.89,0.09 0.27,-2.79 0.27,-4.95 0,-5.13 -1.53,-7.2 -1.53,-2.07 -5.58,-2.07 -2.52,0 -5.49,0.81 -2.97,0.72 -4.95,1.89 l -2.16,-5.13 z m 19.53,21.78 q -0.9,-0.09 -1.8,-0.09 -0.9,-0.09 -1.8,-0.09 -2.16,0 -4.23,0.36 -2.07,0.36 -3.69,1.26 -1.62,0.9 -2.61,2.43 -0.9,1.53 -0.9,3.87 0,3.6 1.71,5.58 1.8,1.98 4.59,1.98 3.78,0 5.85,-1.8 2.07,-1.8 2.88,-3.96 l 0,-9.54 z"
           style="font-style:normal;font-variant:normal;font-weight:normal;font-stretch:condensed;font-size:90px;font-family:'PT Sans Narrow';-inkscape-font-specification:'PT Sans Narrow Condensed';fill:#d82c2c;fill-opacity:1"
           id="path15134"
           inkscape:connector-curvature="0" />
        <path
           d="m -247.3097,1248.1964 q 0,4.59 0.09,8.37 0.09,3.69 0.63,7.29 l -4.41,0 -1.44,-5.4 -0.36,0 q -1.26,2.7 -3.96,4.5 -2.7,1.8 -6.48,1.8 -7.29,0 -10.89,-5.67 -3.51,-5.67 -3.51,-17.82 0,-11.52 4.32,-17.46 4.41,-5.94 12.06,-5.94 2.61,0 4.14,0.36 1.53,0.27 3.33,0.99 l 0,-18.54 6.48,0 0,47.52 z m -6.48,-22.41 q -1.26,-1.08 -2.88,-1.53 -1.53,-0.54 -4.14,-0.54 -4.77,0 -7.47,4.32 -2.61,4.32 -2.61,13.32 0,3.96 0.45,7.2 0.54,3.15 1.53,5.49 1.08,2.34 2.7,3.6 1.71,1.26 4.14,1.26 6.48,0 8.28,-7.65 l 0,-25.47 z"
           style="font-style:normal;font-variant:normal;font-weight:normal;font-stretch:condensed;font-size:90px;font-family:'PT Sans Narrow';-inkscape-font-specification:'PT Sans Narrow Condensed';fill:#d82c2c;fill-opacity:1"
           id="path15136"
           inkscape:connector-curvature="0" />
        <path
           d="m -209.72626,1260.6164 q -2.16,1.98 -5.49,3.06 -3.33,1.08 -7.02,1.08 -4.23,0 -7.38,-1.62 -3.06,-1.71 -5.13,-4.77 -1.98,-3.15 -2.97,-7.47 -0.9,-4.32 -0.9,-9.72 0,-11.52 4.23,-17.55 4.23,-6.03 11.97,-6.03 2.52,0 4.95,0.63 2.52,0.63 4.5,2.52 1.98,1.89 3.15,5.31 1.26,3.42 1.26,8.91 0,1.53 -0.18,3.33 -0.09,1.71 -0.27,3.6 l -22.86,0 q 0,3.87 0.63,7.02 0.63,3.15 1.98,5.4 1.35,2.16 3.42,3.42 2.16,1.17 5.31,1.17 2.43,0 4.77,-0.9 2.43,-0.9 3.69,-2.16 l 2.34,4.77 z m -5.04,-24.12 q 0.18,-6.75 -1.89,-9.9 -2.07,-3.15 -5.67,-3.15 -4.14,0 -6.57,3.15 -2.43,3.15 -2.88,9.9 l 17.01,0 z"
           style="font-style:normal;font-variant:normal;font-weight:normal;font-stretch:condensed;font-size:90px;font-family:'PT Sans Narrow';-inkscape-font-specification:'PT Sans Narrow Condensed';fill:#d82c2c;fill-opacity:1"
           id="path15138"
           inkscape:connector-curvature="0" />
        <path
           d="m -180.21048,1200.6764 6.48,0 0,21.42 0.27,0 q 3.69,-4.5 9.81,-4.5 6.93,0 10.35,5.49 3.51,5.49 3.51,17.37 0,12.15 -4.68,18.09 -4.59,5.94 -13.05,5.94 -4.14,0 -7.56,-0.9 -3.42,-0.99 -5.13,-2.25 l 0,-60.66 z m 6.48,56.43 q 1.26,0.72 3.06,1.17 1.89,0.36 3.96,0.36 4.68,0 7.38,-4.41 2.79,-4.5 2.79,-13.77 0,-3.87 -0.54,-6.93 -0.45,-3.15 -1.53,-5.4 -0.99,-2.25 -2.7,-3.42 -1.62,-1.26 -3.96,-1.26 -3.24,0 -5.4,1.98 -2.07,1.89 -3.06,5.22 l 0,26.46 z"
           style="font-style:normal;font-variant:normal;font-weight:normal;font-stretch:condensed;font-size:90px;font-family:'PT Sans Narrow';-inkscape-font-specification:'PT Sans Narrow Condensed';fill:#d82c2c;fill-opacity:1"
           id="path15140"
           inkscape:connector-curvature="0" />
        <path
           d="m -130.90595,1247.7464 1.89,8.73 0.45,0 1.35,-8.73 6.84,-29.07 6.57,0 -10.71,40.41 q -1.26,4.86 -2.52,9.09 -1.26,4.23 -2.79,7.29 -1.44,3.15 -3.33,4.86 -1.8,1.8 -4.32,1.8 -2.52,0 -4.41,-0.81 l 1.08,-6.12 q 1.26,0.45 2.52,0.18 1.26,-0.27 2.34,-1.53 1.17,-1.26 2.07,-3.78 0.99,-2.43 1.71,-6.39 l -14.58,-45 7.38,0 8.46,29.07 z"
           style="font-style:normal;font-variant:normal;font-weight:normal;font-stretch:condensed;font-size:90px;font-family:'PT Sans Narrow';-inkscape-font-specification:'PT Sans Narrow Condensed';fill:#d82c2c;fill-opacity:1"
           id="path15142"
           inkscape:connector-curvature="0" />
        <path
           d="m -92.066727,1218.6764 10.71,0 0,46.89 q 0,8.19 -2.88,12.51 -2.79,4.32 -9,4.32 -2.52,0 -5.13,-0.63 l 0,-9.54 q 3.87,0.36 5.04,-2.25 1.26,-2.52 1.26,-7.56 l 0,-43.74 z m -1.26,-12.69 q 0,-2.7 1.71,-4.41 1.71,-1.8 4.86,-1.8 3.15,0 5.04,1.71 1.89,1.71 1.89,4.5 0,2.79 -1.89,4.41 -1.89,1.62 -5.04,1.62 -3.15,0 -4.86,-1.62 -1.71,-1.71 -1.71,-4.41 z"
           style="font-weight:bold;fill:#d82c2c;fill-opacity:1"
           id="path15144"
           inkscape:connector-curvature="0" />
        <path
           d="m -34.861884,1246.1264 -7.92,0 0,17.55 -10.17,0 0,-17.55 -22.23,0 0,-6.66 23.04,-39.24 9.36,0 0,36.72 7.92,0 0,9.18 z m -18.09,-23.13 0.99,-8.1 -0.36,0 -2.7,7.29 -7.11,12.06 -3.6,3.42 4.59,-0.72 8.19,0 0,-13.95 z"
           style="font-weight:bold;fill:#d82c2c;fill-opacity:1"
           id="path15146"
           inkscape:connector-curvature="0" />
        <path
           d="m -29.775477,1218.6764 8.01,0 1.08,5.13 0.27,0 q 2.07,-3.24 4.59,-4.68 2.61,-1.53 6.3899997,-1.53 6.84,0 10.26000001,5.22 3.50999999,5.13 3.50999999,17.19 0,12.06 -4.31999999,18.54 -4.32000001,6.39 -12.50999971,6.39 -2.16,0 -3.69,-0.36 -1.53,-0.36 -2.88,-1.17 l 0,18.27 -10.71,0 0,-63 z m 10.71,34.92 q 0.9,0.9 1.98,1.35 1.17,0.45 2.97,0.45 3.6,0 5.4899997,-3.51 1.89,-3.6 1.89,-12.15 0,-6.39 -1.44,-9.45 -1.44,-3.15 -4.7699997,-3.15 -4.5,0 -6.12,5.31 l 0,21.15 z"
           style="font-weight:bold;fill:#d82c2c;fill-opacity:1"
           id="path15148"
           inkscape:connector-curvature="0" />
        <path
           d="m 48.458429,1246.1264 -7.92,0 0,17.55 -10.17,0 0,-17.55 -22.23,0 0,-6.66 23.04,-39.24 9.36,0 0,36.72 7.92,0 0,9.18 z m -18.09,-23.13 0.99,-8.1 -0.36,0 -2.7,7.29 -7.11,12.06 -3.6,3.42 4.59,-0.72 8.19,0 0,-13.95 z"
           style="font-weight:bold;fill:#d82c2c;fill-opacity:1"
           id="path15150"
           inkscape:connector-curvature="0" />
        <path
           d="m 75.864835,1263.6764 0,-27.36 q 0,-4.95 -1.17,-6.93 -1.17,-1.98 -3.96,-1.98 -2.34,0 -4.05,1.44 -1.71,1.44 -2.43,3.6 l 0,31.23 -10.71,0 0,-45 8.55,0 1.26,5.22 0.27,0 q 1.62,-2.61 4.41,-4.41 2.79,-1.89 7.29,-1.89 2.7,0 4.77,0.81 2.16,0.81 3.6,2.7 1.44,1.8 2.16,4.95 0.72,3.06 0.72,7.65 l 0,29.97 -10.71,0 z"
           style="font-weight:bold;fill:#d82c2c;fill-opacity:1"
           id="path15152"
           inkscape:connector-curvature="0" />
        <path
           d="m 112.59468,1241.1764 q 0,-12.15 4.14,-17.82 4.23,-5.76 11.97,-5.76 8.28,0 12.15,5.85 3.96,5.85 3.96,17.73 0,12.24 -4.23,17.91 -4.23,5.67 -11.88,5.67 -8.28,0 -12.24,-5.85 -3.87,-5.85 -3.87,-17.73 z m 6.75,0 q 0,3.96 0.45,7.2 0.54,3.24 1.62,5.58 1.17,2.34 2.97,3.69 1.8,1.26 4.32,1.26 4.68,0 7.02,-4.14 2.34,-4.23 2.34,-13.59 0,-3.87 -0.54,-7.11 -0.45,-3.33 -1.62,-5.67 -1.08,-2.34 -2.88,-3.6 -1.8,-1.35 -4.32,-1.35 -4.59,0 -7.02,4.23 -2.34,4.23 -2.34,13.5 z"
           style="font-style:normal;font-variant:normal;font-weight:normal;font-stretch:condensed;font-size:90px;font-family:'PT Sans Narrow';-inkscape-font-specification:'PT Sans Narrow Condensed';fill:#d82c2c;fill-opacity:1"
           id="path15154"
           inkscape:connector-curvature="0" />
        <path
           d="m 176.46234,1263.6764 0,-27.45 q 0,-6.75 -1.62,-9.72 -1.53,-3.06 -5.58,-3.06 -3.6,0 -5.94,2.16 -2.34,2.16 -3.42,5.31 l 0,32.76 -6.48,0 0,-45 4.68,0 1.17,4.77 0.27,0 q 1.71,-2.43 4.59,-4.14 2.97,-1.71 7.02,-1.71 2.88,0 5.04,0.81 2.25,0.81 3.69,2.79 1.53,1.89 2.25,5.13 0.81,3.24 0.81,8.19 l 0,29.16 -6.48,0 z"
           style="font-style:normal;font-variant:normal;font-weight:normal;font-stretch:condensed;font-size:90px;font-family:'PT Sans Narrow';-inkscape-font-specification:'PT Sans Narrow Condensed';fill:#d82c2c;fill-opacity:1"
           id="path15156"
           inkscape:connector-curvature="0" />
        <path
           d="m 209.07327,1241.1764 q 0,-11.97 4.68,-17.82 4.68,-5.85 13.05,-5.85 9,0 13.41,5.94 4.41,5.94 4.41,17.73 0,12.06 -4.68,17.91 -4.68,5.76 -13.14,5.76 -17.73,0 -17.73,-23.67 z m 11.07,0 q 0,6.75 1.53,10.44 1.53,3.69 5.13,3.69 3.42,0 5.04,-3.15 1.71,-3.24 1.71,-10.98 0,-6.93 -1.53,-10.53 -1.53,-3.6 -5.22,-3.6 -3.15,0 -4.95,3.24 -1.71,3.15 -1.71,10.89 z"
           style="font-weight:bold;fill:#d82c2c;fill-opacity:1"
           id="path15158"
           inkscape:connector-curvature="0" />
        <path
           d="m 250.7714,1218.6764 8.01,0 1.08,5.13 0.27,0 q 2.07,-3.24 4.59,-4.68 2.61,-1.53 6.39,-1.53 6.84,0 10.26,5.22 3.51,5.13 3.51,17.19 0,12.06 -4.32,18.54 -4.32,6.39 -12.51,6.39 -2.16,0 -3.69,-0.36 -1.53,-0.36 -2.88,-1.17 l 0,18.27 -10.71,0 0,-63 z m 10.71,34.92 q 0.9,0.9 1.98,1.35 1.17,0.45 2.97,0.45 3.6,0 5.49,-3.51 1.89,-3.6 1.89,-12.15 0,-6.39 -1.44,-9.45 -1.44,-3.15 -4.77,-3.15 -4.5,0 -6.12,5.31 l 0,21.15 z"
           style="font-weight:bold;fill:#d82c2c;fill-opacity:1"
           id="path15160"
           inkscape:connector-curvature="0" />
        <path
           d="m 321.4453,1260.3464 q -2.25,1.98 -6.12,3.24 -3.87,1.26 -8.1,1.26 -4.68,0 -8.1,-1.62 -3.33,-1.62 -5.49,-4.68 -2.16,-3.06 -3.24,-7.38 -0.99,-4.41 -0.99,-9.99 0,-12.15 4.77,-17.91 4.86,-5.85 13.41,-5.85 2.88,0 5.58,0.9 2.7,0.81 4.77,2.88 2.16,1.98 3.42,5.4 1.35,3.33 1.35,8.46 0,1.98 -0.27,4.23 -0.18,2.25 -0.63,4.86 l -21.87,0 q 0.18,5.58 2.34,8.55 2.16,2.97 6.93,2.97 2.88,0 5.22,-0.9 2.43,-0.9 3.69,-1.89 l 3.33,7.47 z m -14.04,-33.75 q -3.42,0 -5.13,2.79 -1.71,2.7 -1.98,7.65 l 12.42,0 q 0.27,-5.13 -1.08,-7.74 -1.35,-2.7 -4.23,-2.7 z"
           style="font-weight:bold;fill:#d82c2c;fill-opacity:1"
           id="path15162"
           inkscape:connector-curvature="0" />
        <path
           d="m 351.8414,1263.6764 0,-27.36 q 0,-4.95 -1.17,-6.93 -1.17,-1.98 -3.96,-1.98 -2.34,0 -4.05,1.44 -1.71,1.44 -2.43,3.6 l 0,31.23 -10.71,0 0,-45 8.55,0 1.26,5.22 0.27,0 q 1.62,-2.61 4.41,-4.41 2.79,-1.89 7.29,-1.89 2.7,0 4.77,0.81 2.16,0.81 3.6,2.7 1.44,1.8 2.16,4.95 0.72,3.06 0.72,7.65 l 0,29.97 -10.71,0 z"
           style="font-weight:bold;fill:#d82c2c;fill-opacity:1"
           id="path15164"
           inkscape:connector-curvature="0" />
        <path
           d="m 396.50109,1261.2464 q -2.25,1.8 -5.4,2.7 -3.15,0.9 -6.3,0.9 -4.59,0 -7.74,-1.62 -3.06,-1.71 -5.04,-4.77 -1.98,-3.15 -2.88,-7.47 -0.81,-4.41 -0.81,-9.81 0,-11.79 4.23,-17.73 4.23,-5.94 12.42,-5.94 4.05,0 6.57,0.72 2.61,0.72 4.59,1.8 l -2.52,8.91 q -1.62,-0.81 -3.15,-1.17 -1.44,-0.45 -3.51,-0.45 -3.78,0 -5.67,3.33 -1.89,3.24 -1.89,10.53 0,6.12 1.89,9.99 1.98,3.87 6.21,3.87 2.25,0 3.78,-0.54 1.62,-0.63 2.97,-1.53 l 2.25,8.28 z"
           style="font-weight:bold;fill:#d82c2c;fill-opacity:1"
           id="path15166"
           inkscape:connector-curvature="0" />
        <path
           d="m 412.30593,1249.0964 q 0,3.15 0.63,4.5 0.63,1.35 2.07,1.35 0.81,0 1.62,-0.18 0.9,-0.18 1.98,-0.63 l 0.99,8.64 q -1.08,0.72 -3.69,1.35 -2.61,0.63 -5.31,0.63 -4.5,0 -6.75,-2.25 -2.25,-2.25 -2.25,-7.65 l 0,-54.18 10.71,0 0,48.42 z"
           style="font-weight:bold;fill:#d82c2c;fill-opacity:1"
           id="path15168"
           inkscape:connector-curvature="0" />
        <path
           d="m 424.1128,1218.6764 10.71,0 0,45 -10.71,0 0,-45 z m -1.17,-12.69 q 0,-2.7 1.71,-4.41 1.71,-1.8 4.86,-1.8 3.15,0 5.04,1.71 1.89,1.71 1.89,4.5 0,2.79 -1.89,4.41 -1.89,1.62 -5.04,1.62 -3.15,0 -4.86,-1.62 -1.71,-1.71 -1.71,-4.41 z"
           style="font-weight:bold;fill:#d82c2c;fill-opacity:1"
           id="path15170"
           inkscape:connector-curvature="0" />
        <path
           d="m 443.42765,1218.6764 8.01,0 1.08,5.13 0.27,0 q 2.07,-3.24 4.59,-4.68 2.61,-1.53 6.39,-1.53 6.84,0 10.26,5.22 3.51,5.13 3.51,17.19 0,12.06 -4.32,18.54 -4.32,6.39 -12.51,6.39 -2.16,0 -3.69,-0.36 -1.53,-0.36 -2.88,-1.17 l 0,18.27 -10.71,0 0,-63 z m 10.71,34.92 q 0.9,0.9 1.98,1.35 1.17,0.45 2.97,0.45 3.6,0 5.49,-3.51 1.89,-3.6 1.89,-12.15 0,-6.39 -1.44,-9.45 -1.44,-3.15 -4.77,-3.15 -4.5,0 -6.12,5.31 l 0,21.15 z"
           style="font-weight:bold;fill:#d82c2c;fill-opacity:1"
           id="path15172"
           inkscape:connector-curvature="0" />
        <path
           d="m 483.77155,1221.3764 q 2.7,-1.62 6.75,-2.61 4.05,-0.99 9.18,-0.99 7.65,0 10.62,3.96 3.06,3.96 3.06,11.25 0,4.23 -0.27,8.37 -0.18,4.05 -0.27,8.01 -0.09,3.87 0.09,7.56 0.27,3.6 1.26,6.84 l -8.73,0 -1.71,-5.49 -0.36,0 q -1.44,2.61 -4.05,4.32 -2.61,1.71 -6.57,1.71 -5.31,0 -8.37,-3.51 -3.06,-3.6 -3.06,-9.54 0,-8.1 5.76,-11.52 5.76,-3.42 15.57,-2.88 0.45,-5.22 -0.72,-7.56 -1.08,-2.34 -4.77,-2.34 -2.7,0 -5.58,0.63 -2.88,0.63 -5.13,1.8 l -2.7,-8.01 z m 12.87,33.75 q 2.43,0 3.96,-1.17 1.53,-1.26 2.25,-2.7 l 0,-7.47 q -2.07,-0.27 -3.96,-0.09 -1.89,0.18 -3.33,0.81 -1.44,0.63 -2.34,1.89 -0.81,1.17 -0.81,3.06 0,2.79 1.08,4.23 1.17,1.44 3.15,1.44 z"
           style="font-weight:bold;fill:#d82c2c;fill-opacity:1"
           id="path15174"
           inkscape:connector-curvature="0" />
        <path
           d="m 542.18718,1229.2964 q -2.16,-0.81 -3.96,-0.81 -2.43,0 -4.23,1.35 -1.71,1.35 -2.34,3.78 l 0,30.06 -10.71,0 0,-45 8.19,0 1.26,5.4 0.36,0 q 1.17,-2.97 3.33,-4.59 2.25,-1.71 5.13,-1.71 2.16,0 4.23,0.9 l -1.26,10.62 z"
           style="font-weight:bold;fill:#d82c2c;fill-opacity:1"
           id="path15176"
           inkscape:connector-curvature="0" />
        <path
           d="m 546.08952,1218.6764 4.95,0 0,-8.46 10.71,-3.33 0,11.79 8.73,0 0,9.54 -8.73,0 0,19.62 q 0,3.87 0.72,5.49 0.81,1.62 2.79,1.62 1.35,0 2.43,-0.27 1.08,-0.27 2.34,-0.81 l 1.35,8.55 q -1.98,0.99 -4.59,1.62 -2.61,0.72 -5.49,0.72 -5.13,0 -7.74,-2.97 -2.52,-2.97 -2.52,-9.99 l 0,-23.58 -4.95,0 0,-9.54 z"
           style="font-weight:bold;fill:#d82c2c;fill-opacity:1"
           id="path15178"
           inkscape:connector-curvature="0" />
        <path
           d="m 574.98093,1257.8264 q 0,-3.33 1.71,-5.04 1.8,-1.71 4.68,-1.71 3.15,0 4.86,1.71 1.71,1.71 1.71,5.04 0,3.24 -1.8,5.04 -1.71,1.8 -4.77,1.8 -2.97,0 -4.68,-1.8 -1.71,-1.8 -1.71,-5.04 z"
           style="font-weight:bold;fill:#d82c2c;fill-opacity:1"
           id="path15180"
           inkscape:connector-curvature="0" />
        <path
           d="m 591.39749,1241.1764 q 0,-11.97 4.68,-17.82 4.68,-5.85 13.05,-5.85 9,0 13.41,5.94 4.41,5.94 4.41,17.73 0,12.06 -4.68,17.91 -4.68,5.76 -13.14,5.76 -17.73,0 -17.73,-23.67 z m 11.07,0 q 0,6.75 1.53,10.44 1.53,3.69 5.13,3.69 3.42,0 5.04,-3.15 1.71,-3.24 1.71,-10.98 0,-6.93 -1.53,-10.53 -1.53,-3.6 -5.22,-3.6 -3.15,0 -4.95,3.24 -1.71,3.15 -1.71,10.89 z"
           style="font-weight:bold;fill:#d82c2c;fill-opacity:1"
           id="path15182"
           inkscape:connector-curvature="0" />
        <path
           d="m 654.33562,1229.2964 q -2.16,-0.81 -3.96,-0.81 -2.43,0 -4.23,1.35 -1.71,1.35 -2.34,3.78 l 0,30.06 -10.71,0 0,-45 8.19,0 1.26,5.4 0.36,0 q 1.17,-2.97 3.33,-4.59 2.25,-1.71 5.13,-1.71 2.16,0 4.23,0.9 l -1.26,10.62 z"
           style="font-weight:bold;fill:#d82c2c;fill-opacity:1"
           id="path15184"
           inkscape:connector-curvature="0" />
        <path
           d="m 691.6828,1263.6764 q 0,9.81 -4.5,14.4 -4.5,4.68 -12.51,4.68 -5.58,0 -8.73,-0.9 -3.15,-0.81 -4.86,-1.8 l 2.25,-9.09 q 1.98,0.81 4.23,1.53 2.34,0.72 5.49,0.72 4.59,0 6.3,-2.52 1.8,-2.43 1.8,-7.47 l 0,-2.43 -0.27,0 q -1.26,1.8 -3.42,2.7 -2.07,0.9 -5.4,0.9 -7.11,0 -10.71,-5.31 -3.51,-5.4 -3.51,-17.01 0,-12.51 4.86,-18.45 4.95,-5.94 14.04,-5.94 4.86,0 8.73,0.81 3.87,0.72 6.21,1.8 l 0,43.38 z m -16.65,-8.46 q 2.43,0 3.78,-1.17 1.44,-1.17 2.16,-3.33 l 0,-22.5 q -0.99,-0.45 -2.25,-0.72 -1.17,-0.27 -2.79,-0.27 -3.33,0 -5.22,3.24 -1.8,3.24 -1.8,11.16 0,13.59 6.12,13.59 z"
           style="font-weight:bold;fill:#d82c2c;fill-opacity:1"
           id="path15186"
           inkscape:connector-curvature="0" />
      </g>
    </g>
  </g>
</svg>
