<?xml version="1.0" encoding="UTF-8" standalone="no"?>
<svg
   xmlns:dc="http://purl.org/dc/elements/1.1/"
   xmlns:cc="http://creativecommons.org/ns#"
   xmlns:rdf="http://www.w3.org/1999/02/22-rdf-syntax-ns#"
   xmlns:svg="http://www.w3.org/2000/svg"
   xmlns="http://www.w3.org/2000/svg"
   xmlns:sodipodi="http://sodipodi.sourceforge.net/DTD/sodipodi-0.dtd"
   xmlns:inkscape="http://www.inkscape.org/namespaces/inkscape"
   sodipodi:docname="stretching-in-bikini-col.svg"
   inkscape:version="0.92.3 (2405546, 2018-03-11)"
   id="svg278"
   version="1.1"
   viewBox="0 0 50.842023 57.087341"
   height="57.087341mm"
   width="50.842022mm">
  <title
     id="title364">Stretching in bikini</title>
  <defs
     id="defs272" />
  <sodipodi:namedview
     inkscape:window-maximized="1"
     inkscape:window-y="-8"
     inkscape:window-x="3832"
     inkscape:window-height="1017"
     inkscape:window-width="1920"
     fit-margin-bottom="0"
     fit-margin-right="0"
     fit-margin-left="0"
     fit-margin-top="0"
     inkscape:snap-global="false"
     showgrid="false"
     inkscape:document-rotation="0"
     inkscape:current-layer="layer1"
     inkscape:document-units="mm"
     inkscape:cy="123.03798"
     inkscape:cx="205.09989"
     inkscape:zoom="2"
     inkscape:pageshadow="2"
     inkscape:pageopacity="0.0"
     borderopacity="1.0"
     bordercolor="#666666"
     pagecolor="#ffffff"
     id="base" />
  <metadata
     id="metadata275">
    <rdf:RDF>
      <cc:Work
         rdf:about="">
        <dc:format>image/svg+xml</dc:format>
        <dc:type
           rdf:resource="http://purl.org/dc/dcmitype/StillImage" />
        <dc:title>Stretching in bikini</dc:title>
        <cc:license
           rdf:resource="http://creativecommons.org/publicdomain/zero/1.0/" />
      </cc:Work>
      <cc:License
         rdf:about="http://creativecommons.org/publicdomain/zero/1.0/">
        <cc:permits
           rdf:resource="http://creativecommons.org/ns#Reproduction" />
        <cc:permits
           rdf:resource="http://creativecommons.org/ns#Distribution" />
        <cc:permits
           rdf:resource="http://creativecommons.org/ns#DerivativeWorks" />
      </cc:License>
    </rdf:RDF>
  </metadata>
  <g
     transform="translate(-308.12932,-91.972286)"
     id="layer1"
     inkscape:groupmode="layer"
     inkscape:label="Lager 1">
    <path
       style="fill:#e9c6af;stroke:none;stroke-width:0.99999994px;stroke-linecap:butt;stroke-linejoin:miter;stroke-opacity:1"
       d="m 187.73633,12.46875 -13.78906,1.769531 -18.38477,5.65625 -22.18505,10.252255 -64.787606,10.60712 -3.53711,14.84961 v 0.002 L 59.042969,59.138672 56.568359,58.785156 55.507812,55.25 51.619141,51.007812 46.669922,47.119141 49.851562,35.804688 21.919922,17.419922 9.9003906,14.591797 3.1816406,21.308594 0.70703125,37.572266 5.3027344,56.664062 23.333984,99.089844 39.951172,138.33594 56.921875,181.46875 c 0,0 12.374758,28.63847 14.496094,30.75977 2.121297,2.12133 6.716797,8.13086 6.716797,8.13086 l 63.640624,2.4746 4.94922,-24.39453 0.35351,-15.20312 -7.07031,-47.37695 10.60547,-20.15235 19.79883,-37.476561 16.26367,-33.234375 4.5957,-24.041016 z m -32.88086,36.328125 c 0.61871,0 -5.39008,10.607816 -5.47852,11.226563 -0.0884,0.618708 -15.4677,29.785507 -15.99804,31.111328 -0.53035,1.32582 -6.27748,2.740234 -6.63086,2.740234 -0.35354,0 3.97851,-14.052734 3.97851,-14.052734 l 1.85547,-8.042969 5.39258,-2.476563 0.97266,-2.65039 -4.24415,-5.65625 9.36915,-10.519532 c 0,0 10.16449,-1.679687 10.7832,-1.679687 z M 40.304688,59.138672 c 0,0 22.273153,6.363201 25.101562,7.070312 0.197295,0.04932 0.363929,0.03629 0.505859,-0.02344 l 0.203125,2.5 16.615235,20.859375 2.830078,13.433598 -2.123047,10.2539 -3.535156,1.06055 -16.970703,-12.72852 -4.242188,-0.35351 -3.535156,-6.716799 z"
       transform="matrix(0.26458333,0,0,0.26458333,308.12932,91.972286)"
       id="path9"
       inkscape:connector-curvature="0"
       sodipodi:nodetypes="ccccccccccccccccccccccccccccccccsccsccccccscccccccccccc" />
    <path
       style="fill:#ffffff;stroke:none;stroke-width:0.26458332px;stroke-linecap:butt;stroke-linejoin:miter;stroke-opacity:1"
       d="m 337.19822,114.61193 -0.77174,1.37977 0.86529,1.21608 1.66041,-0.42095 c 0,0 0.88867,-2.08136 0.72497,-2.08136 -0.16371,0 -2.47893,-0.0935 -2.47893,-0.0935 z"
       id="path13"
       inkscape:connector-curvature="0" />
    <path
       style="fill:#ff5555;stroke:none;stroke-width:0.26458332px;stroke-linecap:butt;stroke-linejoin:miter;stroke-opacity:1"
       d="m 337.29177,116.74006 1.23946,-0.1637 0.21047,0.72497 -1.44993,0.23386 z"
       id="path15"
       inkscape:connector-curvature="0" />
    <path
       style="fill:#ffffff;stroke:none;stroke-width:0.26458332px;stroke-linecap:butt;stroke-linejoin:miter;stroke-opacity:1"
       d="m 333.05888,110.63629 1.82412,-0.23386 0.56127,-0.0468 c 0,0 1.47332,-0.91206 1.42655,-1.02899 -0.0468,-0.11693 -1.26285,-2.6894 -1.26285,-2.6894 l -2.10475,0.44434 z"
       id="path22"
       inkscape:connector-curvature="0" />
    <path
       style="fill:#ffeeaa;stroke:none;stroke-width:0.26458332px;stroke-linecap:butt;stroke-linejoin:miter;stroke-opacity:1"
       d="m 343.65278,108.34446 1.37978,1.56686 c 0,0 -0.18709,0.53788 -0.3274,0.53788 -0.14032,0 -2.6894,0.46772 -2.6894,0.46772 0,0 -2.29184,-1.52009 -2.1983,-1.73057 0.0935,-0.21047 2.08136,-4.88769 2.08136,-4.88769 l -0.0234,-1.333 c 0,0 -0.91205,-0.58466 -1.02898,-0.53788 -0.11693,0.0468 -1.94105,1.07576 -1.94105,1.07576 0,0 -3.22728,-0.30402 -3.32082,-0.30402 -0.0935,0 -1.66042,-0.95883 -1.66042,-0.95883 l -1.30961,0.81851 -0.98222,2.61924 c 0,0 -1.35639,1.75396 -1.35639,1.8475 0,0.0935 -0.14032,2.01121 -0.14032,2.10475 0,0.0935 -0.11693,0.98222 -0.11693,0.98222 l 0.44434,1.80072 -1.87089,-0.14031 -0.51449,0.95883 -1.94105,-3.06358 -0.67819,-3.81193 -1.05238,1.14592 c 0,0 -1.07576,0.39756 -1.28623,0.28063 -0.21048,-0.11693 -2.57247,-3.74177 -2.57247,-3.74177 l 1.96443,-2.80633 c 0,0 0.35079,-3.695005 0.37418,-3.811935 0.0234,-0.116931 1.14592,-1.566868 1.14592,-1.566868 l 1.80073,-0.257247 c 0,0 1.14591,1.403165 1.14591,1.169304 0,-0.233861 0.79513,-1.870887 0.79513,-1.870887 l 2.26845,-2.432152 1.63703,0.304019 1.96443,1.683798 1.98781,-0.233861 1.63703,1.333007 0.65481,2.712785 c 0,0 3.13373,2.011207 3.22728,1.917657 0.0935,-0.0935 2.87649,-1.216074 2.87649,-1.216074 l 2.15152,0.888671 c 0,0 1.1693,2.034593 1.1693,2.174903 0,0.14032 -0.63142,2.89988 -0.63142,2.89988 0,0 -2.19829,1.73057 -2.29184,1.87088 -0.0935,0.14032 -0.77174,1.54349 -0.77174,1.54349 z"
       id="path24"
       inkscape:connector-curvature="0" />
    <path
       sodipodi:nodetypes="scsssscsssccsssssscssssscscsssssssscaacscscsccccsssssssscccssssccccccssssssscccsssssccssscsscssssscsscccsssssssssscaaassccsscssssssssssssssssssssssscssssssscssssssccsssssssccssssssssssccssssscsssscssscssccsssssssssssssssssssssscssssssssssscscssssscsssssssssssssssscsssssssssscssssssssssscssscsssssssssccccssssssssssssssscssscssssscscsssccssscscsssssssscssssss"
       transform="scale(0.26458333)"
       d="m 1248.9844,347.625 c -5.1361,-0.0549 -9.406,6.39155 -10.1914,10.07031 -0.5718,2.96897 1.2727,2.29704 3.0312,-1.10351 3.353,-6.4839 11.5654,-7.40705 15.7715,-1.77344 1.5522,2.07904 1.6982,2.96129 0.7754,4.68555 -1.5249,2.84912 0.8886,2.93715 3.4336,0.125 4.0935,-4.52327 12.0502,-0.74553 13.1641,6.25 0.5105,3.21501 0.3292,3.75088 -1.2833,3.7539 -1.0344,0.002 -3.4264,0.94742 -5.3164,2.09961 -3.0593,1.86505 -3.8488,1.95866 -7.1855,0.85742 -4.831,-1.59439 -11.6498,-0.52353 -14.6563,2.30078 l -2.2988,2.16016 -0.5781,-2.21094 c -0.9439,-3.60933 -2.9575,-2.54003 -5.25,2.78907 -1.183,2.75003 -2.387,5 -2.6738,5 -0.2871,0 -1.8038,-0.66214 -3.3711,-1.47266 -2.5359,-1.31131 -2.9929,-1.30241 -4.1485,0.0898 -1.072,1.29177 -0.9878,2.76911 0.4805,8.46875 2.0812,8.07893 1.5212,12.0578 -2.0937,14.90235 -4.2498,3.34288 -5.3354,2.25912 -1.5391,-1.53711 2.6755,-2.67538 3.267,-3.83453 2.4004,-4.70117 -0.8667,-0.86676 -1.4453,-0.85361 -2.3496,0.0508 -0.6601,0.66002 -2.6743,1.19922 -4.4766,1.19922 -6.8306,0 -8.7046,-9.66814 -2.6133,-13.48633 3.1741,-1.98951 3.2119,-2.10683 3.25,-10.02344 0.034,-7.16428 0.3079,-8.29954 2.5801,-10.75 4.7887,-5.16435 11.3925,-2.29496 11.5293,5.00977 0.056,3.0082 0.2403,3.35437 0.9297,1.75 2.9338,-6.82746 -0.2878,-12.5 -7.0996,-12.5 -3.3294,0 -4.739,0.6394 -7.5,3.40039 -3.2726,3.27261 -3.4004,3.68577 -3.4004,11.03125 0,9.08936 -1.2532,10.25708 -6.3652,5.92578 -9.4647,-8.01923 -13.6923,-10.88131 -23.6348,-16 -10.4362,-5.3729 -17.4738,-4.34762 -21.6953,3.16211 -1.959,3.48461 -2.2003,5.165 -1.9395,13.48047 0.1638,5.225 1.0903,12.5585 2.0606,16.29687 0,0 0.7562,3.32891 1.2851,4.94922 6.0718,18.60088 14.2424,36.45115 21.6094,54.57812 4.1355,10.17576 10.8113,19.94065 12.6816,30.41407 0,1.09614 4.0454,10.20934 11.7637,26.5039 1.5002,3.16725 2.7677,5.98267 2.8164,6.25782 0.049,0.27503 0.6616,1.84997 1.3633,3.5 0.7017,1.64999 2.3869,6.14998 3.7441,10 3.7827,10.72966 11.0437,24.95619 14.8711,29.13476 0.3859,0.42127 0.7428,0.77402 1.0899,1.11133 h 2.0058 c -0.6355,-1.68992 -2.0513,-4.0552 -3.4043,-5.52734 -1.2136,-1.33948 -1.4096,-3.21736 -2.5371,-4.39649 -1.3712,-1.40602 -5.7129,-11.03133 -5.7129,-12.66601 0,-0.53515 2.8125,-0.0724 6.25,1.02734 12.029,3.84831 32.594,2.07489 43.9668,-3.79102 4.242,-2.18796 12.0552,-8.14167 13.084,-9.9707 0.4398,-0.78191 2.231,-1.42187 3.9805,-1.42187 3.345,0 13.6482,3.76717 15.0234,5.49218 1.246,1.56291 -0.04,12.29844 -2.3379,19.50782 -1.1393,3.57501 -1.9354,8.07501 -1.7695,10 l 0.1504,1.74609 h 3.6738 l 0.2071,-2.28711 c 0.2461,-2.72697 1.2474,-7.8749 2.2265,-11.43945 1.3479,-4.90761 1.6218,-8.24569 1.1231,-13.75 -0.5425,-5.98594 -0.403,-7.26953 0.791,-7.26953 1.9429,0 10.0489,-7.97113 12.0586,-11.85743 0.8839,-1.70936 1.8799,-5.09359 2.2129,-7.52148 1.1045,-8.05822 -5.8896,-16.14516 -17.4785,-20.20898 l -5.3418,-1.8711 0.5976,-3.74414 c 0.572,-3.57728 6.8126,-16.34265 10.7305,-21.95117 1.4403,-1.76259 1.9046,-4.22305 3.2304,-5.76563 0.7575,-0.8683 3.9643,-6.53007 7.125,-12.58007 3.1608,-6.05001 6.6119,-12.2239 7.67,-13.72071 2.5916,-3.66621 11.175,-21.8433 13.8261,-29.27929 8.3167,-23.32733 9.3096,-31.32013 4.7032,-37.88086 -2.0079,-2.85963 -2.0824,-2.87615 -10.1114,-2.34766 -8.4671,0.55733 -19.3978,3.96213 -31.0898,9.68555 -4.1497,2.0313 -7.9274,3.05083 -12.252,3.30468 -4.3801,0.2572 -7.115,1.00376 -9.1308,2.49415 l -2.8789,2.1289 -2.3692,-2.57226 c -1.3032,-1.41377 -3.7779,-3.17017 -5.5,-3.9043 -2.671,-1.13877 -3.2337,-2.01695 -3.8281,-5.98047 -0.9334,-6.22439 -5.408,-10.8131 -9.9219,-10.17383 -1.7155,0.24299 -3.8182,0.75051 -4.6738,1.12696 -1.1209,0.49341 -1.9593,-0.22937 -3,-2.58594 -0.7944,-1.79879 -2.4656,-3.77076 -3.7129,-4.38281 -0.1417,-0.15536 -2.3224,-1.58047 -6.5566,-1.41602 z m -11.3067,14.11133 c -0.227,-0.0804 -0.1458,0.29869 0.1934,1.18945 0.3755,0.98616 0.9341,1.54045 1.2422,1.23242 0.3079,-0.30788 0,-1.11465 -0.6817,-1.79297 -0.3703,-0.36761 -0.6176,-0.58065 -0.7539,-0.6289 z m 110.0098,1.36328 c 2.5055,0.002 4.4385,0.27402 5.3691,0.86133 2.121,1.33855 1.4042,9.89257 -1.707,20.36523 -4.7361,15.94243 -17.2326,43.40067 -23.6601,51.98828 -1.3104,1.75079 -2.3829,3.42307 -2.3829,3.71485 0,0.29189 -3.7662,7.28663 -8.3691,15.54297 -4.6029,8.25634 -9.3788,17.71534 -10.6152,21.02148 -1.2365,3.30618 -2.5918,5.79954 -3.0098,5.54102 -1.139,-0.70398 -3.0059,-8.86905 -3.0059,-13.14649 0,-5.46557 -2.1541,-2.80459 -2.75,3.39649 -0.3429,3.56893 0.1075,6.208 1.6875,9.88085 l 2.1563,5.01172 -3.6328,3.92774 c -1.9987,2.15985 -5.0214,5.84025 -6.7168,8.17773 -1.6954,2.33753 -3.3863,4.25 -3.7578,4.25 -1.0691,0 -3.5787,-3.14331 -6.1328,-7.67969 -2.7331,-4.85395 -8.4232,-11.32031 -9.961,-11.32031 -1.1389,0 3.5288,6.27239 6.9981,9.4043 2.5596,2.31073 2.7681,4.08956 0.3593,3.06055 -16.4827,-7.0413 -32.0273,-0.57279 -49.3574,20.53515 -3.3867,4.12498 -6.2494,7.61287 -6.3613,7.75196 -0.46,0.57176 -6.0585,-11.91509 -7.0625,-15.75196 -0.1245,-0.47592 -3.0274,-7.03021 -5.9785,-13.49804 -0.7534,-1.65109 -2.5763,-7.05199 -4.0489,-12.00196 -2.982,-10.02479 -9.3334,-19.38493 -13.5976,-29.25781 -7.5442,-17.46694 -15.82,-34.74743 -21.1914,-53 -0.047,-0.16034 -0.066,-0.32774 -0.096,-0.49219 -0.5582,-3.07657 -1.09,-6.50001 -1.5586,-9.25 -1.4673,-8.61082 -1.165,-20.34542 0.6211,-24.10937 4.0482,-8.531 17.0829,-4.14318 36.039,12.13476 l 5.1563,4.42969 -0.5273,5.8125 c -0.5215,5.75067 -0.4844,5.85125 3.3437,9.19141 2.1284,1.85714 4.105,4.27009 4.3926,5.36328 0.8559,3.25436 3.4114,4.27362 6.6504,2.6543 1.5552,-0.77761 3.1636,-1.57823 3.5761,-1.7793 0.4125,-0.201 0.75,1.24791 0.75,3.21875 0,1.97083 -0.3976,3.58398 -0.8847,3.58398 -1.5482,0 -16.9424,-5.71556 -20.8535,-7.74219 -2.7782,-1.43945 -4.769,-3.75345 -7.6153,-8.85351 -5.3454,-9.57831 -6.724,-11.65877 -7.3281,-11.05469 -0.5388,0.53881 0.1591,2.09927 11.9082,26.61914 3.8131,7.9578 8.0642,17.18279 9.4473,20.5 3.9527,9.48015 9.5085,20.43688 10.9824,21.66016 1.6569,1.37514 1.7971,-0.27712 0.1621,-1.91211 -0.6508,-0.65087 -0.883,-1.48419 -0.5156,-1.85156 1.1942,-1.19426 12.0287,6.76984 18.9629,13.93945 3.7212,3.84756 7.0617,6.70199 7.4218,6.3418 0.3602,-0.36015 -0.3217,-1.69406 -1.5156,-2.96485 -2.5728,-2.73868 -2.6506,-3.34548 -0.6719,-5.32422 1.724,-1.72388 2.1072,-13.63437 0.5684,-17.68164 -0.8417,-2.21389 -0.6409,-2.51128 2.0664,-3.05273 2.574,-0.51481 2.9561,-0.99217 2.6836,-3.36133 -0.2667,-2.31931 -0.7907,-2.76172 -3.2676,-2.76172 -2.2353,0 -3.5059,-0.82301 -5.25,-3.39843 -3.2394,-4.78375 -3.014,-6.32644 0.8653,-5.92774 4.5674,0.46938 4.4335,-1.37159 -0.2579,-3.53711 -2.2199,-1.02474 -5.1172,-3.02938 -6.4375,-4.45312 -3.0212,-3.2583 -4.3566,-2.17536 -1.8945,1.53515 2.0719,3.12231 2.8521,6.28125 1.5527,6.28125 -0.943,0 -6.6841,-12.85723 -7.7089,-17.26367 -0.7984,-3.43291 0.3985,-11.96802 1.5761,-11.24023 1.2569,0.77676 2.3554,-1.42366 2.9922,-5.9961 0.598,-4.29369 0.4275,-4.23267 7.9102,-2.82812 3.3379,0.62653 3.3851,0.58642 2.6875,-2.26758 -0.3905,-1.59764 -0.9492,-3.88729 -1.2403,-5.08789 -0.4293,-1.77237 0.2339,-2.57177 3.5235,-4.25 2.2284,-1.13688 5.2084,-2.06641 6.623,-2.06641 3.3084,0 8.6217,2.22241 10.3809,4.34375 0.7548,0.91019 1.8566,1.65625 2.4492,1.65625 0.7021,0 0.6607,-0.41934 -0.1211,-1.20117 -2.2719,-2.27188 -1.3289,-4.6011 2.3535,-5.81641 4.4824,-1.4793 7.8104,-0.68319 13.25,3.16993 l 4.3028,3.04687 4.8808,-2.09961 c 7.2719,-3.12828 10.6245,-2.79173 14.6446,1.4707 2.7601,2.92664 3.3671,4.35655 3.3671,7.91993 0,3.83841 -0.6155,5.03077 -5.25,10.17773 -2.8875,3.20685 -5.5594,6.06545 -5.9375,6.35156 -0.3781,0.28619 -1.1657,1.7824 -1.7519,3.32422 -0.9443,2.48364 -0.7333,3.13584 1.8476,5.7168 l 2.9122,2.91211 -3.877,1.16211 c -3.1092,0.93139 -4.626,0.87652 -7.6602,-0.27344 -3.3628,-1.27453 -3.8172,-1.85848 -4.0996,-5.26758 -0.2479,-2.99399 0.4651,-5.10323 3.25,-9.61523 4.7181,-7.64379 4.8656,-12.25755 0.4649,-14.53321 -2.5412,-1.31397 -3.621,-1.3896 -5.9668,-0.41796 -2.9949,1.24055 -5.5595,3.67682 -4.7363,4.5 0.264,0.26411 1.9032,-0.22996 3.6425,-1.09766 6.6204,-3.30266 9.4018,0.94475 4.6758,7.14062 -1.4522,1.90394 -3.5248,5.46125 -4.6055,7.9043 -1.0806,2.44309 -2.4012,4.71264 -2.9355,5.04297 -0.5343,0.33026 -0.936,1.36099 -0.8926,2.29102 0.049,1.04118 0.2714,1.21103 0.5821,0.4414 0.6649,-1.65146 2.3378,-1.60673 2.3378,0.0625 0,2.06578 5.1371,6.32956 9.1817,7.6211 3.1962,1.02062 4.2143,0.90399 7.7168,-0.88282 6.0071,-3.06463 8.2186,-8.05078 3.5703,-8.05078 -4.6087,0 -4.1346,-2.8468 1.3476,-8.10351 2.8092,-2.69363 5.9128,-4.9026 6.8965,-4.91016 0.9838,-0.008 2.8295,-0.2936 4.1035,-0.63476 2.1107,-0.56527 1.9248,-0.009 -2.0996,6.26367 -2.4293,3.78621 -7.0236,12.15391 -10.2109,18.5957 -6.86,13.86455 -13.7959,21.90746 -9.0059,10.44336 0.825,-1.9745 1.4714,-5.29291 1.4336,-7.37305 -0.057,-3.18073 -0.5998,-2.15761 -3.4082,6.4336 -3.8815,11.87421 -6.2228,15.57956 -11.5683,18.30664 -6.9474,3.54429 -13.2552,2.43254 -20.6739,-3.64649 l -4.2832,-3.50976 v 2.48828 c 0,2.9475 5.5593,10.58497 9.0469,12.42969 1.3763,0.72801 4.3199,1.11543 6.7031,0.88086 l 4.25,-0.41993 v 5.29688 c 0,2.91246 0.2737,6.00698 0.6075,6.87695 1.3444,3.50359 1.876,1.15512 1.5449,-6.83008 -0.3314,-7.98871 -0.2308,-8.47322 2,-9.61328 1.2919,-0.66028 5.4435,-4.18717 9.2265,-7.83789 5.0484,-4.87177 6.7365,-6.03916 6.3438,-4.38672 -0.2944,1.23825 -0.1276,1.99982 0.3711,1.69141 0.4987,-0.30822 0.9062,-0.97279 0.9062,-1.47656 0,-0.50378 1.4,-3.96514 3.1114,-7.69141 1.7114,-3.72627 3.5237,-7.67344 4.0254,-8.77344 0.5016,-1.09999 2.0044,-3.79997 3.3398,-6 1.3353,-2.19998 3.0002,-5.12501 3.6992,-6.5 0.6991,-1.37499 2.9596,-5.30362 5.0235,-8.72851 2.0638,-3.4249 4.0224,-7.30553 4.3535,-8.625 0.5478,-2.18276 0.3477,-2.35282 -2.2246,-1.88868 -1.555,0.28067 -3.3498,0.92097 -3.9883,1.42383 -1.8415,1.45032 -2.2696,-0.40089 -1.1035,-4.76953 1.314,-4.92302 0.5525,-8.32183 -2.7364,-12.23047 -1.3751,-1.63431 -2.5,-3.41276 -2.5,-3.95312 0,-1.22646 6.9527,-4.24487 19.1289,-8.30469 6.4593,-2.15365 14.7399,-3.46103 20.252,-3.45703 z m -105.9512,1.32812 c -0.1296,0.0698 -0.2225,0.67384 -0.2343,1.70508 -0.02,1.64999 0.1869,2.44461 0.4609,1.76758 0.2748,-0.67703 0.291,-2.02704 0.037,-3 -0.095,-0.36486 -0.1859,-0.51451 -0.2637,-0.47266 z m 21.8848,0.28711 c -0.5567,0 -1.8847,0.63993 -3.8145,1.91797 -1.6499,1.09274 -4.0386,1.98841 -5.3086,1.99219 -1.2699,0.004 -2.0442,0.43578 -1.7207,0.95898 0.6429,1.04024 8.0095,0.76526 10.7325,-0.40039 0.9362,-0.40063 2.1123,-0.47474 2.6152,-0.16406 0.5028,0.31075 1.7501,-0.43758 2.7715,-1.66211 1.0214,-1.22472 1.2165,-1.6621 0.4336,-0.97461 -0.783,0.6875 -2.1202,1.24194 -2.9727,1.23438 -1.3657,-0.0135 -1.3719,-0.13024 -0.051,-0.98438 0.8249,-0.53318 0.9932,-0.97877 0.3731,-0.98633 -0.6202,-0.008 -1.6884,0.66134 -2.3731,1.48633 -0.6847,0.825 -1.7094,1.5 -2.2773,1.5 -0.5679,0 -0.2181,-0.9 0.7773,-2 1.1567,-1.27804 1.3712,-1.91797 0.8145,-1.91797 z m -23.9492,1.26368 c -0.1516,-0.023 -0.2552,0.34221 -0.2852,1.07031 -0.043,1.05396 0.1932,1.64472 0.5254,1.3125 0.3322,-0.33226 0.3672,-1.19417 0.078,-1.91602 -0.1197,-0.29915 -0.2274,-0.45302 -0.3183,-0.46679 z m -11.9942,1.65429 c -1.8712,0 -4.3711,2.90361 -4.3711,5.07813 0,1.68669 0.2585,1.77705 2,0.68945 1.5992,-0.9987 2.4009,-0.9987 4,0 1.7831,1.11356 2,0.9976 2,-1.06055 0,-2.5175 -1.6888,-4.70703 -3.6289,-4.70703 z m 34.8145,17.31446 c -2.7757,0.10802 -5.6699,1.85161 -7.2754,4.85156 -1.3071,2.44229 0.3233,2.33849 2.5898,-0.16602 2.1295,-2.35306 4.2595,-2.49726 6.9414,-0.46875 4.2197,3.19159 6.1563,1.04166 2.3086,-2.5625 -1.2759,-1.19523 -2.899,-1.71911 -4.5644,-1.65429 z m -21.7227,7.98437 c -0.056,-0.007 -0.1023,0.007 -0.1386,0.043 -1.0555,1.05543 2.8925,10.6952 4.9785,12.15625 1.1782,0.8253 2.3837,1.50195 2.6777,1.50195 0.5478,0 6.0195,-8.69414 6.0195,-9.56445 0,-0.26525 -1.1212,0.25207 -2.4921,1.15039 -3.3922,2.22266 -7.088,1.12498 -9.0625,-2.69336 -0.7662,-1.48151 -1.5932,-2.54562 -1.9825,-2.59375 z m 24.9141,0.0234 c -2.1168,0.0716 -4.3319,1.68898 -5.8926,4.70703 -1.7149,3.31627 -1.0713,3.81021 1.6973,1.30469 1.5186,-1.37431 2.4479,-1.47771 5.3281,-0.59375 3.9806,1.22169 5.1354,0.26634 3.2774,-2.71094 -1.1762,-1.88334 -2.7638,-2.76273 -4.4102,-2.70703 z m 1.8008,8.68164 c -0.9226,0.003 -3.3652,0.47409 -5.4278,1.04687 -2.6977,0.74918 -3.75,1.59113 -3.75,2.9961 0,1.07414 -0.4205,1.95312 -0.9355,1.95312 -0.9692,0 -0.5357,8.42618 0.5215,10.13672 1.3173,2.13154 2.9467,-0.0617 3.5039,-4.7168 0.724,-6.0489 1.5739,-8.07717 3.7344,-8.90625 2.1168,-0.81229 6.0435,3.56944 6.8613,7.65821 0.3787,1.89381 0.9345,2.6065 1.5527,1.98828 2.3402,-2.34021 -2.5592,-12.16759 -6.0605,-12.15625 z m -25.9532,6.64258 c -0.57,0.12969 0.4005,1.69955 2.8536,3.76367 1.6922,1.4239 3.2533,2.58984 3.4687,2.58984 1.058,0 -1.0086,-2.7579 -3.6152,-4.82617 -1.467,-1.16399 -2.3642,-1.60516 -2.7071,-1.52734 z m -33.9277,0.83398 c 0.5713,0.059 1.9062,0.5046 3.4531,1.17383 6.4203,2.77776 7.5809,3.21948 13.75,5.23242 4.5018,1.46888 6.0807,2.47637 6.3204,4.03516 2.131,3.99225 4.8989,7.81785 7.9668,10.86523 5.5772,5.50156 7.0096,7.55623 7.4941,10.75586 0.3293,2.17538 0.8106,4.89834 1.0703,6.04883 0.4741,2.09915 0.9275,8.85038 0.7461,11.12305 -0.053,0.66814 -0.8851,1.63009 -1.8477,2.13867 -1.3717,0.7248 -2.867,-0.0793 -6.9179,-3.72071 -2.8424,-2.55483 -7.7725,-6.0162 -10.9571,-7.6914 l -5.791,-3.04492 -4.5976,-12.02149 c -2.529,-6.61126 -6.0344,-14.78094 -7.791,-18.15625 -1.7567,-3.37527 -3.1954,-6.37335 -3.1954,-6.66211 0,-0.0722 0.1065,-0.0958 0.2969,-0.0762 z m 57.5977,2.51953 c -1.4367,0 -1.8946,0.72322 -1.8946,3 0,2.53334 0.3889,3 2.5,3 1.4915,0 2.5,-0.57383 2.5,-1.41992 0,-2.75762 -1.2354,-4.58008 -3.1054,-4.58008 z m -23.3282,2.0918 c -0.5162,0.0147 -0.087,0.83225 1.7403,2.43945 1.5432,1.35761 3.3431,2.45054 4,2.43164 0.6568,-0.0198 -0.1566,-1.14167 -1.8067,-2.49414 -1.9562,-1.60344 -3.4173,-2.3917 -3.9336,-2.37695 z m 40.9317,8.45312 c -0.4616,0.006 -1.431,0.62301 -2.9473,1.83204 -1.7666,1.4087 -2.5823,2.76043 -2.1191,3.50976 1.099,1.77827 2.8792,0.85474 4.4101,-2.28711 1.0033,-2.05897 1.2497,-3.06252 0.6563,-3.05469 z m 0.5469,8.98633 c -0.9819,-0.0464 -2.2414,0.0142 -3.8086,0.16406 -4.2027,0.40234 -6.1971,1.11737 -7.4629,2.67579 -2.2028,2.71211 -2.2427,6.45092 -0.096,8.82421 0.9223,1.01919 2.1317,1.70083 2.6875,1.51563 1.949,-0.6497 1.7218,-2.55434 -0.5606,-4.69336 -2.2607,-2.11884 -2.2682,-2.18459 -0.3633,-3.58789 2.3385,-1.7226 7.1633,-1.88256 8.1602,-0.26953 0.4068,0.6582 -0.2647,1.95822 -1.5488,2.99805 -1.3855,1.1218 -2.0318,2.44898 -1.6621,3.4121 0.9496,2.47469 3.851,1.23633 4.8496,-2.07031 0.4983,-1.64999 1.3765,-3.97121 1.9511,-5.15625 1.2454,-2.56804 0.799,-3.67313 -2.1464,-3.8125 z m -51.6504,36.91992 c -0.2493,0.0893 -0.3715,0.84875 -0.3789,2.29883 -0.01,1.78749 0.1582,3.25 0.3691,3.25 0.9093,0 1.2941,-3.89961 0.5078,-5.14062 -0.1465,-0.23129 -0.274,-0.36738 -0.3828,-0.40625 -0.041,-0.0146 -0.08,-0.0147 -0.1152,-0.002 z m -2.5,4.07813 c -0.4819,0.14133 -1.0811,1.66749 -1.42,3.71484 -0.3859,2.33983 -1.4947,6.28084 -2.4609,8.75586 -0.9661,2.47499 -2.0869,5.40001 -2.4902,6.5 -0.4034,1.1 0.2102,0.64999 1.3652,-1 3.2848,-4.69258 6.8366,-16.93502 5.2051,-17.94336 -0.063,-0.0389 -0.1304,-0.0475 -0.1992,-0.0273 z"
       style="fill:#000000;stroke-width:0.99999899"
       id="path296"
       inkscape:connector-curvature="0" />
  </g>
</svg>
